<?xml version="1.0" encoding="UTF-8" standalone="no"?>
<svg
   xmlns:dc="http://purl.org/dc/elements/1.1/"
   xmlns:cc="http://creativecommons.org/ns#"
   xmlns:rdf="http://www.w3.org/1999/02/22-rdf-syntax-ns#"
   xmlns:svg="http://www.w3.org/2000/svg"
   xmlns="http://www.w3.org/2000/svg"
   xmlns:sodipodi="http://sodipodi.sourceforge.net/DTD/sodipodi-0.dtd"
   xmlns:inkscape="http://www.inkscape.org/namespaces/inkscape"
   version="1.0"
   width="84.720001mm"
   height="31.68mm"
   id="svg83"
   sodipodi:docname="check__always_00.svg"
   inkscape:version="0.92.4 (5da689c313, 2019-01-14)">
  <metadata
     id="metadata87">
    <rdf:RDF>
      <cc:Work
         rdf:about="">
        <dc:format>image/svg+xml</dc:format>
        <dc:type
           rdf:resource="http://purl.org/dc/dcmitype/StillImage" />
        <dc:title />
      </cc:Work>
    </rdf:RDF>
  </metadata>
  <sodipodi:namedview
     pagecolor="#ffffff"
     bordercolor="#000000"
     borderopacity="0.25"
     objecttolerance="10"
     gridtolerance="10"
     guidetolerance="10"
     inkscape:pageopacity="0"
     inkscape:pageshadow="2"
     inkscape:window-width="2880"
     inkscape:window-height="1514"
     id="namedview85"
     showgrid="false"
     inkscape:zoom="1.2242288"
     inkscape:cx="160.10079"
     inkscape:cy="59.867716"
     inkscape:window-x="5749"
     inkscape:window-y="141"
     inkscape:window-maximized="1"
     inkscape:current-layer="svg83" />
  <defs
     id="defs15">
    <clipPath
       clipPathUnits="userSpaceOnUse"
       id="clipEmfPath1">
      <path
         d="M 65.400363,14.711084 L 305.255,14.711084 L 305.255,46.371896 L 65.400363,46.371896 z"
         id="path2" />
    </clipPath>
    <clipPath
       clipPathUnits="userSpaceOnUse"
       id="clipEmfPath2">
      <path
         d="M 65.400363,14.711084 L 306.21442,14.711084 L 306.21442,45.412477 L 65.400363,45.412477 z"
         id="path5" />
    </clipPath>
    <clipPath
       clipPathUnits="userSpaceOnUse"
       id="clipEmfPath3">
      <path
         d="M 65.400363,74.354936 L 305.09509,74.354936 L 305.09509,106.17565 L 65.400363,106.17565 z"
         id="path8" />
    </clipPath>
    <clipPath
       clipPathUnits="userSpaceOnUse"
       id="clipEmfPath4">
      <path
         d="M 65.400363,74.354936 L 306.05451,74.354936 L 306.05451,105.05633 L 65.400363,105.05633 z"
         id="path11" />
    </clipPath>
    <pattern
       id="EMFhbasepattern"
       patternUnits="userSpaceOnUse"
       width="6"
       height="6"
       x="0"
       y="0" />
    <clipPath
       id="clipEmfPath1-2"
       clipPathUnits="userSpaceOnUse">
      <path
         id="path48"
         d="M 65.400363,74.674743 L 305.255,74.674743 L 305.255,106.33555 L 65.400363,106.33555 z" />
    </clipPath>
    <clipPath
       id="clipEmfPath2-1"
       clipPathUnits="userSpaceOnUse">
      <path
         id="path51-0"
         d="M 65.400363,74.674743 L 306.21442,74.674743 L 306.21442,105.37614 L 65.400363,105.37614 z" />
    </clipPath>
    <clipPath
       id="clipEmfPath3-7"
       clipPathUnits="userSpaceOnUse">
      <path
         id="path54"
         d="M 65.400363,134.31859 L 305.09509,134.31859 L 305.09509,166.13931 L 65.400363,166.13931 z" />
    </clipPath>
    <clipPath
       id="clipEmfPath4-3"
       clipPathUnits="userSpaceOnUse">
      <path
         id="path57-2"
         d="M 65.400363,134.31859 L 306.05451,134.31859 L 306.05451,165.01999 L 65.400363,165.01999 z" />
    </clipPath>
    <clipPath
       id="clipEmfPath5"
       clipPathUnits="userSpaceOnUse">
      <path
         id="path60"
         d="M 65.400363,14.711084 L 305.255,14.711084 L 305.255,46.371896 L 65.400363,46.371896 z" />
    </clipPath>
    <clipPath
       id="clipEmfPath6"
       clipPathUnits="userSpaceOnUse">
      <path
         id="path63-4"
         d="M 65.400363,14.711084 L 306.21442,14.711084 L 306.21442,45.412477 L 65.400363,45.412477 z" />
    </clipPath>
    <pattern
       y="0"
       x="0"
       height="6"
       width="6"
       patternUnits="userSpaceOnUse"
       id="EMFhbasepattern-3" />
    <clipPath
       id="clipEmfPath1-8"
       clipPathUnits="userSpaceOnUse">
      <path
         id="path240"
         d="M 65.400363,14.711084 L 305.255,14.711084 L 305.255,46.371896 L 65.400363,46.371896 z" />
    </clipPath>
    <clipPath
       id="clipEmfPath2-6"
       clipPathUnits="userSpaceOnUse">
      <path
         id="path243"
         d="M 65.400363,14.711084 L 306.21442,14.711084 L 306.21442,45.412477 L 65.400363,45.412477 z" />
    </clipPath>
    <clipPath
       id="clipEmfPath3-3"
       clipPathUnits="userSpaceOnUse">
      <path
         id="path246"
         d="M 65.400363,74.354936 L 305.09509,74.354936 L 305.09509,106.17565 L 65.400363,106.17565 z" />
    </clipPath>
    <clipPath
       id="clipEmfPath4-33"
       clipPathUnits="userSpaceOnUse">
      <path
         id="path249"
         d="M 65.400363,74.354936 L 306.05451,74.354936 L 306.05451,105.05633 L 65.400363,105.05633 z" />
    </clipPath>
    <pattern
       y="0"
       x="0"
       height="6"
       width="6"
       patternUnits="userSpaceOnUse"
       id="EMFhbasepattern-31" />
    <clipPath
       id="clipEmfPath1-5"
       clipPathUnits="userSpaceOnUse">
      <path
         id="path377"
         d="M 65.400363,74.674743 L 305.255,74.674743 L 305.255,106.33555 L 65.400363,106.33555 z" />
    </clipPath>
    <clipPath
       id="clipEmfPath2-7"
       clipPathUnits="userSpaceOnUse">
      <path
         id="path380"
         d="M 65.400363,74.674743 L 306.21442,74.674743 L 306.21442,105.37614 L 65.400363,105.37614 z" />
    </clipPath>
    <clipPath
       id="clipEmfPath3-0"
       clipPathUnits="userSpaceOnUse">
      <path
         id="path383"
         d="M 65.400363,134.31859 L 305.09509,134.31859 L 305.09509,166.13931 L 65.400363,166.13931 z" />
    </clipPath>
    <clipPath
       id="clipEmfPath4-37"
       clipPathUnits="userSpaceOnUse">
      <path
         id="path386"
         d="M 65.400363,134.31859 L 306.05451,134.31859 L 306.05451,165.01999 L 65.400363,165.01999 z" />
    </clipPath>
    <clipPath
       id="clipEmfPath5-1"
       clipPathUnits="userSpaceOnUse">
      <path
         id="path389"
         d="M 65.400363,14.711084 L 305.255,14.711084 L 305.255,46.371896 L 65.400363,46.371896 z" />
    </clipPath>
    <clipPath
       id="clipEmfPath6-9"
       clipPathUnits="userSpaceOnUse">
      <path
         id="path392"
         d="M 65.400363,14.711084 L 306.21442,14.711084 L 306.21442,45.412477 L 65.400363,45.412477 z" />
    </clipPath>
    <pattern
       y="0"
       x="0"
       height="6"
       width="6"
       patternUnits="userSpaceOnUse"
       id="EMFhbasepattern-1" />
    <clipPath
       id="clipEmfPath1-1"
       clipPathUnits="userSpaceOnUse">
      <path
         id="path563"
         d="M 65.400363,14.711084 L 305.255,14.711084 L 305.255,46.371896 L 65.400363,46.371896 z" />
    </clipPath>
    <clipPath
       id="clipEmfPath2-8"
       clipPathUnits="userSpaceOnUse">
      <path
         id="path566"
         d="M 65.400363,14.711084 L 306.21442,14.711084 L 306.21442,45.412477 L 65.400363,45.412477 z" />
    </clipPath>
    <clipPath
       id="clipEmfPath3-77"
       clipPathUnits="userSpaceOnUse">
      <path
         id="path569"
         d="M 65.400363,74.354936 L 305.09509,74.354936 L 305.09509,106.17565 L 65.400363,106.17565 z" />
    </clipPath>
    <clipPath
       id="clipEmfPath4-4"
       clipPathUnits="userSpaceOnUse">
      <path
         id="path572"
         d="M 65.400363,74.354936 L 306.05451,74.354936 L 306.05451,105.05633 L 65.400363,105.05633 z" />
    </clipPath>
    <pattern
       y="0"
       x="0"
       height="6"
       width="6"
       patternUnits="userSpaceOnUse"
       id="EMFhbasepattern-7" />
    <clipPath
       id="clipEmfPath1-4"
       clipPathUnits="userSpaceOnUse">
      <path
         id="path694"
         d="M 65.400363,74.674743 L 305.255,74.674743 L 305.255,106.33555 L 65.400363,106.33555 z" />
    </clipPath>
    <clipPath
       id="clipEmfPath2-17"
       clipPathUnits="userSpaceOnUse">
      <path
         id="path697"
         d="M 65.400363,74.674743 L 306.21442,74.674743 L 306.21442,105.37614 L 65.400363,105.37614 z" />
    </clipPath>
    <clipPath
       id="clipEmfPath3-30"
       clipPathUnits="userSpaceOnUse">
      <path
         id="path700"
         d="M 65.400363,134.31859 L 305.09509,134.31859 L 305.09509,166.13931 L 65.400363,166.13931 z" />
    </clipPath>
    <clipPath
       id="clipEmfPath4-5"
       clipPathUnits="userSpaceOnUse">
      <path
         id="path703"
         d="M 65.400363,134.31859 L 306.05451,134.31859 L 306.05451,165.01999 L 65.400363,165.01999 z" />
    </clipPath>
    <clipPath
       id="clipEmfPath5-0"
       clipPathUnits="userSpaceOnUse">
      <path
         id="path706"
         d="M 65.400363,14.711084 L 305.255,14.711084 L 305.255,46.371896 L 65.400363,46.371896 z" />
    </clipPath>
    <clipPath
       id="clipEmfPath6-99"
       clipPathUnits="userSpaceOnUse">
      <path
         id="path709"
         d="M 65.400363,14.711084 L 306.21442,14.711084 L 306.21442,45.412477 L 65.400363,45.412477 z" />
    </clipPath>
    <pattern
       y="0"
       x="0"
       height="6"
       width="6"
       patternUnits="userSpaceOnUse"
       id="EMFhbasepattern-5" />
    <clipPath
       id="clipEmfPath1-7"
       clipPathUnits="userSpaceOnUse">
      <path
         id="path883"
         d="M 65.400363,14.711084 L 305.255,14.711084 L 305.255,46.371896 L 65.400363,46.371896 z" />
    </clipPath>
    <clipPath
       id="clipEmfPath2-69"
       clipPathUnits="userSpaceOnUse">
      <path
         id="path886"
         d="M 65.400363,14.711084 L 306.21442,14.711084 L 306.21442,45.412477 L 65.400363,45.412477 z" />
    </clipPath>
    <clipPath
       id="clipEmfPath3-71"
       clipPathUnits="userSpaceOnUse">
      <path
         id="path889"
         d="M 65.400363,74.354936 L 305.09509,74.354936 L 305.09509,106.17565 L 65.400363,106.17565 z" />
    </clipPath>
    <clipPath
       id="clipEmfPath4-0"
       clipPathUnits="userSpaceOnUse">
      <path
         id="path892"
         d="M 65.400363,74.354936 L 306.05451,74.354936 L 306.05451,105.05633 L 65.400363,105.05633 z" />
    </clipPath>
    <pattern
       y="0"
       x="0"
       height="6"
       width="6"
       patternUnits="userSpaceOnUse"
       id="EMFhbasepattern-0" />
    <clipPath
       id="clipEmfPath1-87"
       clipPathUnits="userSpaceOnUse">
      <path
         id="path1014"
         d="M 65.400363,74.674743 L 305.255,74.674743 L 305.255,106.33555 L 65.400363,106.33555 z" />
    </clipPath>
    <clipPath
       id="clipEmfPath2-0"
       clipPathUnits="userSpaceOnUse">
      <path
         id="path1017"
         d="M 65.400363,74.674743 L 306.21442,74.674743 L 306.21442,105.37614 L 65.400363,105.37614 z" />
    </clipPath>
    <clipPath
       id="clipEmfPath3-5"
       clipPathUnits="userSpaceOnUse">
      <path
         id="path1020"
         d="M 65.400363,134.31859 L 305.09509,134.31859 L 305.09509,166.13931 L 65.400363,166.13931 z" />
    </clipPath>
    <clipPath
       id="clipEmfPath4-35"
       clipPathUnits="userSpaceOnUse">
      <path
         id="path1023"
         d="M 65.400363,134.31859 L 306.05451,134.31859 L 306.05451,165.01999 L 65.400363,165.01999 z" />
    </clipPath>
    <clipPath
       id="clipEmfPath5-9"
       clipPathUnits="userSpaceOnUse">
      <path
         id="path1026"
         d="M 65.400363,14.711084 L 305.255,14.711084 L 305.255,46.371896 L 65.400363,46.371896 z" />
    </clipPath>
    <clipPath
       id="clipEmfPath6-5"
       clipPathUnits="userSpaceOnUse">
      <path
         id="path1029"
         d="M 65.400363,14.711084 L 306.21442,14.711084 L 306.21442,45.412477 L 65.400363,45.412477 z" />
    </clipPath>
    <pattern
       y="0"
       x="0"
       height="6"
       width="6"
       patternUnits="userSpaceOnUse"
       id="EMFhbasepattern-50" />
    <clipPath
       id="clipEmfPath1-58"
       clipPathUnits="userSpaceOnUse">
      <path
         id="path1203"
         d="M 65.400363,14.711084 L 305.255,14.711084 L 305.255,46.371896 L 65.400363,46.371896 z" />
    </clipPath>
    <clipPath
       id="clipEmfPath2-85"
       clipPathUnits="userSpaceOnUse">
      <path
         id="path1206"
         d="M 65.400363,14.711084 L 306.21442,14.711084 L 306.21442,45.412477 L 65.400363,45.412477 z" />
    </clipPath>
    <clipPath
       id="clipEmfPath3-1"
       clipPathUnits="userSpaceOnUse">
      <path
         id="path1209"
         d="M 65.400363,74.354936 L 305.09509,74.354936 L 305.09509,106.17565 L 65.400363,106.17565 z" />
    </clipPath>
    <clipPath
       id="clipEmfPath4-9"
       clipPathUnits="userSpaceOnUse">
      <path
         id="path1212"
         d="M 65.400363,74.354936 L 306.05451,74.354936 L 306.05451,105.05633 L 65.400363,105.05633 z" />
    </clipPath>
    <pattern
       y="0"
       x="0"
       height="6"
       width="6"
       patternUnits="userSpaceOnUse"
       id="EMFhbasepattern-2" />
    <clipPath
       id="clipEmfPath1-6"
       clipPathUnits="userSpaceOnUse">
      <path
         id="path1337"
         d="M 65.400363,74.674743 L 305.255,74.674743 L 305.255,106.33555 L 65.400363,106.33555 z" />
    </clipPath>
    <clipPath
       id="clipEmfPath2-76"
       clipPathUnits="userSpaceOnUse">
      <path
         id="path1340"
         d="M 65.400363,74.674743 L 306.21442,74.674743 L 306.21442,105.37614 L 65.400363,105.37614 z" />
    </clipPath>
    <clipPath
       id="clipEmfPath3-9"
       clipPathUnits="userSpaceOnUse">
      <path
         id="path1343"
         d="M 65.400363,194.28225 L 305.09509,194.28225 L 305.09509,226.10297 L 65.400363,226.10297 z" />
    </clipPath>
    <clipPath
       id="clipEmfPath4-43"
       clipPathUnits="userSpaceOnUse">
      <path
         id="path1346"
         d="M 65.400363,14.711084 L 305.255,14.711084 L 305.255,46.371896 L 65.400363,46.371896 z" />
    </clipPath>
    <clipPath
       id="clipEmfPath5-8"
       clipPathUnits="userSpaceOnUse">
      <path
         id="path1349"
         d="M 65.400363,14.711084 L 306.21442,14.711084 L 306.21442,45.412477 L 65.400363,45.412477 z" />
    </clipPath>
    <clipPath
       id="clipEmfPath6-8"
       clipPathUnits="userSpaceOnUse">
      <path
         id="path1352"
         d="M 65.400363,134.6384 L 305.255,134.6384 L 305.255,166.29921 L 65.400363,166.29921 z" />
    </clipPath>
    <clipPath
       id="clipEmfPath7"
       clipPathUnits="userSpaceOnUse">
      <path
         id="path1355"
         d="M 65.400363,134.6384 L 306.21442,134.6384 L 306.21442,165.33979 L 65.400363,165.33979 z" />
    </clipPath>
    <pattern
       y="0"
       x="0"
       height="6"
       width="6"
       patternUnits="userSpaceOnUse"
       id="EMFhbasepattern-8" />
    <clipPath
       id="clipEmfPath1-65"
       clipPathUnits="userSpaceOnUse">
      <path
         id="path1582"
         d="M 65.400363,74.674743 L 305.255,74.674743 L 305.255,106.33555 L 65.400363,106.33555 z" />
    </clipPath>
    <clipPath
       id="clipEmfPath2-00"
       clipPathUnits="userSpaceOnUse">
      <path
         id="path1585"
         d="M 65.400363,74.674743 L 306.21442,74.674743 L 306.21442,105.37614 L 65.400363,105.37614 z" />
    </clipPath>
    <clipPath
       id="clipEmfPath3-99"
       clipPathUnits="userSpaceOnUse">
      <path
         id="path1588"
         d="M 65.400363,134.31859 L 305.09509,134.31859 L 305.09509,166.13931 L 65.400363,166.13931 z" />
    </clipPath>
    <clipPath
       id="clipEmfPath4-7"
       clipPathUnits="userSpaceOnUse">
      <path
         id="path1591"
         d="M 65.400363,14.711084 L 305.255,14.711084 L 305.255,46.371896 L 65.400363,46.371896 z" />
    </clipPath>
    <clipPath
       id="clipEmfPath5-6"
       clipPathUnits="userSpaceOnUse">
      <path
         id="path1594"
         d="M 65.400363,14.711084 L 306.21442,14.711084 L 306.21442,45.412477 L 65.400363,45.412477 z" />
    </clipPath>
    <pattern
       y="0"
       x="0"
       height="6"
       width="6"
       patternUnits="userSpaceOnUse"
       id="EMFhbasepattern-53" />
    <clipPath
       id="clipEmfPath1-49"
       clipPathUnits="userSpaceOnUse">
      <path
         id="path1763"
         d="M -85.125039,-191.01228 L -85.125039,-191.01228 L -85.125039,-191.01228 L -85.125039,-191.01228 z" />
    </clipPath>
    <clipPath
       id="clipEmfPath2-9"
       clipPathUnits="userSpaceOnUse">
      <path
         id="path1766"
         d="M 60.210394,4.1524409 L 86.16315,4.1524409 L 86.16315,19.724094 L 60.210394,19.724094 z" />
    </clipPath>
    <pattern
       y="0"
       x="0"
       height="6"
       width="6"
       patternUnits="userSpaceOnUse"
       id="EMFhbasepattern-55" />
    <clipPath
       id="clipEmfPath1-3"
       clipPathUnits="userSpaceOnUse">
      <path
         id="path1875"
         d="M 65.400363,14.711084 L 305.255,14.711084 L 305.255,46.371896 L 65.400363,46.371896 z" />
    </clipPath>
    <clipPath
       id="clipEmfPath2-12"
       clipPathUnits="userSpaceOnUse">
      <path
         id="path1878"
         d="M 65.400363,14.711084 L 306.21442,14.711084 L 306.21442,45.412477 L 65.400363,45.412477 z" />
    </clipPath>
    <clipPath
       id="clipEmfPath3-715"
       clipPathUnits="userSpaceOnUse">
      <path
         id="path1881"
         d="M 65.400363,74.354936 L 305.09509,74.354936 L 305.09509,106.17565 L 65.400363,106.17565 z" />
    </clipPath>
    <clipPath
       id="clipEmfPath4-90"
       clipPathUnits="userSpaceOnUse">
      <path
         id="path1884"
         d="M 65.400363,74.354936 L 306.05451,74.354936 L 306.05451,105.05633 L 65.400363,105.05633 z" />
    </clipPath>
    <pattern
       y="0"
       x="0"
       height="6"
       width="6"
       patternUnits="userSpaceOnUse"
       id="EMFhbasepattern-36" />
    <clipPath
       id="clipEmfPath1-39"
       clipPathUnits="userSpaceOnUse">
      <path
         id="path2012"
         d="M -106.92535,-228.38425 L -106.92535,-228.38425 L -106.92535,-228.38425 L -106.92535,-228.38425 z" />
    </clipPath>
    <clipPath
       id="clipEmfPath2-4"
       clipPathUnits="userSpaceOnUse">
      <path
         id="path2015"
         d="M 60.210394,4.1524409 L 86.16315,4.1524409 L 86.16315,19.724094 L 60.210394,19.724094 z" />
    </clipPath>
    <pattern
       y="0"
       x="0"
       height="6"
       width="6"
       patternUnits="userSpaceOnUse"
       id="EMFhbasepattern-79" />
    <clipPath
       id="clipEmfPath1-27"
       clipPathUnits="userSpaceOnUse">
      <path
         id="path2127"
         d="M -92.391811,-18.685984 L -92.391811,-18.685984 L -92.391811,-18.685984 L -92.391811,-18.685984 z" />
    </clipPath>
    <clipPath
       id="clipEmfPath2-09"
       clipPathUnits="userSpaceOnUse">
      <path
         id="path2130"
         d="M 59.172283,5.1905512 L 87.20126,5.1905512 L 87.20126,22.838425 L 59.172283,22.838425 z" />
    </clipPath>
    <pattern
       y="0"
       x="0"
       height="6"
       width="6"
       patternUnits="userSpaceOnUse"
       id="EMFhbasepattern-15" />
    <clipPath
       id="clipEmfPath1-28"
       clipPathUnits="userSpaceOnUse">
      <path
         id="path2218"
         d="M 65.400363,74.674743 L 305.255,74.674743 L 305.255,106.33555 L 65.400363,106.33555 z" />
    </clipPath>
    <clipPath
       id="clipEmfPath2-83"
       clipPathUnits="userSpaceOnUse">
      <path
         id="path2221"
         d="M 65.400363,74.674743 L 306.21442,74.674743 L 306.21442,105.37614 L 65.400363,105.37614 z" />
    </clipPath>
    <clipPath
       id="clipEmfPath3-8"
       clipPathUnits="userSpaceOnUse">
      <path
         id="path2224"
         d="M 65.400363,134.31859 L 305.09509,134.31859 L 305.09509,166.13931 L 65.400363,166.13931 z" />
    </clipPath>
    <clipPath
       id="clipEmfPath4-1"
       clipPathUnits="userSpaceOnUse">
      <path
         id="path2227"
         d="M 65.400363,134.31859 L 306.05451,134.31859 L 306.05451,165.01999 L 65.400363,165.01999 z" />
    </clipPath>
    <clipPath
       id="clipEmfPath5-11"
       clipPathUnits="userSpaceOnUse">
      <path
         id="path2230"
         d="M 65.400363,14.711084 L 305.255,14.711084 L 305.255,46.371896 L 65.400363,46.371896 z" />
    </clipPath>
    <clipPath
       id="clipEmfPath6-2"
       clipPathUnits="userSpaceOnUse">
      <path
         id="path2233"
         d="M 65.400363,14.711084 L 306.21442,14.711084 L 306.21442,45.412477 L 65.400363,45.412477 z" />
    </clipPath>
    <pattern
       y="0"
       x="0"
       height="6"
       width="6"
       patternUnits="userSpaceOnUse"
       id="EMFhbasepattern-76" />
    <clipPath
       id="clipEmfPath1-657"
       clipPathUnits="userSpaceOnUse">
      <path
         id="path2413"
         d="M 65.400363,14.711084 L 305.255,14.711084 L 305.255,46.371896 L 65.400363,46.371896 z" />
    </clipPath>
    <clipPath
       id="clipEmfPath2-40"
       clipPathUnits="userSpaceOnUse">
      <path
         id="path2416"
         d="M 65.400363,14.711084 L 306.21442,14.711084 L 306.21442,45.412477 L 65.400363,45.412477 z" />
    </clipPath>
    <clipPath
       id="clipEmfPath3-31"
       clipPathUnits="userSpaceOnUse">
      <path
         id="path2419"
         d="M 65.400363,74.354936 L 305.09509,74.354936 L 305.09509,106.17565 L 65.400363,106.17565 z" />
    </clipPath>
    <clipPath
       id="clipEmfPath4-2"
       clipPathUnits="userSpaceOnUse">
      <path
         id="path2422"
         d="M 65.400363,74.354936 L 306.05451,74.354936 L 306.05451,105.05633 L 65.400363,105.05633 z" />
    </clipPath>
    <pattern
       y="0"
       x="0"
       height="6"
       width="6"
       patternUnits="userSpaceOnUse"
       id="EMFhbasepattern-6" />
    <clipPath
       id="clipEmfPath1-84"
       clipPathUnits="userSpaceOnUse">
      <path
         id="path2559"
         d="M 65.400363,74.674743 L 305.255,74.674743 L 305.255,106.33555 L 65.400363,106.33555 z" />
    </clipPath>
    <clipPath
       id="clipEmfPath2-3"
       clipPathUnits="userSpaceOnUse">
      <path
         id="path2562"
         d="M 65.400363,74.674743 L 306.21442,74.674743 L 306.21442,105.37614 L 65.400363,105.37614 z" />
    </clipPath>
    <clipPath
       id="clipEmfPath3-03"
       clipPathUnits="userSpaceOnUse">
      <path
         id="path2565"
         d="M 65.400363,194.28225 L 305.09509,194.28225 L 305.09509,226.10297 L 65.400363,226.10297 z" />
    </clipPath>
    <clipPath
       id="clipEmfPath4-8"
       clipPathUnits="userSpaceOnUse">
      <path
         id="path2568"
         d="M 65.400363,194.28225 L 306.05451,194.28225 L 306.05451,224.98365 L 65.400363,224.98365 z" />
    </clipPath>
    <clipPath
       id="clipEmfPath5-96"
       clipPathUnits="userSpaceOnUse">
      <path
         id="path2571"
         d="M 65.400363,14.711084 L 305.255,14.711084 L 305.255,46.371896 L 65.400363,46.371896 z" />
    </clipPath>
    <clipPath
       id="clipEmfPath6-4"
       clipPathUnits="userSpaceOnUse">
      <path
         id="path2574"
         d="M 65.400363,14.711084 L 306.21442,14.711084 L 306.21442,45.412477 L 65.400363,45.412477 z" />
    </clipPath>
    <clipPath
       id="clipEmfPath7-9"
       clipPathUnits="userSpaceOnUse">
      <path
         id="path2577"
         d="M 65.400363,134.6384 L 305.255,134.6384 L 305.255,166.29921 L 65.400363,166.29921 z" />
    </clipPath>
    <clipPath
       id="clipEmfPath8"
       clipPathUnits="userSpaceOnUse">
      <path
         id="path2580"
         d="M 65.400363,134.6384 L 306.21442,134.6384 L 306.21442,165.33979 L 65.400363,165.33979 z" />
    </clipPath>
    <pattern
       y="0"
       x="0"
       height="6"
       width="6"
       patternUnits="userSpaceOnUse"
       id="EMFhbasepattern-19" />
    <clipPath
       id="clipEmfPath1-13"
       clipPathUnits="userSpaceOnUse">
      <path
         id="path2827"
         d="M 65.400363,74.674743 L 305.255,74.674743 L 305.255,106.33555 L 65.400363,106.33555 z" />
    </clipPath>
    <clipPath
       id="clipEmfPath2-96"
       clipPathUnits="userSpaceOnUse">
      <path
         id="path2830"
         d="M 65.400363,74.674743 L 306.21442,74.674743 L 306.21442,105.37614 L 65.400363,105.37614 z" />
    </clipPath>
    <clipPath
       id="clipEmfPath3-4"
       clipPathUnits="userSpaceOnUse">
      <path
         id="path2833"
         d="M 65.400363,134.31859 L 305.09509,134.31859 L 305.09509,166.13931 L 65.400363,166.13931 z" />
    </clipPath>
    <clipPath
       id="clipEmfPath4-6"
       clipPathUnits="userSpaceOnUse">
      <path
         id="path2836"
         d="M 65.400363,134.31859 L 306.05451,134.31859 L 306.05451,165.01999 L 65.400363,165.01999 z" />
    </clipPath>
    <clipPath
       id="clipEmfPath5-5"
       clipPathUnits="userSpaceOnUse">
      <path
         id="path2839"
         d="M 65.400363,14.711084 L 305.255,14.711084 L 305.255,46.371896 L 65.400363,46.371896 z" />
    </clipPath>
    <clipPath
       id="clipEmfPath6-7"
       clipPathUnits="userSpaceOnUse">
      <path
         id="path2842"
         d="M 65.400363,14.711084 L 306.21442,14.711084 L 306.21442,45.412477 L 65.400363,45.412477 z" />
    </clipPath>
    <pattern
       y="0"
       x="0"
       height="6"
       width="6"
       patternUnits="userSpaceOnUse"
       id="EMFhbasepattern-83" />
    <clipPath
       id="clipEmfPath1-29"
       clipPathUnits="userSpaceOnUse">
      <path
         id="path3034"
         d="M 65.400363,14.711084 L 305.255,14.711084 L 305.255,46.371896 L 65.400363,46.371896 z" />
    </clipPath>
    <clipPath
       id="clipEmfPath2-830"
       clipPathUnits="userSpaceOnUse">
      <path
         id="path3037"
         d="M 65.400363,14.711084 L 306.21442,14.711084 L 306.21442,45.412477 L 65.400363,45.412477 z" />
    </clipPath>
    <clipPath
       id="clipEmfPath3-81"
       clipPathUnits="userSpaceOnUse">
      <path
         id="path3040"
         d="M 65.400363,74.354936 L 305.09509,74.354936 L 305.09509,106.17565 L 65.400363,106.17565 z" />
    </clipPath>
    <clipPath
       id="clipEmfPath4-70"
       clipPathUnits="userSpaceOnUse">
      <path
         id="path3043"
         d="M 65.400363,74.354936 L 306.05451,74.354936 L 306.05451,105.05633 L 65.400363,105.05633 z" />
    </clipPath>
    <pattern
       y="0"
       x="0"
       height="6"
       width="6"
       patternUnits="userSpaceOnUse"
       id="EMFhbasepattern-74" />
    <clipPath
       id="clipEmfPath1-30"
       clipPathUnits="userSpaceOnUse">
      <path
         id="path3165"
         d="M 65.400363,14.711084 L 305.255,14.711084 L 305.255,46.371896 L 65.400363,46.371896 z" />
    </clipPath>
    <clipPath
       id="clipEmfPath2-5"
       clipPathUnits="userSpaceOnUse">
      <path
         id="path3168"
         d="M 65.400363,14.711084 L 306.21442,14.711084 L 306.21442,45.412477 L 65.400363,45.412477 z" />
    </clipPath>
    <clipPath
       id="clipEmfPath3-70"
       clipPathUnits="userSpaceOnUse">
      <path
         id="path3171"
         d="M 65.400363,74.354936 L 305.09509,74.354936 L 305.09509,106.17565 L 65.400363,106.17565 z" />
    </clipPath>
    <clipPath
       id="clipEmfPath4-370"
       clipPathUnits="userSpaceOnUse">
      <path
         id="path3174"
         d="M 65.400363,74.354936 L 306.05451,74.354936 L 306.05451,105.05633 L 65.400363,105.05633 z" />
    </clipPath>
    <pattern
       y="0"
       x="0"
       height="6"
       width="6"
       patternUnits="userSpaceOnUse"
       id="EMFhbasepattern-86" />
    <clipPath
       id="clipEmfPath1-75"
       clipPathUnits="userSpaceOnUse">
      <path
         id="path3296"
         d="M -110.03969,-14.533543 L -110.03969,-14.533543 L -110.03969,-14.533543 L -110.03969,-14.533543 z" />
    </clipPath>
    <clipPath
       id="clipEmfPath2-89"
       clipPathUnits="userSpaceOnUse">
      <path
         id="path3299"
         d="M 60.210394,4.1524409 L 86.16315,4.1524409 L 86.16315,19.724094 L 60.210394,19.724094 z" />
    </clipPath>
    <pattern
       y="0"
       x="0"
       height="6"
       width="6"
       patternUnits="userSpaceOnUse"
       id="EMFhbasepattern-11" />
  </defs>
  <path
     style="fill:#ffffff;fill-rule:evenodd;fill-opacity:1;stroke:none;"
     d="  M 0.079951545,0.079951545   L 0.079951545,60.04361   L 319.88613,60.04361   L 319.88613,0.079951545   L 0.079951545,0.079951545   z "
     id="path17" />
  <path
     style="fill:none;stroke:#595959;stroke-width:0.9993943px;stroke-linecap:butt;stroke-linejoin:round;stroke-miterlimit:4;stroke-dasharray:none;stroke-opacity:1;"
     clip-path="url(#clipEmfPath1)"
     d="  M 65.320412,14.791036   L 92.024228,14.791036  "
     id="path19" />
  <path
     style="fill:none;stroke:#595959;stroke-width:0.9993943px;stroke-linecap:butt;stroke-linejoin:round;stroke-miterlimit:4;stroke-dasharray:none;stroke-opacity:1;"
     clip-path="url(#clipEmfPath1)"
     d="  M 92.024228,14.791036   L 118.56814,14.791036  "
     id="path21" />
  <path
     style="fill:none;stroke:#595959;stroke-width:0.9993943px;stroke-linecap:butt;stroke-linejoin:round;stroke-miterlimit:4;stroke-dasharray:none;stroke-opacity:1;"
     clip-path="url(#clipEmfPath1)"
     d="  M 118.56814,14.791036   L 145.27196,14.791036  "
     id="path23" />
  <path
     style="fill:none;stroke:#595959;stroke-width:0.9993943px;stroke-linecap:butt;stroke-linejoin:round;stroke-miterlimit:4;stroke-dasharray:none;stroke-opacity:1;"
     clip-path="url(#clipEmfPath1)"
     d="  M 145.27196,14.791036   L 171.97577,14.791036  "
     id="path25" />
  <path
     style="fill:none;stroke:#595959;stroke-width:0.9993943px;stroke-linecap:butt;stroke-linejoin:round;stroke-miterlimit:4;stroke-dasharray:none;stroke-opacity:1;"
     clip-path="url(#clipEmfPath1)"
     d="  M 171.97577,45.332526   L 198.51969,45.332526  "
     id="path27" />
  <path
     style="fill:none;stroke:#595959;stroke-width:0.9993943px;stroke-linecap:butt;stroke-linejoin:round;stroke-miterlimit:4;stroke-dasharray:none;stroke-opacity:1;"
     clip-path="url(#clipEmfPath1)"
     d="  M 198.51969,14.791036   L 225.2235,14.791036  "
     id="path29" />
  <path
     style="fill:none;stroke:#595959;stroke-width:0.9993943px;stroke-linecap:butt;stroke-linejoin:round;stroke-miterlimit:4;stroke-dasharray:none;stroke-opacity:1;"
     clip-path="url(#clipEmfPath1)"
     d="  M 225.2235,45.332526   L 251.92732,45.332526  "
     id="path31" />
  <path
     style="fill:none;stroke:#595959;stroke-width:0.9993943px;stroke-linecap:butt;stroke-linejoin:round;stroke-miterlimit:4;stroke-dasharray:none;stroke-opacity:1;"
     clip-path="url(#clipEmfPath1)"
     d="  M 251.92732,45.332526   L 278.47123,45.332526  "
     id="path33" />
  <path
     style="fill:none;stroke:#595959;stroke-width:0.9993943px;stroke-linecap:butt;stroke-linejoin:round;stroke-miterlimit:4;stroke-dasharray:none;stroke-opacity:1;"
     clip-path="url(#clipEmfPath1)"
     d="  M 278.47123,14.791036   L 305.17505,14.791036  "
     id="path35" />
  <path
     style="fill:none;stroke:#595959;stroke-width:0.9993943px;stroke-linecap:butt;stroke-linejoin:round;stroke-miterlimit:4;stroke-dasharray:none;stroke-opacity:1;"
     clip-path="url(#clipEmfPath2)"
     d="  M 171.97577,45.332526   L 171.97577,14.791036  "
     id="path37" />
  <path
     style="fill:none;stroke:#595959;stroke-width:0.9993943px;stroke-linecap:butt;stroke-linejoin:round;stroke-miterlimit:4;stroke-dasharray:none;stroke-opacity:1;"
     clip-path="url(#clipEmfPath2)"
     d="  M 198.51969,14.791036   L 198.51969,45.332526  "
     id="path39" />
  <path
     style="fill:none;stroke:#595959;stroke-width:0.9993943px;stroke-linecap:butt;stroke-linejoin:round;stroke-miterlimit:4;stroke-dasharray:none;stroke-opacity:1;"
     clip-path="url(#clipEmfPath2)"
     d="  M 225.2235,45.332526   L 225.2235,14.791036  "
     id="path41" />
  <path
     style="fill:none;stroke:#595959;stroke-width:0.9993943px;stroke-linecap:butt;stroke-linejoin:round;stroke-miterlimit:4;stroke-dasharray:none;stroke-opacity:1;"
     clip-path="url(#clipEmfPath2)"
     d="  M 278.47123,14.791036   L 278.47123,45.332526  "
     id="path43" />
  <text
     xml:space="preserve"
     style="font-size:18.687500px;font-style:normal;font-variant:normal;font-weight:400;font-stretch:Normal;line-height:125.000000%;letter-spacing:0px;word-spacing:0px;fill:#000000;fill-opacity:1;stroke:none;font-family:Calibri;text-align:start;text-anchor:start;"
     transform="matrix(1.000000,-0.000000,0.000000,1.000000,17.819121,35.898297)"
     x="0.000000"
     y="0.000000"
     id="text49"><tspan
       sodipodi:role="line"
       x="0.000000"
       y="0.000000"
       id="tspan47"><tspan
         dx="0.000000"
         dy="0.000000"
         style="fill:#595959;font-size:18.687500px;font-style:normal;font-variant:normal;font-weight:400;font-stretch:Normal;font-family:Calibri;"
         id="tspan45">p</tspan></tspan></text>
  <path
     style="fill:#ffffff;fill-rule:evenodd;fill-opacity:1;stroke:none;"
     d="  M 0.079951545,59.723804   L 0.079951545,119.84737   L 319.72623,119.84737   L 319.72623,59.723804   L 0.079951545,59.723804   z "
     id="path51" />
  <path
     style="fill:none;stroke:#bfbfbf;stroke-width:0.9993943px;stroke-linecap:butt;stroke-linejoin:round;stroke-miterlimit:4;stroke-dasharray:none;stroke-opacity:1;"
     d="  M 65.320412,105.13628   L 305.01514,105.13628  "
     id="path53" />
  <path
     style="fill:none;stroke:#bfbfbf;stroke-width:0.9993943px;stroke-linecap:butt;stroke-linejoin:round;stroke-miterlimit:4;stroke-dasharray:none;stroke-opacity:1;"
     d="  M 65.320412,105.13628   L 65.320412,108.97396     M 92.024228,105.13628   L 92.024228,108.97396     M 118.56814,105.13628   L 118.56814,108.97396     M 145.27196,105.13628   L 145.27196,108.97396     M 171.81587,105.13628   L 171.81587,108.97396     M 198.51969,105.13628   L 198.51969,108.97396     M 225.2235,105.13628   L 225.2235,108.97396     M 251.76741,105.13628   L 251.76741,108.97396     M 278.47123,105.13628   L 278.47123,108.97396     M 305.01514,105.13628   L 305.01514,108.97396    "
     id="path55" />
  <path
     style="fill:none;stroke:#000000;stroke-width:0.9993943px;stroke-linecap:butt;stroke-linejoin:round;stroke-miterlimit:4;stroke-dasharray:none;stroke-opacity:1;"
     clip-path="url(#clipEmfPath3)"
     d="  M 65.320412,74.434888   L 92.024228,74.434888  "
     id="path57" />
  <path
     style="fill:none;stroke:#000000;stroke-width:0.9993943px;stroke-linecap:butt;stroke-linejoin:round;stroke-miterlimit:4;stroke-dasharray:none;stroke-opacity:1;"
     clip-path="url(#clipEmfPath3)"
     d="  M 92.024228,74.434888   L 118.56814,74.434888  "
     id="path59" />
  <path
     style="fill:none;stroke:#000000;stroke-width:0.9993943px;stroke-linecap:butt;stroke-linejoin:round;stroke-miterlimit:4;stroke-dasharray:none;stroke-opacity:1;"
     clip-path="url(#clipEmfPath3)"
     d="  M 118.56814,74.434888   L 145.27196,74.434888  "
     id="path61" />
  <path
     style="fill:none;stroke:#000000;stroke-width:0.9993943px;stroke-linecap:butt;stroke-linejoin:round;stroke-miterlimit:4;stroke-dasharray:none;stroke-opacity:1;"
     clip-path="url(#clipEmfPath3)"
     d="  M 145.27196,74.434888   L 171.81587,74.434888  "
     id="path63" />
  <path
     style="fill:none;stroke:#000000;stroke-width:0.9993943px;stroke-linecap:butt;stroke-linejoin:round;stroke-miterlimit:4;stroke-dasharray:none;stroke-opacity:1;"
     clip-path="url(#clipEmfPath3)"
     d="  M 171.81587,105.13628   L 198.51969,105.13628  "
     id="path65" />
  <path
     style="fill:none;stroke:#000000;stroke-width:0.9993943px;stroke-linecap:butt;stroke-linejoin:round;stroke-miterlimit:4;stroke-dasharray:none;stroke-opacity:1;"
     clip-path="url(#clipEmfPath3)"
     d="  M 198.51969,105.13628   L 225.2235,105.13628  "
     id="path67" />
  <path
     style="fill:none;stroke:#000000;stroke-width:0.9993943px;stroke-linecap:butt;stroke-linejoin:round;stroke-miterlimit:4;stroke-dasharray:none;stroke-opacity:1;"
     clip-path="url(#clipEmfPath3)"
     d="  M 225.2235,105.13628   L 251.76741,105.13628  "
     id="path69" />
  <path
     style="fill:none;stroke:#000000;stroke-width:0.9993943px;stroke-linecap:butt;stroke-linejoin:round;stroke-miterlimit:4;stroke-dasharray:none;stroke-opacity:1;"
     clip-path="url(#clipEmfPath3)"
     d="  M 251.76741,105.13628   L 278.47123,105.13628  "
     id="path71" />
  <path
     style="fill:none;stroke:#000000;stroke-width:0.9993943px;stroke-linecap:butt;stroke-linejoin:round;stroke-miterlimit:4;stroke-dasharray:none;stroke-opacity:1;"
     clip-path="url(#clipEmfPath3)"
     d="  M 278.47123,105.13628   L 305.01514,105.13628  "
     id="path73" />
  <path
     style="fill:none;stroke:#000000;stroke-width:0.9993943px;stroke-linecap:butt;stroke-linejoin:round;stroke-miterlimit:4;stroke-dasharray:none;stroke-opacity:1;"
     clip-path="url(#clipEmfPath4)"
     d="  M 171.81587,105.13628   L 171.81587,74.434888  "
     id="path75" />
  <text
     xml:space="preserve"
     style="font-size:18.687500px;font-style:normal;font-variant:normal;font-weight:400;font-stretch:Normal;line-height:125.000000%;letter-spacing:0px;word-spacing:0px;fill:#000000;fill-opacity:1;stroke:none;font-family:Calibri;text-align:start;text-anchor:start;"
     transform="matrix(1.000000,-0.000000,0.000000,1.000000,16.846693,96.910719)"
     x="0.000000"
     y="0.000000"
     id="text81"><tspan
       sodipodi:role="line"
       x="0.000000"
       y="0.000000"
       id="tspan79"><tspan
         dx="0.000000"
         dy="0.000000"
         style="fill:#595959;font-size:18.687500px;font-style:normal;font-variant:normal;font-weight:400;font-stretch:Normal;font-family:Calibri;"
         id="tspan77">prop</tspan></tspan></text>
</svg>
