<svg width="181" height="18" viewBox="0 0 181 18" fill="none" xmlns="http://www.w3.org/2000/svg">
  <path d="M76.8455 18H74.0662L76.0248 13.5793L72.1077 4.77515H74.9056L77.1764 10.2659C77.2605 10.4692 77.5487 10.4688 77.6322 10.2653L79.8859 4.77515H82.7025L76.8455 18Z" fill="white"/>
  <path d="M68.4037 14.1015V7.01346H66.5198V4.77512H68.4037V3.56269C68.4037 2.45596 68.7395 1.58549 69.411 0.951294C70.0825 0.317098 70.9343 0 71.9664 0C72.6006 0 73.1415 0.0683936 73.5892 0.205181V2.46217C73.2908 2.35026 72.9426 2.2943 72.5446 2.2943C71.9851 2.2943 71.5809 2.41865 71.3322 2.66735C71.0835 2.90362 70.9591 3.30777 70.9591 3.87979V4.77512H73.5892V7.01346H70.9591V14.1015H68.4037Z" fill="white"/>
  <path d="M64.2336 3.24559C63.7984 3.24559 63.4191 3.09015 63.0958 2.77927C62.7725 2.45596 62.6108 2.07046 62.6108 1.6228C62.6108 1.17513 62.7725 0.795854 63.0958 0.484974C63.4191 0.161658 63.7984 0 64.2336 0C64.6937 0 65.0792 0.161658 65.3901 0.484974C65.7134 0.795854 65.8751 1.17513 65.8751 1.6228C65.8751 2.07046 65.7134 2.45596 65.3901 2.77927C65.0792 3.09015 64.6937 3.24559 64.2336 3.24559ZM62.9652 14.1015V4.77512H65.5207V14.1015H62.9652Z" fill="white"/>
  <path d="M58.5156 14.1014V0.111816H61.0711V14.1014H58.5156Z" fill="white"/>
  <path d="M55.6288 14.2134C54.5842 14.2134 53.7262 13.9274 53.0547 13.3554C52.3956 12.771 52.0661 11.9316 52.0661 10.8373V7.01346H50.1821V4.77512H52.0661V2.18237H54.6215V4.77512H57.2515V7.01346H54.6215V10.3337C54.6215 10.9057 54.7459 11.316 54.9946 11.5647C55.2433 11.801 55.6474 11.9191 56.207 11.9191C56.6049 11.9191 56.9531 11.8632 57.2515 11.7513V14.0083C56.8039 14.1451 56.2629 14.2134 55.6288 14.2134Z" fill="white"/>
  <path d="M40.6177 14.1017V4.77525H43.1731V5.43633C43.1731 5.55783 43.3389 5.61183 43.4201 5.52139C43.989 4.88718 44.7958 4.57007 45.8405 4.57007C46.9596 4.57007 47.8363 4.94313 48.4705 5.68924C49.1171 6.42292 49.4405 7.4053 49.4405 8.63638V14.1017H46.885V9.0654C46.885 8.38146 46.742 7.85297 46.456 7.47991C46.17 7.09442 45.7659 6.90167 45.2436 6.90167C44.6218 6.90167 44.1182 7.12551 43.7327 7.57317C43.3596 8.02084 43.1731 8.67991 43.1731 9.55037V14.1017H40.6177Z" fill="white"/>
  <path d="M37.4363 3.24559C37.001 3.24559 36.6218 3.09015 36.2985 2.77927C35.9751 2.45596 35.8135 2.07046 35.8135 1.6228C35.8135 1.17513 35.9751 0.795854 36.2985 0.484974C36.6218 0.161658 37.001 0 37.4363 0C37.8964 0 38.2819 0.161658 38.5927 0.484974C38.9161 0.795854 39.0777 1.17513 39.0777 1.6228C39.0777 2.07046 38.9161 2.45596 38.5927 2.77927C38.2819 3.09015 37.8964 3.24559 37.4363 3.24559ZM36.1679 14.1015V4.77512H38.7233V14.1015H36.1679Z" fill="white"/>
  <path d="M31.8297 14.1017V9.12136C31.8297 7.64157 31.3447 6.90167 30.3747 6.90167C29.8151 6.90167 29.3675 7.11307 29.0317 7.53587C28.7084 7.95867 28.5343 8.58664 28.5094 9.4198V14.1017H25.954V9.12136C25.954 7.64157 25.469 6.90167 24.4991 6.90167C23.9271 6.90167 23.4732 7.12551 23.1374 7.57317C22.8017 8.02084 22.6338 8.67991 22.6338 9.55037V14.1017H20.0784V4.77525H22.6338V5.4434C22.6338 5.56427 22.7967 5.61771 22.8767 5.52708C23.4397 4.88907 24.1857 4.57007 25.1146 4.57007C26.341 4.57007 27.2657 5.07469 27.8887 6.08392C27.9408 6.16825 28.0683 6.16687 28.1202 6.08241C28.3891 5.64448 28.7613 5.29581 29.2369 5.03639C29.7841 4.72551 30.3374 4.57007 30.897 4.57007C32.0037 4.57007 32.8618 4.93691 33.4711 5.67059C34.0804 6.40426 34.3851 7.41152 34.3851 8.69234V14.1017H31.8297Z" fill="white"/>
  <path d="M16.305 6.13856V1.08616C16.305 0.543984 15.8652 0.111816 15.3311 0.111816H10.281C9.48777 0.111816 8.70238 0.268962 7.97197 0.567549C7.24155 0.873994 6.57397 1.31402 6.01634 1.87977L5.97707 1.91906C5.2388 2.66552 4.71259 3.59271 4.44556 4.61419C4.92465 4.48847 5.41942 4.42561 5.91422 4.41775C7.23368 4.40204 8.5296 4.82635 9.58203 5.61996C10.5324 6.32715 11.2549 7.30148 11.6476 8.42511C12.056 9.56446 12.1031 10.806 11.7968 11.9767C12.81 11.7096 13.7446 11.1831 14.4907 10.4445L14.53 10.4052C15.0876 9.84733 15.5353 9.17944 15.8416 8.44869C16.1479 7.71793 16.2971 6.93218 16.2971 6.13856H16.305Z" fill="#18E299"/>
  <path d="M4.29481 6.05311C4.30264 4.50318 4.92076 3.01587 6.00834 1.9043L1.80665 6.1079C1.791 6.12356 1.77534 6.13139 1.7597 6.14704C0.734705 7.16468 0.116597 8.52675 0.0148805 9.96709C-0.0790116 11.3135 0.273076 12.6442 1.02421 13.7558C1.09586 13.8618 1.29026 13.8967 1.39981 13.795L3.97401 11.2274C4.77992 10.4211 5.0303 9.22343 4.64691 8.151C4.40436 7.48562 4.28699 6.77328 4.29481 6.05311Z" fill="#0C8C5E"/>
  <path d="M14.5056 10.4058C13.6997 11.1964 12.6904 11.7443 11.5949 11.987C10.4917 12.2297 9.34938 12.1592 8.28526 11.7835C8.28526 11.7835 8.27742 11.7835 8.2696 11.7835C7.19766 11.3999 6.00056 11.6504 5.19465 12.4489L2.62041 15.0164C2.51087 15.126 2.52651 15.3061 2.65953 15.3922C3.77059 16.1358 5.10076 16.4959 6.44654 16.402C7.88622 16.3002 9.23982 15.6818 10.2648 14.6563L10.3039 14.6172L14.5056 10.4136V10.4058Z" fill="#0C8C5E"/>
  <path d="M89.8987 8.40288V14.2324H87.9874V1.14151H89.8731V6.01225H89.9945C90.2247 5.48384 90.5762 5.0641 91.0492 4.75302C91.5222 4.44194 92.1401 4.2864 92.9029 4.2864C93.5762 4.2864 94.1643 4.42489 94.6671 4.70188C95.1742 4.97887 95.5663 5.39222 95.8433 5.94194C96.1245 6.48739 96.2651 7.16921 96.2651 7.98739V14.2324H94.3539V8.21751C94.3539 7.49734 94.1685 6.9391 93.7978 6.54279C93.4271 6.14222 92.9114 5.94194 92.2509 5.94194C91.7992 5.94194 91.3944 6.03782 91.0364 6.22958C90.6828 6.42134 90.4036 6.70259 90.1991 7.07333C89.9988 7.43981 89.8987 7.88299 89.8987 8.40288ZM102.687 14.4306C101.72 14.4306 100.887 14.2239 100.188 13.8105C99.4932 13.3929 98.9563 12.807 98.577 12.0527C98.202 11.2942 98.0145 10.4057 98.0145 9.38725C98.0145 8.38157 98.202 7.49521 98.577 6.72816C98.9563 5.96111 99.4847 5.36239 100.162 4.932C100.844 4.5016 101.641 4.2864 102.553 4.2864C103.107 4.2864 103.644 4.37802 104.164 4.56126C104.684 4.7445 105.15 5.03214 105.564 5.42418C105.977 5.81623 106.303 6.32546 106.542 6.95188C106.78 7.57404 106.899 8.33043 106.899 9.22106V9.89862H99.0948V8.4668H105.027C105.027 7.96396 104.924 7.51864 104.72 7.13086C104.515 6.73881 104.228 6.42986 103.857 6.20401C103.49 5.97816 103.06 5.86523 102.566 5.86523C102.029 5.86523 101.56 5.99734 101.159 6.26154C100.763 6.52148 100.456 6.86239 100.239 7.28427C100.026 7.70188 99.9193 8.15572 99.9193 8.64577V9.76438C99.9193 10.4206 100.034 10.9789 100.265 11.4391C100.499 11.8993 100.825 12.2509 101.242 12.4938C101.66 12.7324 102.148 12.8517 102.706 12.8517C103.068 12.8517 103.399 12.8006 103.697 12.6983C103.995 12.5918 104.253 12.4341 104.47 12.2253C104.688 12.0165 104.854 11.7587 104.969 11.4519L106.778 11.7779C106.633 12.3105 106.373 12.7772 105.998 13.1777C105.627 13.574 105.161 13.883 104.598 14.1046C104.04 14.3219 103.403 14.4306 102.687 14.4306ZM110.571 1.14151V14.2324H108.66V1.14151H110.571ZM112.782 17.9142V4.41424H114.649V6.00586H114.809C114.92 5.80131 115.079 5.56481 115.288 5.29634C115.497 5.02788 115.787 4.7935 116.157 4.59322C116.528 4.38867 117.018 4.2864 117.628 4.2864C118.42 4.2864 119.128 4.48668 119.75 4.88725C120.372 5.28782 120.86 5.86523 121.214 6.6195C121.572 7.37376 121.75 8.28143 121.75 9.34251C121.75 10.4036 121.574 11.3134 121.22 12.0719C120.866 12.8262 120.38 13.4078 119.763 13.8169C119.145 14.2218 118.439 14.4242 117.647 14.4242C117.05 14.4242 116.562 14.324 116.183 14.1238C115.808 13.9235 115.514 13.6891 115.301 13.4206C115.088 13.1522 114.924 12.9135 114.809 12.7047H114.694V17.9142H112.782ZM114.655 9.32333C114.655 10.0137 114.755 10.6188 114.956 11.1387C115.156 11.6586 115.446 12.0655 115.825 12.3596C116.204 12.6493 116.669 12.7942 117.219 12.7942C117.79 12.7942 118.267 12.6429 118.65 12.3404C119.034 12.0336 119.324 11.6181 119.52 11.0939C119.72 10.5698 119.82 9.97958 119.82 9.32333C119.82 8.6756 119.722 8.09393 119.526 7.5783C119.334 7.06268 119.045 6.65572 118.657 6.35742C118.273 6.05913 117.794 5.90998 117.219 5.90998C116.665 5.90998 116.196 6.05273 115.812 6.33825C115.433 6.62376 115.145 7.02219 114.949 7.53356C114.753 8.04492 114.655 8.64151 114.655 9.32333ZM132.071 14.4306C131.121 14.4306 130.303 14.2154 129.617 13.785C128.935 13.3503 128.411 12.7516 128.044 11.9888C127.678 11.226 127.494 10.3525 127.494 9.36807C127.494 8.37092 127.682 7.49094 128.057 6.72816C128.432 5.96111 128.96 5.36239 129.642 4.932C130.324 4.5016 131.127 4.2864 132.052 4.2864C132.798 4.2864 133.462 4.42489 134.046 4.70188C134.63 4.97461 135.101 5.35813 135.459 5.85245C135.821 6.34677 136.036 6.92418 136.105 7.58469H134.244C134.142 7.12447 133.908 6.72816 133.541 6.39577C133.179 6.06339 132.693 5.89719 132.084 5.89719C131.551 5.89719 131.085 6.03782 130.684 6.31907C130.288 6.59606 129.979 6.99236 129.757 7.50799C129.536 8.01935 129.425 8.62447 129.425 9.32333C129.425 10.0392 129.533 10.6571 129.751 11.177C129.968 11.6969 130.275 12.0996 130.671 12.3851C131.072 12.6706 131.543 12.8134 132.084 12.8134C132.446 12.8134 132.774 12.7473 133.068 12.6152C133.367 12.4789 133.616 12.285 133.816 12.0336C134.021 11.7821 134.163 11.4796 134.244 11.1259H136.105C136.036 11.7608 135.83 12.3276 135.484 12.8262C135.139 13.3248 134.677 13.7168 134.097 14.0023C133.522 14.2878 132.847 14.4306 132.071 14.4306ZM142.02 14.4306C141.053 14.4306 140.219 14.2239 139.521 13.8105C138.826 13.3929 138.289 12.807 137.91 12.0527C137.535 11.2942 137.347 10.4057 137.347 9.38725C137.347 8.38157 137.535 7.49521 137.91 6.72816C138.289 5.96111 138.817 5.36239 139.495 4.932C140.177 4.5016 140.974 4.2864 141.886 4.2864C142.44 4.2864 142.977 4.37802 143.496 4.56126C144.016 4.7445 144.483 5.03214 144.896 5.42418C145.31 5.81623 145.636 6.32546 145.874 6.95188C146.113 7.57404 146.232 8.33043 146.232 9.22106V9.89862H138.428V8.4668H144.359C144.359 7.96396 144.257 7.51864 144.053 7.13086C143.848 6.73881 143.56 6.42986 143.19 6.20401C142.823 5.97816 142.393 5.86523 141.898 5.86523C141.362 5.86523 140.893 5.99734 140.492 6.26154C140.096 6.52148 139.789 6.86239 139.572 7.28427C139.359 7.70188 139.252 8.15572 139.252 8.64577V9.76438C139.252 10.4206 139.367 10.9789 139.597 11.4391C139.832 11.8993 140.158 12.2509 140.575 12.4938C140.993 12.7324 141.481 12.8517 142.039 12.8517C142.401 12.8517 142.732 12.8006 143.03 12.6983C143.328 12.5918 143.586 12.4341 143.803 12.2253C144.021 12.0165 144.187 11.7587 144.302 11.4519L146.111 11.7779C145.966 12.3105 145.706 12.7772 145.331 13.1777C144.96 13.574 144.494 13.883 143.931 14.1046C143.373 14.3219 142.736 14.4306 142.02 14.4306ZM149.904 8.40288V14.2324H147.993V4.41424H149.827V6.01225H149.949C150.175 5.49236 150.528 5.07475 151.01 4.75941C151.496 4.44407 152.107 4.2864 152.844 4.2864C153.513 4.2864 154.099 4.42702 154.602 4.70827C155.105 4.98526 155.495 5.39861 155.772 5.94833C156.049 6.49805 156.187 7.17773 156.187 7.98739V14.2324H154.276V8.21751C154.276 7.50586 154.091 6.94975 153.72 6.54918C153.349 6.14435 152.84 5.94194 152.192 5.94194C151.749 5.94194 151.355 6.03782 151.01 6.22958C150.669 6.42134 150.398 6.70259 150.198 7.07333C150.002 7.43981 149.904 7.88299 149.904 8.40288ZM162.974 4.41424V5.94833H157.611V4.41424H162.974ZM159.049 2.06197H160.96V11.3496C160.96 11.7203 161.016 11.9995 161.126 12.187C161.237 12.3702 161.38 12.4959 161.555 12.5641C161.734 12.628 161.928 12.66 162.136 12.66C162.29 12.66 162.424 12.6493 162.539 12.628C162.654 12.6067 162.744 12.5897 162.808 12.5769L163.153 14.1557C163.042 14.1983 162.884 14.2409 162.68 14.2836C162.475 14.3304 162.219 14.356 161.913 14.3603C161.41 14.3688 160.941 14.2793 160.506 14.0918C160.072 13.9043 159.72 13.6145 159.452 13.2225C159.183 12.8304 159.049 12.3382 159.049 11.7459V2.06197ZM168.854 14.4306C167.887 14.4306 167.054 14.2239 166.355 13.8105C165.66 13.3929 165.123 12.807 164.744 12.0527C164.369 11.2942 164.181 10.4057 164.181 9.38725C164.181 8.38157 164.369 7.49521 164.744 6.72816C165.123 5.96111 165.652 5.36239 166.329 4.932C167.011 4.5016 167.808 4.2864 168.72 4.2864C169.274 4.2864 169.811 4.37802 170.331 4.56126C170.85 4.7445 171.317 5.03214 171.73 5.42418C172.144 5.81623 172.47 6.32546 172.708 6.95188C172.947 7.57404 173.066 8.33043 173.066 9.22106V9.89862H165.262V8.4668H171.193C171.193 7.96396 171.091 7.51864 170.887 7.13086C170.682 6.73881 170.394 6.42986 170.024 6.20401C169.657 5.97816 169.227 5.86523 168.733 5.86523C168.196 5.86523 167.727 5.99734 167.326 6.26154C166.93 6.52148 166.623 6.86239 166.406 7.28427C166.193 7.70188 166.086 8.15572 166.086 8.64577V9.76438C166.086 10.4206 166.201 10.9789 166.431 11.4391C166.666 11.8993 166.992 12.2509 167.409 12.4938C167.827 12.7324 168.315 12.8517 168.873 12.8517C169.235 12.8517 169.566 12.8006 169.864 12.6983C170.162 12.5918 170.42 12.4341 170.637 12.2253C170.855 12.0165 171.021 11.7587 171.136 11.4519L172.945 11.7779C172.8 12.3105 172.54 12.7772 172.165 13.1777C171.794 13.574 171.328 13.883 170.765 14.1046C170.207 14.3219 169.57 14.4306 168.854 14.4306ZM174.827 14.2324V4.41424H176.674V5.9739H176.776C176.955 5.44549 177.271 5.03001 177.722 4.72745C178.178 4.42063 178.694 4.26722 179.269 4.26722C179.389 4.26722 179.529 4.27148 179.691 4.28001C179.857 4.28853 179.987 4.29918 180.081 4.31197V6.14009C180.004 6.11879 179.868 6.09535 179.672 6.06978C179.476 6.03995 179.28 6.02504 179.084 6.02504C178.632 6.02504 178.23 6.12092 177.876 6.31268C177.526 6.50018 177.249 6.76225 177.045 7.0989C176.84 7.43129 176.738 7.81055 176.738 8.23668V14.2324H174.827Z" fill="#78716C"/>
</svg>
