<?xml version="1.0" encoding="utf-8"?>
<!-- Generator: Adobe Illustrator 27.8.1, SVG Export Plug-In . SVG Version: 6.00 Build 0)  -->
<svg version="1.1" id="Layer_1" xmlns="http://www.w3.org/2000/svg" xmlns:xlink="http://www.w3.org/1999/xlink" x="0px" y="0px"
	 viewBox="0 0 40 20" style="enable-background:new 0 0 40 20;" xml:space="preserve">
<style type="text/css">
	.st0{fill:#FDB61B;}
</style>
<g id="Ansys_Logo_Blk_Screen_00000055667838048801124960000008909429316679592099_">
	<g>
		<g>
			<path d="M18.572,7.865c0.33,0.39,0.49,0.98,0.49,1.76v3.36h-1.71v-3.28c0-0.38-0.07-0.65-0.21-0.83c-0.14-0.17-0.36-0.26-0.65-0.26
				c-0.36,0-0.64,0.11-0.86,0.34c-0.22,0.23-0.32,0.53-0.32,0.91v3.12h-1.71v-5.56h1.66v0.79c0.2-0.3,0.45-0.53,0.77-0.69c0.31-0.16,0.67-0.24,1.06-0.24
				C17.752,7.285,18.252,7.485,18.572,7.865"/>
			<path d="M20.942,12.905c-0.43-0.12-0.8-0.29-1.11-0.5l0.45-1.18c0.3,0.2,0.64,0.36,1,0.48c0.36,0.11,0.73,0.17,1.1,0.17c0.26,0,0.47-0.04,0.62-0.13
				c0.15-0.09,0.22-0.21,0.22-0.36c0-0.14-0.05-0.24-0.15-0.32s-0.29-0.14-0.57-0.2l-0.91-0.2c-0.54-0.12-0.93-0.31-1.19-0.56c-0.25-0.25-0.38-0.6-0.38-1.04
				c0-0.35,0.1-0.65,0.3-0.92c0.2-0.26,0.48-0.47,0.85-0.62c0.37-0.15,0.78-0.23,1.25-0.23c0.4,0,0.79,0.06,1.17,0.18c0.38,0.12,0.72,0.29,1.02,0.51l-0.45,1.13
				c-0.59-0.41-1.17-0.61-1.75-0.61c-0.26,0-0.47,0.05-0.62,0.14s-0.23,0.22-0.23,0.39c0,0.12,0.05,0.22,0.14,0.28c0.09,0.07,0.25,0.13,0.48,0.19l0.94,0.22
				c0.57,0.13,0.98,0.32,1.24,0.58s0.39,0.61,0.39,1.06c0,0.54-0.21,0.96-0.64,1.26c-0.43,0.31-1.02,0.46-1.76,0.46
				C21.842,13.085,21.372,13.025,20.942,12.905"/>
			<path d="M32.352,12.905c-0.43-0.12-0.8-0.29-1.11-0.5l0.45-1.18c0.3,0.2,0.64,0.36,1,0.48c0.36,0.11,0.73,0.17,1.1,0.17c0.26,0,0.47-0.04,0.62-0.13
				c0.15-0.09,0.22-0.21,0.22-0.36c0-0.14-0.05-0.24-0.15-0.32s-0.29-0.14-0.57-0.2l-0.91-0.2c-0.54-0.12-0.93-0.31-1.19-0.56c-0.25-0.25-0.38-0.6-0.38-1.04
				c0-0.35,0.1-0.65,0.3-0.92c0.2-0.26,0.48-0.47,0.85-0.62s0.78-0.23,1.25-0.23c0.4,0,0.79,0.06,1.17,0.18c0.38,0.12,0.72,0.29,1.02,0.51l-0.45,1.13
				c-0.59-0.41-1.17-0.61-1.75-0.61c-0.26,0-0.47,0.05-0.62,0.14s-0.23,0.22-0.23,0.39c0,0.12,0.05,0.22,0.14,0.28c0.09,0.07,0.25,0.13,0.48,0.19l0.94,0.22
				c0.57,0.13,0.98,0.32,1.24,0.58s0.39,0.61,0.39,1.06c0,0.54-0.21,0.96-0.64,1.26c-0.43,0.31-1.02,0.46-1.76,0.46
				C33.252,13.085,32.782,13.025,32.352,12.905"/>
		</g>
		<g>
			<polygon class="st0" points="7.172,4.975 3.772,12.985 6.092,12.985 9.372,4.975 			"/>
			<polygon points="9.772,5.235 8.672,7.925 10.742,12.985 13.072,12.985 			"/>
		</g>
		<polygon points="29.522,7.425 28.122,10.715 26.722,7.425 25.032,7.425 27.282,12.695 26.282,15.035 27.972,15.035 31.212,7.425 
					"/>
	</g>
</g>
</svg>