<svg height="294.93262" viewBox="0 0 1194.223 294.93259" width="1194.223" xmlns="http://www.w3.org/2000/svg"><g transform="translate(-196.92928 -419.59993)"><path d="m480.6987 429.63202h584.10577v236.51965h-584.10577z" fill="none" stroke="#000" stroke-linecap="round" stroke-linejoin="round" stroke-width="3.907569"/><text font-family="sans-serif" font-size="43.032696" letter-spacing="0" word-spacing="0" x="705.0752" y="556.87451"><tspan font-family="Helvetica" font-size="35.86058" font-weight="bold" x="705.0752" y="556.87451">operator</tspan></text><text x="85.714287" y="1178.0765"><tspan x="85.714287" y="1178.0765"/></text><text x="84.852814" y="1176.6111"><tspan x="84.852814" y="1176.6111"/></text><g transform="matrix(.71721161 0 0 .71721161 743.19892 83.129561)"><rect fill="#f6cf07" height="79.285713" ry="14.805184" width="173.28427" x="257.85684" y="518.09174"/><text font-family="sans-serif" font-size="60" letter-spacing="0" word-spacing="0" x="343.6933" y="572.18774"><tspan fill="#fff" font-family="Lucida Console" font-size="50" font-stretch="semi-condensed" text-anchor="middle" x="343.6933" y="572.18774">pin 0</tspan></text></g><g transform="matrix(.71721161 0 0 .71721161 307.77855 83.129561)"><rect fill="#f6cf07" height="79.285713" ry="14.805184" width="173.28427" x="257.85684" y="518.09174"/><text font-family="sans-serif" font-size="60" letter-spacing="0" word-spacing="0" x="343.6933" y="572.18774"><tspan fill="#fff" font-family="Lucida Console" font-size="50" font-stretch="semi-condensed" text-anchor="middle" x="343.6933" y="572.18774">pin 0</tspan></text></g><text fill="#555" font-family="sans-serif" font-size="43.032696" letter-spacing="0" word-spacing="0" x="363.50027" y="496.58221"><tspan font-size="35.86058" x="363.50027" y="496.58221">fieldA</tspan></text><g transform="matrix(.71721161 0 0 .71721161 307.77855 199.35832)"><rect fill="none" height="79.285713" ry="14.805184" stroke="#f6cf07" stroke-linecap="round" stroke-linejoin="round" stroke-width="5" width="173.28427" x="257.85684" y="534.09174"/><text font-family="sans-serif" font-size="60" letter-spacing="0" word-spacing="0" x="343.6933" y="588.18774"><tspan font-family="Lucida Console" font-size="50" font-stretch="semi-condensed" text-anchor="middle" x="343.6933" y="588.18774">pin 1</tspan></text></g><g fill="#555" font-family="sans-serif" font-size="43.032696" letter-spacing="0" word-spacing="0"><text x="363.94681" y="624.28644"><tspan font-size="35.86058" x="363.94681" y="624.28644">fieldB</tspan></text><text x="1081.1036" y="496.58221"><tspan font-size="35.86058" x="1081.1036" y="496.58221">fieldOut</tspan></text><text x="480.55185" y="702.27997"><tspan fill="#555" font-size="35.86058" text-anchor="middle" x="480.55185" y="702.27997">inputs</tspan></text><text x="1063.7727" y="701.74591"><tspan fill="#555" font-size="35.86058" text-anchor="middle" x="1063.7727" y="701.74591">outputs</tspan></text></g></g></svg>