<?xml version="1.0" encoding="UTF-8" standalone="no"?><svg xmlns="http://www.w3.org/2000/svg" xmlns:xlink="http://www.w3.org/1999/xlink" stroke-dasharray="none" shape-rendering="auto" font-family="'Dialog'" width="20.812600" text-rendering="auto" fill-opacity="1" contentScriptType="text/ecmascript" color-interpolation="auto" color-rendering="auto" preserveAspectRatio="xMidYMid meet" font-size="12" fill="black" stroke="black" image-rendering="auto" stroke-miterlimit="10" zoomAndPan="magnify" version="1.0" stroke-linecap="square" stroke-linejoin="miter" contentStyleType="text/css" font-style="normal" height="19" stroke-width="1" stroke-dashoffset="0" font-weight="normal" stroke-opacity="1" y="-5.000000"><!--Converted from MathML using JEuclid--><defs id="genericDefs"/><g><g text-rendering="optimizeLegibility" transform="translate(0,14)" color-rendering="optimizeQuality" color-interpolation="linearRGB" image-rendering="optimizeQuality"><path d="M5.7344 -13.3281 L5.625 -12.8594 Q5.2188 -12.8125 5 -12.6094 Q4.7812 -12.4062 4.7812 -12 Q4.7812 -11.3906 5.0625 -10.4375 L6.0938 -6.75 L8.5 -9.9688 Q9.0312 -10.6719 9.2734 -11.0781 Q9.5156 -11.4844 9.6094 -11.7969 Q9.6875 -12.0312 9.6875 -12.25 Q9.6875 -12.5156 9.5 -12.6641 Q9.3125 -12.8125 8.9688 -12.8594 L9.0781 -13.3281 L12.7344 -13.3281 L12.625 -12.8594 Q12.3906 -12.7969 12.2188 -12.7109 Q12.0469 -12.625 11.8281 -12.4141 Q11.6094 -12.2031 11.2344 -11.75 Q10.8594 -11.2969 10.2812 -10.5312 L6.4688 -5.6094 L5.875 -2.8438 Q5.7812 -2.4531 5.75 -2.2344 Q5.7188 -2.0156 5.6953 -1.7656 Q5.6719 -1.5156 5.6719 -1.3125 Q5.6719 -1.0156 5.7656 -0.8438 Q5.8594 -0.6719 6.0547 -0.5938 Q6.25 -0.5156 6.7344 -0.4844 L6.625 0 L2.5156 0 L2.625 -0.4844 Q3.0156 -0.5312 3.1953 -0.6328 Q3.375 -0.7344 3.5156 -0.9375 Q3.6562 -1.1406 3.8047 -1.5781 Q3.9531 -2.0156 4.1406 -2.9062 L4.7188 -5.6094 L3.2969 -10.5312 Q2.9844 -11.6719 2.7969 -12.0703 Q2.6094 -12.4688 2.3984 -12.6328 Q2.1875 -12.7969 1.8438 -12.8594 L1.9531 -13.3281 L5.7344 -13.3281 Z" stroke="none"/></g><g text-rendering="optimizeLegibility" transform="translate(12.7344,18.8906)" color-rendering="optimizeQuality" color-interpolation="linearRGB" image-rendering="optimizeQuality"><path d="M2.5156 -3.8125 L2.7344 -3.8125 Q2.9531 -3.8125 3.1953 -3.8906 Q3.4375 -3.9688 3.7188 -4.1484 Q4 -4.3281 4.4688 -4.7031 Q4.8281 -4.9844 5 -5.1875 Q5.1719 -5.3906 5.2344 -5.5391 Q5.2969 -5.6875 5.2969 -5.8281 Q5.2969 -6.1562 4.8281 -6.2031 L4.9062 -6.5312 L7.1094 -6.5312 L7.25 -6.2031 Q6.6719 -5.6875 6.0469 -5.2031 L4.3125 -3.8438 L5.3438 -1.2656 Q5.4688 -0.9062 5.6172 -0.7188 Q5.7656 -0.5312 5.9531 -0.4453 Q6.1406 -0.3594 6.4375 -0.3281 L6.3594 0 L4.5312 0 L3.5312 -2.8125 Q3.4375 -3.0781 3.3672 -3.1719 Q3.2969 -3.2656 3.2109 -3.3047 Q3.125 -3.3438 2.9219 -3.3438 L2.4219 -3.3438 L1.7031 0 L0.5312 0 L2.2812 -7.8125 Q2.3594 -8.1562 2.3906 -8.3125 Q2.4219 -8.4688 2.4375 -8.5938 Q2.4531 -8.7188 2.4531 -8.8281 Q2.4531 -9.1094 2.2734 -9.2266 Q2.0938 -9.3438 1.6406 -9.3594 L1.7344 -9.7188 L3.4531 -9.7812 L3.8594 -9.7812 L2.5156 -3.8125 Z" stroke="none"/></g></g></svg>