<?xml version="1.0" encoding="UTF-8" standalone="no"?><svg xmlns="http://www.w3.org/2000/svg" xmlns:xlink="http://www.w3.org/1999/xlink" stroke-dasharray="none" shape-rendering="auto" font-family="'Dialog'" width="10.812600" text-rendering="auto" fill-opacity="1" contentScriptType="text/ecmascript" color-interpolation="auto" color-rendering="auto" preserveAspectRatio="xMidYMid meet" font-size="12" fill="black" stroke="black" image-rendering="auto" stroke-miterlimit="10" zoomAndPan="magnify" version="1.0" stroke-linecap="square" stroke-linejoin="miter" contentStyleType="text/css" font-style="normal" height="16" stroke-width="1" stroke-dashoffset="0" font-weight="normal" stroke-opacity="1" y="-1.000000"><!--Converted from MathML using JEuclid--><defs id="genericDefs"/><g><g text-rendering="optimizeLegibility" transform="translate(0.5,15)" color-rendering="optimizeQuality" color-interpolation="linearRGB" image-rendering="optimizeQuality"><path d="M9.1562 -1.0156 Q8.2969 0.1562 7.3594 0.1562 Q6.8438 0.1562 6.5 -0.2031 Q6.1562 -0.5625 5.9766 -1.2656 Q5.7969 -1.9688 5.7344 -2.9531 L5.4375 -7.2031 L5.375 -7.2031 Q4.7969 -6.0781 3.3281 -3.4219 Q1.9688 -0.9688 1.5 0 L-0.5 0 L-0.4062 -0.4844 L-0.0156 -0.875 Q0.4844 -1.375 1.1094 -2.4062 L5.2656 -9.2344 Q5.0781 -11.2812 4.6797 -12.0234 Q4.2812 -12.7656 3.4375 -12.7656 Q2.6406 -12.7656 1.9688 -12.0781 L1.6094 -12.5625 Q2.8594 -14.0312 4.0312 -14.0312 Q5.0469 -14.0312 5.5781 -13.2344 Q6.1094 -12.4375 6.2344 -10.5781 Q6.5156 -6.7969 6.7812 -4.6094 Q7.0469 -2.4219 7.3359 -1.7422 Q7.625 -1.0625 8.0625 -1.0625 Q8.4688 -1.0625 8.7812 -1.5 L9.1562 -1.0156 Z" stroke="none"/></g></g></svg>