<?xml version="1.0" encoding="UTF-8" standalone="no"?><svg xmlns="http://www.w3.org/2000/svg" xmlns:xlink="http://www.w3.org/1999/xlink" stroke-dasharray="none" shape-rendering="auto" font-family="'Dialog'" width="47.812600" text-rendering="auto" fill-opacity="1" contentScriptType="text/ecmascript" color-interpolation="auto" color-rendering="auto" preserveAspectRatio="xMidYMid meet" font-size="12" fill="black" stroke="black" image-rendering="auto" stroke-miterlimit="10" zoomAndPan="magnify" version="1.0" stroke-linecap="square" stroke-linejoin="miter" contentStyleType="text/css" font-style="normal" height="24" stroke-width="1" stroke-dashoffset="0" font-weight="normal" stroke-opacity="1" y="-5.000000"><!--Converted from MathML using JEuclid--><defs id="genericDefs"/><g><g text-rendering="optimizeLegibility" transform="translate(0.1406,19)" color-rendering="optimizeQuality" color-interpolation="linearRGB" image-rendering="optimizeQuality"><path d="M2.3125 -0.9062 L5.4375 -0.9062 Q5.875 -0.9062 6.1484 -0.9609 Q6.4219 -1.0156 6.6328 -1.1328 Q6.8438 -1.25 7.0312 -1.4297 Q7.2188 -1.6094 7.4062 -1.8516 Q7.5938 -2.0938 7.8281 -2.5 Q8.0625 -2.9062 8.3281 -3.5312 L9.2656 -3.5312 L8.5156 0 L-0.1406 0 L-0.0469 -0.4844 L8.8125 -12.4375 L5.8281 -12.4375 Q5.4062 -12.4375 5.1641 -12.3906 Q4.9219 -12.3438 4.7344 -12.25 Q4.5469 -12.1562 4.4062 -12.0391 Q4.2656 -11.9219 4.0625 -11.6797 Q3.8594 -11.4375 3.6172 -11.0547 Q3.375 -10.6719 3.0625 -10.0312 L2.125 -10.0312 L2.8594 -13.3281 L11.3125 -13.3281 L11.2031 -12.8594 L2.3125 -0.9062 Z" stroke="none"/></g><g text-rendering="optimizeLegibility" transform="translate(11.4531,23.8906)" color-rendering="optimizeQuality" color-interpolation="linearRGB" image-rendering="optimizeQuality"><path d="M2.5156 -3.8125 L2.7344 -3.8125 Q2.9531 -3.8125 3.1953 -3.8906 Q3.4375 -3.9688 3.7188 -4.1484 Q4 -4.3281 4.4688 -4.7031 Q4.8281 -4.9844 5 -5.1875 Q5.1719 -5.3906 5.2344 -5.5391 Q5.2969 -5.6875 5.2969 -5.8281 Q5.2969 -6.1562 4.8281 -6.2031 L4.9062 -6.5312 L7.1094 -6.5312 L7.25 -6.2031 Q6.6719 -5.6875 6.0469 -5.2031 L4.3125 -3.8438 L5.3438 -1.2656 Q5.4688 -0.9062 5.6172 -0.7188 Q5.7656 -0.5312 5.9531 -0.4453 Q6.1406 -0.3594 6.4375 -0.3281 L6.3594 0 L4.5312 0 L3.5312 -2.8125 Q3.4375 -3.0781 3.3672 -3.1719 Q3.2969 -3.2656 3.2109 -3.3047 Q3.125 -3.3438 2.9219 -3.3438 L2.4219 -3.3438 L1.7031 0 L0.5312 0 L2.2812 -7.8125 Q2.3594 -8.1562 2.3906 -8.3125 Q2.4219 -8.4688 2.4375 -8.5938 Q2.4531 -8.7188 2.4531 -8.8281 Q2.4531 -9.1094 2.2734 -9.2266 Q2.0938 -9.3438 1.6406 -9.3594 L1.7344 -9.7188 L3.4531 -9.7812 L3.8594 -9.7812 L2.5156 -3.8125 Z" stroke="none"/></g><g text-rendering="optimizeLegibility" transform="translate(18.9375,17.9124) matrix(1,0,0,1.2559,0,0)" color-rendering="optimizeQuality" color-interpolation="linearRGB" image-rendering="optimizeQuality"><path d="M7.2188 4.25 Q5.5625 4.25 4.5078 3.75 Q3.4531 3.25 2.8672 2.2344 Q2.2812 1.2188 2.0234 -0.4141 Q1.7656 -2.0469 1.7656 -4.8438 Q1.7656 -7.625 2.0234 -9.2656 Q2.2812 -10.9062 2.8672 -11.9453 Q3.4531 -12.9844 4.5078 -13.5 Q5.5625 -14.0156 7.2188 -14.0156 L7.2188 -13.2188 Q6.5312 -13.2188 6 -13.0938 Q5.4062 -12.9531 4.9844 -12.5625 Q4.5156 -12.1406 4.2344 -11.375 Q3.8906 -10.4688 3.7188 -8.9844 Q3.5469 -7.4062 3.5469 -4.9219 Q3.5469 -2.7188 3.6953 -1.1797 Q3.8438 0.3594 4.1875 1.3281 Q4.4531 2.1562 4.8594 2.6094 Q5.2188 3.0156 5.7188 3.2188 Q6.2969 3.4531 7.2188 3.4531 L7.2188 4.25 Z" stroke="none"/></g><g text-rendering="optimizeLegibility" transform="translate(28.1562,19)" color-rendering="optimizeQuality" color-interpolation="linearRGB" image-rendering="optimizeQuality"><path d="M9.2031 0 L6.1406 0 L7.375 -4.9688 Q7.4844 -5.4375 7.6016 -6.0156 Q7.7188 -6.5938 7.7188 -7.0469 Q7.7188 -7.75 7.4766 -8.0469 Q7.2344 -8.3438 6.7344 -8.3438 Q6.3125 -8.3438 5.8438 -8.0312 Q5.375 -7.7188 4.8594 -7.0859 Q4.3438 -6.4531 3.9844 -5.8047 Q3.625 -5.1562 3.4219 -4.2344 L2.5469 0 L0.8438 0 L2.3281 -6.6719 Q2.3906 -6.8906 2.4688 -7.3359 Q2.5469 -7.7812 2.5469 -8.0625 Q2.5469 -8.3438 2.4688 -8.4922 Q2.3906 -8.6406 2.1875 -8.7188 Q1.9844 -8.7969 1.5 -8.8125 L1.625 -9.3438 L3.8438 -9.4219 L4.3906 -9.4219 L3.7344 -6.8906 L3.8594 -6.8438 Q4.8125 -8.1875 5.7031 -8.8438 Q6.5938 -9.5 7.4844 -9.5 Q8.4219 -9.5 8.9141 -8.9766 Q9.4062 -8.4531 9.4062 -7.4219 Q9.4062 -7.0781 9.3438 -6.6562 Q9.2812 -6.2344 9.2031 -5.9219 L8.375 -2.4375 Q8.2188 -1.7344 8.2188 -1.3281 Q8.2188 -1.0312 8.3125 -0.8672 Q8.4062 -0.7031 8.6094 -0.6172 Q8.8125 -0.5312 9.2812 -0.4844 L9.2031 0 Z" stroke="none"/></g><g text-rendering="optimizeLegibility" transform="translate(39.1406,17.9124) matrix(1,0,0,1.2559,0,0)" color-rendering="optimizeQuality" color-interpolation="linearRGB" image-rendering="optimizeQuality"><path d="M0.4219 -14.0156 Q2.0781 -14.0156 3.1328 -13.5156 Q4.1875 -13.0156 4.7734 -12 Q5.3594 -10.9844 5.6172 -9.3516 Q5.875 -7.7188 5.875 -4.9219 Q5.875 -2.1562 5.6172 -0.5078 Q5.3594 1.1406 4.7734 2.1797 Q4.1875 3.2188 3.1328 3.7344 Q2.0781 4.25 0.4219 4.25 L0.4219 3.4531 Q1.1094 3.4531 1.625 3.3281 Q2.2344 3.1875 2.6406 2.7969 Q3.1094 2.375 3.4062 1.6094 Q3.75 0.7031 3.9219 -0.7812 Q4.0938 -2.3594 4.0938 -4.8438 Q4.0938 -7.0469 3.9453 -8.5859 Q3.7969 -10.125 3.4531 -11.0938 Q3.1875 -11.9219 2.7812 -12.375 Q2.4062 -12.7812 1.9219 -12.9844 Q1.3438 -13.2188 0.4219 -13.2188 L0.4219 -14.0156 Z" stroke="none"/></g></g></svg>