<?xml version="1.0" encoding="UTF-8" standalone="no"?><svg xmlns="http://www.w3.org/2000/svg" xmlns:xlink="http://www.w3.org/1999/xlink" stroke-dasharray="none" shape-rendering="auto" font-family="'Dialog'" width="89.812600" text-rendering="auto" fill-opacity="1" contentScriptType="text/ecmascript" color-interpolation="auto" color-rendering="auto" preserveAspectRatio="xMidYMid meet" font-size="12" fill="black" stroke="black" image-rendering="auto" stroke-miterlimit="10" zoomAndPan="magnify" version="1.0" stroke-linecap="square" stroke-linejoin="miter" contentStyleType="text/css" font-style="normal" height="20" stroke-width="1" stroke-dashoffset="0" font-weight="normal" stroke-opacity="1" y="-6.000000"><!--Converted from MathML using JEuclid--><defs id="genericDefs"/><g><g text-rendering="optimizeLegibility" transform="translate(0,14)" color-rendering="optimizeQuality" color-interpolation="linearRGB" image-rendering="optimizeQuality"><path d="M9.1875 -10.8438 L6.0625 0.0625 L4.4844 0.0625 L1.6406 -10.5312 Q1.4688 -11.2031 1.3203 -11.625 Q1.1719 -12.0469 1.0234 -12.2812 Q0.875 -12.5156 0.7031 -12.6406 Q0.5312 -12.7656 0.2188 -12.8594 L0.2188 -13.3281 L4.3906 -13.3281 L4.3906 -12.8594 Q3.7969 -12.7344 3.5547 -12.5 Q3.3125 -12.2656 3.3125 -11.8438 Q3.3125 -11.5 3.3984 -11.0312 Q3.4844 -10.5625 3.6406 -9.9688 L5.6094 -2.25 L8.75 -13.3281 L10.3906 -13.3281 L12.9375 -2.25 L15.25 -9.7031 Q15.6719 -11.0625 15.6719 -11.625 Q15.6719 -12.2344 15.4219 -12.4922 Q15.1719 -12.75 14.5938 -12.8594 L14.5938 -13.3281 L18.4375 -13.3281 L18.4375 -12.8594 Q18.1406 -12.75 17.9688 -12.6328 Q17.7969 -12.5156 17.6328 -12.3047 Q17.4688 -12.0938 17.2812 -11.6562 Q17.0938 -11.2188 16.8438 -10.4688 L13.2812 0.0625 L11.8906 0.0625 L9.1875 -10.8438 ZM19.1719 0 L19.1719 -0.4844 Q19.625 -0.5938 19.8203 -0.7031 Q20.0156 -0.8125 20.125 -0.9766 Q20.2344 -1.1406 20.2812 -1.4531 Q20.3281 -1.7656 20.3281 -2.4375 L20.3281 -10.8906 Q20.3281 -11.5781 20.2812 -11.8828 Q20.2344 -12.1875 20.1172 -12.3516 Q20 -12.5156 19.8125 -12.6172 Q19.625 -12.7188 19.1719 -12.8594 L19.1719 -13.3281 L23.4531 -13.3281 Q25.2969 -13.3281 26.4766 -12.9219 Q27.6562 -12.5156 28.4609 -11.7266 Q29.2656 -10.9375 29.6719 -9.7578 Q30.0781 -8.5781 30.0781 -6.9531 Q30.0781 -5.2969 29.6953 -4.0469 Q29.3125 -2.7969 28.5938 -1.9375 Q27.9688 -1.2031 27.0625 -0.7188 Q26.3125 -0.3281 25.3281 -0.1641 Q24.3438 0 22.7031 0 L19.1719 0 ZM22.1562 -0.9062 Q22.5469 -0.875 23.2969 -0.875 Q24.125 -0.875 24.7656 -1.0078 Q25.4062 -1.1406 25.9375 -1.4375 Q26.4688 -1.7344 26.8906 -2.2578 Q27.3125 -2.7812 27.5703 -3.4531 Q27.8281 -4.125 27.9531 -4.9609 Q28.0781 -5.7969 28.0781 -6.7812 Q28.0781 -8.7656 27.5078 -10.0391 Q26.9375 -11.3125 25.8984 -11.8984 Q24.8594 -12.4844 23.4062 -12.4844 Q22.75 -12.4844 22.1562 -12.4375 L22.1562 -0.9062 ZM37.3906 0.1562 Q36.2188 0.1562 35.2578 -0.2266 Q34.2969 -0.6094 33.6094 -1.4297 Q32.9219 -2.25 32.5391 -3.5156 Q32.1562 -4.7812 32.1562 -6.5469 Q32.1562 -8.7344 32.8203 -10.2969 Q33.4844 -11.8594 34.7266 -12.6719 Q35.9688 -13.4844 37.5938 -13.4844 Q39.3281 -13.4844 40.5156 -12.7188 Q41.7031 -11.9531 42.3047 -10.4609 Q42.9062 -8.9688 42.9062 -6.8438 Q42.9062 -4.5469 42.2188 -2.9766 Q41.5312 -1.4062 40.2891 -0.625 Q39.0469 0.1562 37.3906 0.1562 ZM34.1719 -6.8281 Q34.1719 -3.8281 35.0469 -2.2656 Q35.9219 -0.7031 37.6094 -0.7031 Q38.6719 -0.7031 39.4141 -1.3828 Q40.1562 -2.0625 40.5234 -3.3672 Q40.8906 -4.6719 40.8906 -6.4219 Q40.8906 -8.5625 40.4609 -9.9609 Q40.0312 -11.3594 39.2734 -11.9922 Q38.5156 -12.625 37.5312 -12.625 Q36.6406 -12.625 36.0156 -12.2188 Q35.3906 -11.8125 34.9766 -11.0547 Q34.5625 -10.2969 34.3672 -9.2188 Q34.1719 -8.1406 34.1719 -6.8281 ZM44.6406 -13.3281 L55.2188 -13.3281 L55.2188 -9.9375 L54.25 -9.9375 Q54.0469 -10.7656 53.8359 -11.2578 Q53.625 -11.75 53.3906 -12 Q53.1562 -12.25 52.8828 -12.3594 Q52.6094 -12.4688 52.0781 -12.4688 L50.8438 -12.4688 L50.8438 -2.4688 Q50.8438 -1.8906 50.9062 -1.5547 Q50.9688 -1.2188 51.1016 -1.0156 Q51.2344 -0.8125 51.4531 -0.7031 Q51.6719 -0.5938 52.1562 -0.4844 L52.1562 0 L47.6875 0 L47.6875 -0.4844 Q47.9844 -0.5469 48.2109 -0.625 Q48.4375 -0.7031 48.5781 -0.8125 Q48.7188 -0.9219 48.8125 -1.1016 Q48.9062 -1.2812 48.9609 -1.5859 Q49.0156 -1.8906 49.0156 -2.4688 L49.0156 -12.4688 L47.7812 -12.4688 Q47.3281 -12.4688 47.0234 -12.3828 Q46.7188 -12.2969 46.4688 -12.0156 Q46.2188 -11.7344 46.0078 -11.2266 Q45.7969 -10.7188 45.6094 -9.9375 L44.6406 -9.9375 L44.6406 -13.3281 Z" stroke="none"/></g><g text-rendering="optimizeLegibility" transform="translate(56,14)" color-rendering="optimizeQuality" color-interpolation="linearRGB" image-rendering="optimizeQuality"><path d="M1.2188 -7.0625 L1.2188 -8.4219 L9.8594 -8.4219 L9.8594 -7.0625 L1.2188 -7.0625 ZM1.2188 -3.0156 L1.2188 -4.3594 L9.8594 -4.3594 L9.8594 -3.0156 L1.2188 -3.0156 Z" stroke="none"/></g><g text-rendering="optimizeLegibility" transform="translate(67.8594,14)" color-rendering="optimizeQuality" color-interpolation="linearRGB" image-rendering="optimizeQuality"><path d="M6.8125 -1.6875 L6.7812 -1.6875 Q5.7812 0.1562 3.7031 0.1562 Q2.4219 0.1562 1.6484 -0.6406 Q0.875 -1.4375 0.875 -2.9219 Q0.875 -4.7656 2.0312 -6.4766 Q3.1875 -8.1875 5.3281 -9.5 L5.7188 -8.8438 Q4.3438 -7.7812 3.4531 -6.1094 Q2.5625 -4.4375 2.5625 -2.8438 Q2.5625 -1.7031 3.0234 -1.1562 Q3.4844 -0.6094 4.2188 -0.6094 Q4.8906 -0.6094 5.4375 -1.2266 Q5.9844 -1.8438 6.2031 -2.9219 L6.9375 -6.6094 L8.5781 -6.6094 L7.7969 -2.8438 Q7.7188 -2.4219 7.7188 -2.0781 Q7.7188 -1.3906 8.0547 -1 Q8.3906 -0.6094 8.9844 -0.6094 Q10.1875 -0.6094 10.9922 -2.1094 Q11.7969 -3.6094 11.7969 -5.7812 Q11.7969 -7.8125 11 -8.9375 L11.5625 -9.5 Q13.5156 -7.6406 13.5156 -5.3594 Q13.5156 -3.125 12.2344 -1.4844 Q10.9531 0.1562 8.9688 0.1562 Q7.1562 0.1562 6.8125 -1.6875 Z" stroke="none"/></g><g text-rendering="optimizeLegibility" transform="translate(71.7812,14.7656)" color-rendering="optimizeQuality" color-interpolation="linearRGB" image-rendering="optimizeQuality"><path d="M3.7344 -13.1719 L3.7344 -11.2656 L1.9375 -11.2656 L1.9375 -13.1719 L3.7344 -13.1719 Z" stroke="none"/></g><g text-rendering="optimizeLegibility" transform="translate(81.375,19.0469)" color-rendering="optimizeQuality" color-interpolation="linearRGB" image-rendering="optimizeQuality"><path d="M2.5156 -3.8125 L2.7344 -3.8125 Q2.9531 -3.8125 3.1953 -3.8906 Q3.4375 -3.9688 3.7188 -4.1484 Q4 -4.3281 4.4688 -4.7031 Q4.8281 -4.9844 5 -5.1875 Q5.1719 -5.3906 5.2344 -5.5391 Q5.2969 -5.6875 5.2969 -5.8281 Q5.2969 -6.1562 4.8281 -6.2031 L4.9062 -6.5312 L7.1094 -6.5312 L7.25 -6.2031 Q6.6719 -5.6875 6.0469 -5.2031 L4.3125 -3.8438 L5.3438 -1.2656 Q5.4688 -0.9062 5.6172 -0.7188 Q5.7656 -0.5312 5.9531 -0.4453 Q6.1406 -0.3594 6.4375 -0.3281 L6.3594 0 L4.5312 0 L3.5312 -2.8125 Q3.4375 -3.0781 3.3672 -3.1719 Q3.2969 -3.2656 3.2109 -3.3047 Q3.125 -3.3438 2.9219 -3.3438 L2.4219 -3.3438 L1.7031 0 L0.5312 0 L2.2812 -7.8125 Q2.3594 -8.1562 2.3906 -8.3125 Q2.4219 -8.4688 2.4375 -8.5938 Q2.4531 -8.7188 2.4531 -8.8281 Q2.4531 -9.1094 2.2734 -9.2266 Q2.0938 -9.3438 1.6406 -9.3594 L1.7344 -9.7188 L3.4531 -9.7812 L3.8594 -9.7812 L2.5156 -3.8125 Z" stroke="none"/></g></g></svg>