<?xml version="1.0" encoding="UTF-8" standalone="no"?><svg xmlns="http://www.w3.org/2000/svg" xmlns:xlink="http://www.w3.org/1999/xlink" stroke-dasharray="none" shape-rendering="auto" font-family="'Dialog'" width="64.812600" text-rendering="auto" fill-opacity="1" contentScriptType="text/ecmascript" color-interpolation="auto" color-rendering="auto" preserveAspectRatio="xMidYMid meet" font-size="12" fill="black" stroke="black" image-rendering="auto" stroke-miterlimit="10" zoomAndPan="magnify" version="1.0" stroke-linecap="square" stroke-linejoin="miter" contentStyleType="text/css" font-style="normal" height="24" stroke-width="1" stroke-dashoffset="0" font-weight="normal" stroke-opacity="1" y="-5.000000"><!--Converted from MathML using JEuclid--><defs id="genericDefs"/><g><g text-rendering="optimizeLegibility" transform="translate(0.3594,19)" color-rendering="optimizeQuality" color-interpolation="linearRGB" image-rendering="optimizeQuality"><path d="M2.3438 -0.7031 L1.2344 4.2188 L-0.3594 4.2188 L1.6094 -4.625 Q2.6875 -9.5 6.625 -9.5 Q8.0625 -9.5 8.8828 -8.6641 Q9.7031 -7.8281 9.7031 -6.2969 Q9.7031 -4.0312 8.2344 -1.9375 Q6.7656 0.1562 4.4062 0.1562 Q3.2188 0.1562 2.3438 -0.7031 ZM3.0781 -4.0781 L2.6719 -2.25 Q2.6406 -2.1094 2.6406 -1.9688 Q2.6406 -1.4688 3.2109 -1.0391 Q3.7812 -0.6094 4.4844 -0.6094 Q5.875 -0.6094 6.9297 -2.4766 Q7.9844 -4.3438 7.9844 -6.5312 Q7.9844 -8.7188 6.3125 -8.7188 Q4.0781 -8.7188 3.0781 -4.0781 Z" stroke="none"/></g><g text-rendering="optimizeLegibility" transform="translate(10.8438,19)" color-rendering="optimizeQuality" color-interpolation="linearRGB" image-rendering="optimizeQuality"><path d="M1.2188 -7.0625 L1.2188 -8.4219 L9.8594 -8.4219 L9.8594 -7.0625 L1.2188 -7.0625 ZM1.2188 -3.0156 L1.2188 -4.3594 L9.8594 -4.3594 L9.8594 -3.0156 L1.2188 -3.0156 Z" stroke="none"/></g><g text-rendering="optimizeLegibility" transform="translate(22.7031,19)" color-rendering="optimizeQuality" color-interpolation="linearRGB" image-rendering="optimizeQuality"><path d="M9.3594 -7.4219 L9.3594 -7.2812 Q9.3594 -7.2188 9.3594 -7.1406 Q10.2031 -8.3438 11.0469 -8.9219 Q11.8906 -9.5 12.7812 -9.5 Q13.7188 -9.5 14.1953 -8.9766 Q14.6719 -8.4531 14.6719 -7.4219 Q14.6719 -6.7969 14.4844 -5.9219 L13.6562 -2.4375 Q13.5 -1.7344 13.5 -1.3281 Q13.5 -1.0312 13.5938 -0.8672 Q13.6875 -0.7031 13.8984 -0.6172 Q14.1094 -0.5312 14.5781 -0.4844 L14.4844 0 L11.4219 0 L12.6406 -4.9688 Q12.7812 -5.5 12.8828 -6.0547 Q12.9844 -6.6094 12.9844 -7.0469 Q12.9844 -7.75 12.7422 -8.0469 Q12.5 -8.3438 11.9688 -8.3438 Q11.5938 -8.3438 11.1172 -8.0312 Q10.6406 -7.7188 10.125 -7.0781 Q9.6094 -6.4375 9.2812 -5.8047 Q8.9531 -5.1719 8.7656 -4.2656 L7.875 0 L6.1875 0 L7.3125 -4.9688 Q7.5156 -5.875 7.5859 -6.3047 Q7.6562 -6.7344 7.6562 -7.0469 Q7.6562 -7.75 7.4062 -8.0469 Q7.1562 -8.3438 6.625 -8.3438 Q6.2344 -8.3438 5.7656 -8.0312 Q5.2969 -7.7188 4.7656 -7.0547 Q4.2344 -6.3906 3.9219 -5.75 Q3.6094 -5.1094 3.4219 -4.2344 L2.5469 0 L0.8438 0 L2.3281 -6.6719 Q2.3906 -6.8906 2.4688 -7.3359 Q2.5469 -7.7812 2.5469 -8.0625 Q2.5469 -8.3438 2.4688 -8.4922 Q2.3906 -8.6406 2.1875 -8.7188 Q1.9844 -8.7969 1.5 -8.8125 L1.625 -9.3438 L3.8438 -9.4219 L4.3906 -9.4219 L3.75 -6.8906 L3.875 -6.8594 Q4.7656 -8.1875 5.6562 -8.8438 Q6.5469 -9.5 7.4531 -9.5 Q8.3906 -9.5 8.875 -8.9609 Q9.3594 -8.4219 9.3594 -7.4219 Z" stroke="none"/></g><g text-rendering="optimizeLegibility" transform="translate(38.7656,17.9272) matrix(1,0,0,1.259,0,0)" color-rendering="optimizeQuality" color-interpolation="linearRGB" image-rendering="optimizeQuality"><path d="M9.1875 -13.9688 L2.1406 4.2031 L0.6094 4.2031 L7.6719 -13.9688 L9.1875 -13.9688 Z" stroke="none"/></g><g text-rendering="optimizeLegibility" transform="translate(49.9531,19)" color-rendering="optimizeQuality" color-interpolation="linearRGB" image-rendering="optimizeQuality"><path d="M6 -13.3281 L5.9062 -12.8594 Q5.4688 -12.7969 5.2266 -12.5938 Q4.9844 -12.3906 4.8906 -12.0234 Q4.7969 -11.6562 4.7969 -11.0469 Q4.7969 -10.8438 4.8125 -10.6406 L5.0938 -3.0156 L5.0938 -2.2344 L5.2031 -2.2344 L9.4219 -9.8594 Q9.7969 -10.5312 9.9844 -11.0156 Q10.1719 -11.5 10.1719 -11.875 Q10.1719 -12.2656 9.9375 -12.5156 Q9.7031 -12.7656 9.1875 -12.8594 L9.2969 -13.3281 L13.2969 -13.3281 L13.1875 -12.8594 Q12.9219 -12.8125 12.6797 -12.6484 Q12.4375 -12.4844 12.1406 -12.1094 Q11.8438 -11.7344 11.2188 -10.6719 L4.9688 0.1562 L3.6719 0.1562 L3.0156 -10.7344 Q2.9844 -11.375 2.8828 -11.8281 Q2.7812 -12.2812 2.5547 -12.5312 Q2.3281 -12.7812 1.8594 -12.8594 L1.9688 -13.3281 L6 -13.3281 Z" stroke="none"/></g></g></svg>