<?xml version="1.0" encoding="UTF-8" standalone="no"?><svg xmlns="http://www.w3.org/2000/svg" xmlns:xlink="http://www.w3.org/1999/xlink" stroke-dasharray="none" shape-rendering="auto" font-family="'Dialog'" width="16.812600" text-rendering="auto" fill-opacity="1" contentScriptType="text/ecmascript" color-interpolation="auto" color-rendering="auto" preserveAspectRatio="xMidYMid meet" font-size="12" fill="black" stroke="black" image-rendering="auto" stroke-miterlimit="10" zoomAndPan="magnify" version="1.0" stroke-linecap="square" stroke-linejoin="miter" contentStyleType="text/css" font-style="normal" height="17" stroke-width="1" stroke-dashoffset="0" font-weight="normal" stroke-opacity="1" y="-5.000000"><!--Converted from MathML using JEuclid--><defs id="genericDefs"/><g><g text-rendering="optimizeLegibility" transform="translate(0,12)" color-rendering="optimizeQuality" color-interpolation="linearRGB" image-rendering="optimizeQuality"><path d="M7.1719 -7 Q7.1562 -7.7344 7.0547 -8.0703 Q6.9531 -8.4062 6.7266 -8.5703 Q6.5 -8.7344 6.0781 -8.7344 Q5.0938 -8.7344 4.3047 -7.9453 Q3.5156 -7.1562 3.0156 -5.7188 Q2.5156 -4.2812 2.5156 -2.9531 Q2.5156 -2.5469 2.5938 -2.1797 Q2.6719 -1.8125 2.8516 -1.5547 Q3.0312 -1.2969 3.3281 -1.1406 Q3.625 -0.9844 4.0781 -0.9844 Q4.9688 -0.9844 5.6172 -1.3203 Q6.2656 -1.6562 7 -2.3906 L7.5938 -1.7812 Q6.6719 -0.7656 5.7422 -0.2969 Q4.8125 0.1719 3.7344 0.1719 Q2.3125 0.1719 1.5781 -0.6719 Q0.8438 -1.5156 0.8438 -3.1094 Q0.8438 -4.1562 1.2344 -5.4062 Q1.625 -6.6562 2.3828 -7.6094 Q3.1406 -8.5625 4.1406 -9.0312 Q5.1406 -9.5 6.2969 -9.5 Q7.0781 -9.5 7.6562 -9.4062 Q8.2344 -9.3125 8.6875 -9.2031 L8.2031 -7 L7.1719 -7 Z" stroke="none"/></g><g text-rendering="optimizeLegibility" transform="translate(2.3516,9.625)" color-rendering="optimizeQuality" color-interpolation="linearRGB" image-rendering="optimizeQuality"><path d="M3.7969 -8.125 L0.1875 -8.125 L0.1875 -8.9688 L3.7969 -8.9688 L3.7969 -8.125 Z" stroke="none"/></g><g text-rendering="optimizeLegibility" transform="translate(8.75,14.0234)" color-rendering="optimizeQuality" color-interpolation="linearRGB" image-rendering="optimizeQuality"><path d="M1.4688 1.2031 Q1.3906 1.5312 1.375 1.7109 Q1.3594 1.8906 1.3594 2.0156 Q1.3594 2.2188 1.4297 2.3359 Q1.5 2.4531 1.6406 2.5156 Q1.7812 2.5781 2.1094 2.6094 L2.0625 2.9375 L-0.0625 2.9375 L1.6719 -4.6562 Q1.8125 -5.2344 1.8125 -5.6406 Q1.8125 -5.8438 1.75 -5.9453 Q1.6875 -6.0469 1.5469 -6.1016 Q1.4062 -6.1562 1.0781 -6.1719 L1.1562 -6.5312 L2.7031 -6.5938 L3.0938 -6.5938 L2.6406 -4.8125 L2.7188 -4.7969 Q3.9844 -6.6406 5.2344 -6.6406 Q5.9844 -6.6406 6.3984 -6.0781 Q6.8125 -5.5156 6.8125 -4.4844 Q6.8125 -3.7344 6.6094 -2.9922 Q6.4062 -2.25 6.0469 -1.6484 Q5.6875 -1.0469 5.25 -0.6641 Q4.8125 -0.2812 4.3203 -0.0859 Q3.8281 0.1094 3.2812 0.1094 Q2.375 0.1094 1.7812 -0.2812 L1.4688 1.2031 ZM2.2812 -2.375 Q2.2188 -2.0156 2.2031 -1.8281 Q2.1875 -1.6406 2.1875 -1.4531 Q2.1875 -0.9219 2.4141 -0.6797 Q2.6406 -0.4375 3.2031 -0.4375 Q3.5469 -0.4375 3.8438 -0.5703 Q4.1406 -0.7031 4.3984 -0.9609 Q4.6562 -1.2188 4.875 -1.5938 Q5.0938 -1.9688 5.2578 -2.4531 Q5.4219 -2.9375 5.5078 -3.4531 Q5.5938 -3.9688 5.5938 -4.4219 Q5.5938 -5.1406 5.3906 -5.4922 Q5.1875 -5.8438 4.75 -5.8438 Q4.4062 -5.8438 4.0625 -5.6094 Q3.7188 -5.375 3.3203 -4.8516 Q2.9219 -4.3281 2.6953 -3.8281 Q2.4688 -3.3281 2.3438 -2.6719 L2.2812 -2.375 Z" stroke="none"/></g></g></svg>