<?xml version="1.0" encoding="UTF-8" standalone="no"?><svg xmlns="http://www.w3.org/2000/svg" xmlns:xlink="http://www.w3.org/1999/xlink" stroke-dasharray="none" shape-rendering="auto" font-family="'Dialog'" width="11.812600" text-rendering="auto" fill-opacity="1" contentScriptType="text/ecmascript" color-interpolation="auto" color-rendering="auto" preserveAspectRatio="xMidYMid meet" font-size="12" fill="black" stroke="black" image-rendering="auto" stroke-miterlimit="10" zoomAndPan="magnify" version="1.0" stroke-linecap="square" stroke-linejoin="miter" contentStyleType="text/css" font-style="normal" height="14" stroke-width="1" stroke-dashoffset="0" font-weight="normal" stroke-opacity="1" y="-4.000000"><!--Converted from MathML using JEuclid--><defs id="genericDefs"/><g><g text-rendering="optimizeLegibility" transform="translate(0.0938,10)" color-rendering="optimizeQuality" color-interpolation="linearRGB" image-rendering="optimizeQuality"><path d="M10.0625 -0.7656 Q8.9688 0.1562 7.875 0.1562 Q6.8125 0.1562 6.8125 -1.1719 Q6.8125 -1.6875 6.9844 -2.4219 L6.8594 -2.4844 Q5.0938 0.1562 3.5156 0.1562 Q2.5469 0.1562 2.1719 -0.7969 L2.0938 -0.7969 Q1.8438 0.7344 1.8438 2.4062 L1.8438 2.625 Q1.8438 2.7188 1.8594 2.8281 L1.7656 3.3594 L0.7812 3.9219 L-0.0938 3.9219 L2.8438 -9.3438 L4.4844 -9.3438 L3.3594 -4.3594 Q3.0156 -2.8438 3.0156 -2.3125 Q3.0156 -1 3.9375 -1 Q4.9062 -1 5.9766 -2.3828 Q7.0469 -3.7656 7.2812 -4.9219 L8.2656 -9.3438 L9.8906 -9.3438 L8.3438 -2.3594 Q8.25 -1.9688 8.25 -1.6875 Q8.25 -0.8281 8.8594 -0.8281 Q9.2344 -0.8281 9.8125 -1.2812 L10.0625 -0.7656 Z" stroke="none"/></g></g></svg>