<?xml version="1.0" encoding="UTF-8" standalone="no"?><svg xmlns="http://www.w3.org/2000/svg" xmlns:xlink="http://www.w3.org/1999/xlink" stroke-dasharray="none" shape-rendering="auto" font-family="'Dialog'" width="40.812600" text-rendering="auto" fill-opacity="1" contentScriptType="text/ecmascript" color-interpolation="auto" color-rendering="auto" preserveAspectRatio="xMidYMid meet" font-size="12" fill="black" stroke="black" image-rendering="auto" stroke-miterlimit="10" zoomAndPan="magnify" version="1.0" stroke-linecap="square" stroke-linejoin="miter" contentStyleType="text/css" font-style="normal" height="24" stroke-width="1" stroke-dashoffset="0" font-weight="normal" stroke-opacity="1" y="-5.000000"><!--Converted from MathML using JEuclid--><defs id="genericDefs"/><g><g text-rendering="optimizeLegibility" transform="translate(0,19)" color-rendering="optimizeQuality" color-interpolation="linearRGB" image-rendering="optimizeQuality"><path d="M8.0938 -7.25 L7.2812 -7.25 Q7.125 -8.7188 5.4531 -8.7188 Q4.6406 -8.7188 4.0469 -8.2422 Q3.4531 -7.7656 3.4531 -7.0156 Q3.4531 -6.3125 3.9766 -5.9062 Q4.5 -5.5 5.4531 -5.5 L6.3125 -5.5 L6.125 -4.5625 L5.3438 -4.5625 Q4.1094 -4.5625 3.1953 -4 Q2.2812 -3.4375 2.2812 -2.4219 Q2.2812 -1.7188 2.8438 -1.3125 Q3.4062 -0.9062 4.2656 -0.9062 Q5.7344 -0.9062 7.2031 -1.8594 L7.6406 -1.2031 Q5.8438 0.1562 3.6094 0.1562 Q2.1406 0.1562 1.3125 -0.4766 Q0.4844 -1.1094 0.4844 -2.125 Q0.4844 -4.1562 3.375 -4.9688 L3.4062 -5.0625 Q1.7812 -5.5312 1.7812 -6.9219 Q1.7812 -8.1094 2.7422 -8.8047 Q3.7031 -9.5 5.4219 -9.5 Q7.0312 -9.5 8.4844 -8.9688 L8.0938 -7.25 Z" stroke="none"/></g><g text-rendering="optimizeLegibility" transform="translate(9.875,17.9188) matrix(1,0,0,1.2572,0,0)" color-rendering="optimizeQuality" color-interpolation="linearRGB" image-rendering="optimizeQuality"><path d="M9.1875 -13.9688 L2.1406 4.2031 L0.6094 4.2031 L7.6719 -13.9688 L9.1875 -13.9688 Z" stroke="none"/></g><g text-rendering="optimizeLegibility" transform="translate(21.0625,19)" color-rendering="optimizeQuality" color-interpolation="linearRGB" image-rendering="optimizeQuality"><path d="M3.5938 -5.4375 L3.9062 -5.4375 Q4.2031 -5.4375 4.5547 -5.5547 Q4.9062 -5.6719 5.3125 -5.9219 Q5.7188 -6.1719 6.3906 -6.7031 Q6.8906 -7.125 7.1406 -7.4141 Q7.3906 -7.7031 7.4766 -7.9141 Q7.5625 -8.125 7.5625 -8.3281 Q7.5625 -8.7969 6.8906 -8.8594 L7 -9.3438 L10.1719 -9.3438 L10.3594 -8.8594 Q9.5469 -8.125 8.6406 -7.4219 L6.1562 -5.5 L7.625 -1.7969 Q7.8281 -1.2969 8.0312 -1.0312 Q8.2344 -0.7656 8.5 -0.6406 Q8.7656 -0.5156 9.1875 -0.4844 L9.0781 0 L6.4688 0 L5.0469 -4.0156 Q4.9062 -4.3906 4.8125 -4.5312 Q4.7188 -4.6719 4.5938 -4.7266 Q4.4688 -4.7812 4.1875 -4.7812 L3.4531 -4.7812 L2.4375 0 L0.75 0 L3.2656 -11.1562 Q3.375 -11.6562 3.4141 -11.875 Q3.4531 -12.0938 3.4766 -12.2812 Q3.5 -12.4688 3.5 -12.6094 Q3.5 -13.0156 3.25 -13.1797 Q3 -13.3438 2.3594 -13.375 L2.4688 -13.875 L4.9375 -13.9688 L5.5156 -13.9688 L3.5938 -5.4375 Z" stroke="none"/></g><g text-rendering="optimizeLegibility" transform="translate(31.4219,23.6641)" color-rendering="optimizeQuality" color-interpolation="linearRGB" image-rendering="optimizeQuality"><path d="M6.125 -4.7812 Q6.75 -4.5312 7.0938 -4.0625 Q7.4375 -3.5938 7.4375 -3 Q7.4375 -2.2969 7.1797 -1.7344 Q6.9219 -1.1719 6.3672 -0.7578 Q5.8125 -0.3438 5.0938 -0.1719 Q4.375 0 3.3281 0 L0.2812 0 L0.3594 -0.3281 Q0.625 -0.375 0.75 -0.4688 Q0.875 -0.5625 0.9688 -0.7266 Q1.0625 -0.8906 1.1328 -1.125 Q1.2031 -1.3594 1.3594 -2.0312 L2.5156 -7.2969 Q2.6719 -7.9844 2.6719 -8.375 Q2.6719 -8.7188 2.5156 -8.8438 Q2.3594 -8.9688 2 -9 L2.0781 -9.3281 L5.4688 -9.3281 Q6.4844 -9.3281 7.1016 -9.1172 Q7.7188 -8.9062 8.0156 -8.4844 Q8.3125 -8.0625 8.3125 -7.4375 Q8.3125 -6.5469 7.7656 -5.875 Q7.2188 -5.2031 6.125 -4.8594 L6.125 -4.7812 ZM4.2344 -5.1406 Q4.9375 -5.1406 5.375 -5.2422 Q5.8125 -5.3438 6.0859 -5.5312 Q6.3594 -5.7188 6.5703 -5.9766 Q6.7812 -6.2344 6.9141 -6.5859 Q7.0469 -6.9375 7.0469 -7.4062 Q7.0469 -7.7031 6.9453 -7.9531 Q6.8438 -8.2031 6.5938 -8.3906 Q6.3438 -8.5781 6.0156 -8.6562 Q5.6875 -8.7344 5.1406 -8.7344 Q4.5469 -8.7344 4.0469 -8.7031 L3.2656 -5.1406 L4.2344 -5.1406 ZM2.2812 -0.625 Q2.8125 -0.6094 3.2812 -0.6094 Q4.3125 -0.6094 4.875 -0.8672 Q5.4375 -1.125 5.7812 -1.7109 Q6.125 -2.2969 6.125 -3.125 Q6.125 -3.5625 5.9531 -3.8672 Q5.7812 -4.1719 5.4062 -4.3594 Q5.0312 -4.5469 4.3594 -4.5469 L3.125 -4.5469 L2.2812 -0.625 Z" stroke="none"/></g></g></svg>