<?xml version="1.0" encoding="UTF-8" standalone="no"?><svg xmlns="http://www.w3.org/2000/svg" xmlns:xlink="http://www.w3.org/1999/xlink" stroke-dasharray="none" shape-rendering="auto" font-family="'Dialog'" width="20.812600" text-rendering="auto" fill-opacity="1" contentScriptType="text/ecmascript" color-interpolation="auto" color-rendering="auto" preserveAspectRatio="xMidYMid meet" font-size="12" fill="black" stroke="black" image-rendering="auto" stroke-miterlimit="10" zoomAndPan="magnify" version="1.0" stroke-linecap="square" stroke-linejoin="miter" contentStyleType="text/css" font-style="normal" height="17" stroke-width="1" stroke-dashoffset="0" font-weight="normal" stroke-opacity="1" y="-4.000000"><!--Converted from MathML using JEuclid--><defs id="genericDefs"/><g><g text-rendering="optimizeLegibility" transform="translate(0,13)" color-rendering="optimizeQuality" color-interpolation="linearRGB" image-rendering="optimizeQuality"><path d="M6.8125 -1.6875 L6.7812 -1.6875 Q5.7812 0.1562 3.7031 0.1562 Q2.4219 0.1562 1.6484 -0.6406 Q0.875 -1.4375 0.875 -2.9219 Q0.875 -4.7656 2.0312 -6.4766 Q3.1875 -8.1875 5.3281 -9.5 L5.7188 -8.8438 Q4.3438 -7.7812 3.4531 -6.1094 Q2.5625 -4.4375 2.5625 -2.8438 Q2.5625 -1.7031 3.0234 -1.1562 Q3.4844 -0.6094 4.2188 -0.6094 Q4.8906 -0.6094 5.4375 -1.2266 Q5.9844 -1.8438 6.2031 -2.9219 L6.9375 -6.6094 L8.5781 -6.6094 L7.7969 -2.8438 Q7.7188 -2.4219 7.7188 -2.0781 Q7.7188 -1.3906 8.0547 -1 Q8.3906 -0.6094 8.9844 -0.6094 Q10.1875 -0.6094 10.9922 -2.1094 Q11.7969 -3.6094 11.7969 -5.7812 Q11.7969 -7.8125 11 -8.9375 L11.5625 -9.5 Q13.5156 -7.6406 13.5156 -5.3594 Q13.5156 -3.125 12.2344 -1.4844 Q10.9531 0.1562 8.9688 0.1562 Q7.1562 0.1562 6.8125 -1.6875 Z" stroke="none"/></g><g text-rendering="optimizeLegibility" transform="translate(3.9219,13.7656)" color-rendering="optimizeQuality" color-interpolation="linearRGB" image-rendering="optimizeQuality"><path d="M3.7344 -13.1719 L3.7344 -11.2656 L1.9375 -11.2656 L1.9375 -13.1719 L3.7344 -13.1719 Z" stroke="none"/></g><g text-rendering="optimizeLegibility" transform="translate(13.5156,16.4297)" color-rendering="optimizeQuality" color-interpolation="linearRGB" image-rendering="optimizeQuality"><path d="M5.5625 -1.3594 Q5.0625 -0.8125 4.5938 -0.4922 Q4.125 -0.1719 3.6641 -0.0312 Q3.2031 0.1094 2.6406 0.1094 Q2.0938 0.1094 1.7031 -0.0625 Q1.3125 -0.2344 1.0625 -0.5391 Q0.8125 -0.8438 0.6875 -1.2656 Q0.5625 -1.6875 0.5625 -2.1875 Q0.5625 -2.9062 0.8281 -3.75 Q1.0938 -4.5938 1.625 -5.2578 Q2.1562 -5.9219 2.8984 -6.2891 Q3.6406 -6.6562 4.4844 -6.6562 Q5.3125 -6.6562 5.7266 -6.3203 Q6.1406 -5.9844 6.1406 -5.2656 Q6.1406 -4.1094 5.0469 -3.5312 Q3.9531 -2.9531 1.8125 -2.9531 Q1.7344 -2.5312 1.7344 -2.0625 Q1.7344 -1.3438 2.0156 -1.0156 Q2.2969 -0.6875 2.9219 -0.6875 Q3.5625 -0.6875 4.0703 -0.9609 Q4.5781 -1.2344 5.1406 -1.8125 L5.5625 -1.3594 ZM1.9219 -3.5312 Q2.5625 -3.5312 3.0312 -3.6016 Q3.5 -3.6719 3.8438 -3.7812 Q4.1875 -3.8906 4.4141 -4.0469 Q4.6406 -4.2031 4.7734 -4.3906 Q4.9062 -4.5781 4.9609 -4.7891 Q5.0156 -5 5.0156 -5.2188 Q5.0156 -5.6406 4.8203 -5.875 Q4.625 -6.1094 4.2344 -6.1094 Q3.7656 -6.1094 3.3047 -5.7656 Q2.8438 -5.4219 2.4922 -4.8359 Q2.1406 -4.25 1.9219 -3.5312 Z" stroke="none"/></g></g></svg>