<?xml version="1.0" encoding="UTF-8" standalone="no"?><svg xmlns="http://www.w3.org/2000/svg" xmlns:xlink="http://www.w3.org/1999/xlink" stroke-dasharray="none" shape-rendering="auto" font-family="'Dialog'" width="30.812600" text-rendering="auto" fill-opacity="1" contentScriptType="text/ecmascript" color-interpolation="auto" color-rendering="auto" preserveAspectRatio="xMidYMid meet" font-size="12" fill="black" stroke="black" image-rendering="auto" stroke-miterlimit="10" zoomAndPan="magnify" version="1.0" stroke-linecap="square" stroke-linejoin="miter" contentStyleType="text/css" font-style="normal" height="19" stroke-width="1" stroke-dashoffset="0" font-weight="normal" stroke-opacity="1" y="-5.000000"><!--Converted from MathML using JEuclid--><defs id="genericDefs"/><g><g text-rendering="optimizeLegibility" transform="translate(0.1406,14)" color-rendering="optimizeQuality" color-interpolation="linearRGB" image-rendering="optimizeQuality"><path d="M2.3125 -0.9062 L5.4375 -0.9062 Q5.875 -0.9062 6.1484 -0.9609 Q6.4219 -1.0156 6.6328 -1.1328 Q6.8438 -1.25 7.0312 -1.4297 Q7.2188 -1.6094 7.4062 -1.8516 Q7.5938 -2.0938 7.8281 -2.5 Q8.0625 -2.9062 8.3281 -3.5312 L9.2656 -3.5312 L8.5156 0 L-0.1406 0 L-0.0469 -0.4844 L8.8125 -12.4375 L5.8281 -12.4375 Q5.4062 -12.4375 5.1641 -12.3906 Q4.9219 -12.3438 4.7344 -12.25 Q4.5469 -12.1562 4.4062 -12.0391 Q4.2656 -11.9219 4.0625 -11.6797 Q3.8594 -11.4375 3.6172 -11.0547 Q3.375 -10.6719 3.0625 -10.0312 L2.125 -10.0312 L2.8594 -13.3281 L11.3125 -13.3281 L11.2031 -12.8594 L2.3125 -0.9062 Z" stroke="none"/></g><g text-rendering="optimizeLegibility" transform="translate(11.4531,18.0547)" color-rendering="optimizeQuality" color-interpolation="linearRGB" image-rendering="optimizeQuality"><path d="M2.5156 -5.4062 L2.6094 -5.375 Q2.9844 -5.8438 3.3047 -6.1016 Q3.625 -6.3594 4 -6.5078 Q4.375 -6.6562 4.8438 -6.6562 Q5.2344 -6.6562 5.5625 -6.6094 L5.5625 -5.0312 L4.7812 -5.0312 Q4.625 -5.4062 4.4375 -5.5781 Q4.25 -5.75 3.9375 -5.75 Q3.6875 -5.75 3.4453 -5.6016 Q3.2031 -5.4531 2.9766 -5.1797 Q2.75 -4.9062 2.6641 -4.6719 Q2.5781 -4.4375 2.5781 -4.1094 L2.5781 -1.7031 Q2.5781 -1.0938 2.6562 -0.8516 Q2.7344 -0.6094 2.9062 -0.5 Q3.0781 -0.3906 3.4219 -0.3281 L3.4219 0 L0.6719 0 L0.6719 -0.3281 Q0.9375 -0.4219 1.0469 -0.4844 Q1.1562 -0.5469 1.2344 -0.6562 Q1.3125 -0.7656 1.3594 -0.9844 Q1.4062 -1.2031 1.4062 -1.6875 L1.4062 -4.6719 Q1.4062 -5.1094 1.3906 -5.375 Q1.375 -5.6406 1.2891 -5.8047 Q1.2031 -5.9688 1.0391 -6.0469 Q0.875 -6.125 0.5625 -6.1719 L0.5625 -6.5312 L2.1719 -6.5938 L2.5781 -6.5938 L2.5156 -5.4062 ZM9.6406 0.1094 Q8.2188 0.1094 7.4688 -0.7266 Q6.7188 -1.5625 6.7188 -3.2031 Q6.7188 -4.3281 7.1094 -5.1094 Q7.5 -5.8906 8.1875 -6.2734 Q8.875 -6.6562 9.75 -6.6562 Q11.2031 -6.6562 11.9609 -5.8047 Q12.7188 -4.9531 12.7188 -3.3594 Q12.7188 -2.2188 12.3438 -1.4375 Q11.9688 -0.6562 11.2734 -0.2734 Q10.5781 0.1094 9.6406 0.1094 ZM8.0156 -3.3438 Q8.0156 -1.9375 8.4609 -1.1875 Q8.9062 -0.4375 9.7344 -0.4375 Q10.2031 -0.4375 10.5234 -0.6562 Q10.8438 -0.875 11.0469 -1.25 Q11.25 -1.625 11.3359 -2.125 Q11.4219 -2.625 11.4219 -3.1562 Q11.4219 -4.1562 11.2031 -4.8203 Q10.9844 -5.4844 10.6016 -5.7969 Q10.2188 -6.1094 9.7188 -6.1094 Q8.8906 -6.1094 8.4531 -5.3906 Q8.0156 -4.6719 8.0156 -3.3438 ZM13.25 -6.1875 Q13.5938 -6.25 13.8047 -6.3828 Q14.0156 -6.5156 14.1406 -6.7344 Q14.2656 -6.9531 14.3281 -7.2812 Q14.3906 -7.6094 14.4688 -8.2188 L15.4375 -8.2188 L15.4375 -6.5312 L17.6562 -6.5312 L17.6562 -5.8438 L15.4375 -5.8438 L15.4375 -2.7969 Q15.4375 -2.1406 15.4922 -1.75 Q15.5469 -1.3594 15.6953 -1.1328 Q15.8438 -0.9062 16.0391 -0.8125 Q16.2344 -0.7188 16.5312 -0.7188 Q16.8125 -0.7188 17.0469 -0.8281 Q17.2812 -0.9375 17.5156 -1.1562 L17.8281 -0.7812 Q17.3438 -0.3125 16.9062 -0.1016 Q16.4688 0.1094 16.0156 0.1094 Q15.125 0.1094 14.6953 -0.4141 Q14.2656 -0.9375 14.2656 -2.0469 L14.2656 -5.8438 L13.25 -5.8438 L13.25 -6.1875 Z" stroke="none"/></g></g></svg>