<?xml version="1.0" encoding="UTF-8" standalone="no"?><svg xmlns="http://www.w3.org/2000/svg" xmlns:xlink="http://www.w3.org/1999/xlink" stroke-dasharray="none" shape-rendering="auto" font-family="'Dialog'" width="15.812600" text-rendering="auto" fill-opacity="1" contentScriptType="text/ecmascript" color-interpolation="auto" color-rendering="auto" preserveAspectRatio="xMidYMid meet" font-size="12" fill="black" stroke="black" image-rendering="auto" stroke-miterlimit="10" zoomAndPan="magnify" version="1.0" stroke-linecap="square" stroke-linejoin="miter" contentStyleType="text/css" font-style="normal" height="10" stroke-width="1" stroke-dashoffset="0" font-weight="normal" stroke-opacity="1" y="0.000000"><!--Converted from MathML using JEuclid--><defs id="genericDefs"/><g><g text-rendering="optimizeLegibility" transform="translate(0,10)" color-rendering="optimizeQuality" color-interpolation="linearRGB" image-rendering="optimizeQuality"><path d="M9.3594 -7.4219 L9.3594 -7.2812 Q9.3594 -7.2188 9.3594 -7.1406 Q10.2031 -8.3438 11.0469 -8.9219 Q11.8906 -9.5 12.7812 -9.5 Q13.7188 -9.5 14.1953 -8.9766 Q14.6719 -8.4531 14.6719 -7.4219 Q14.6719 -6.7969 14.4844 -5.9219 L13.6562 -2.4375 Q13.5 -1.7344 13.5 -1.3281 Q13.5 -1.0312 13.5938 -0.8672 Q13.6875 -0.7031 13.8984 -0.6172 Q14.1094 -0.5312 14.5781 -0.4844 L14.4844 0 L11.4219 0 L12.6406 -4.9688 Q12.7812 -5.5 12.8828 -6.0547 Q12.9844 -6.6094 12.9844 -7.0469 Q12.9844 -7.75 12.7422 -8.0469 Q12.5 -8.3438 11.9688 -8.3438 Q11.5938 -8.3438 11.1172 -8.0312 Q10.6406 -7.7188 10.125 -7.0781 Q9.6094 -6.4375 9.2812 -5.8047 Q8.9531 -5.1719 8.7656 -4.2656 L7.875 0 L6.1875 0 L7.3125 -4.9688 Q7.5156 -5.875 7.5859 -6.3047 Q7.6562 -6.7344 7.6562 -7.0469 Q7.6562 -7.75 7.4062 -8.0469 Q7.1562 -8.3438 6.625 -8.3438 Q6.2344 -8.3438 5.7656 -8.0312 Q5.2969 -7.7188 4.7656 -7.0547 Q4.2344 -6.3906 3.9219 -5.75 Q3.6094 -5.1094 3.4219 -4.2344 L2.5469 0 L0.8438 0 L2.3281 -6.6719 Q2.3906 -6.8906 2.4688 -7.3359 Q2.5469 -7.7812 2.5469 -8.0625 Q2.5469 -8.3438 2.4688 -8.4922 Q2.3906 -8.6406 2.1875 -8.7188 Q1.9844 -8.7969 1.5 -8.8125 L1.625 -9.3438 L3.8438 -9.4219 L4.3906 -9.4219 L3.75 -6.8906 L3.875 -6.8594 Q4.7656 -8.1875 5.6562 -8.8438 Q6.5469 -9.5 7.4531 -9.5 Q8.3906 -9.5 8.875 -8.9609 Q9.3594 -8.4219 9.3594 -7.4219 Z" stroke="none"/></g></g></svg>