<?xml version="1.0" encoding="UTF-8" standalone="no"?><svg xmlns="http://www.w3.org/2000/svg" xmlns:xlink="http://www.w3.org/1999/xlink" stroke-dasharray="none" shape-rendering="auto" font-family="'Dialog'" width="10.812600" text-rendering="auto" fill-opacity="1" contentScriptType="text/ecmascript" color-interpolation="auto" color-rendering="auto" preserveAspectRatio="xMidYMid meet" font-size="12" fill="black" stroke="black" image-rendering="auto" stroke-miterlimit="10" zoomAndPan="magnify" version="1.0" stroke-linecap="square" stroke-linejoin="miter" contentStyleType="text/css" font-style="normal" height="10" stroke-width="1" stroke-dashoffset="0" font-weight="normal" stroke-opacity="1" y="0.000000"><!--Converted from MathML using JEuclid--><defs id="genericDefs"/><g><g text-rendering="optimizeLegibility" transform="translate(0,10)" color-rendering="optimizeQuality" color-interpolation="linearRGB" image-rendering="optimizeQuality"><path d="M9.2031 0 L6.1406 0 L7.375 -4.9688 Q7.4844 -5.4375 7.6016 -6.0156 Q7.7188 -6.5938 7.7188 -7.0469 Q7.7188 -7.75 7.4766 -8.0469 Q7.2344 -8.3438 6.7344 -8.3438 Q6.3125 -8.3438 5.8438 -8.0312 Q5.375 -7.7188 4.8594 -7.0859 Q4.3438 -6.4531 3.9844 -5.8047 Q3.625 -5.1562 3.4219 -4.2344 L2.5469 0 L0.8438 0 L2.3281 -6.6719 Q2.3906 -6.8906 2.4688 -7.3359 Q2.5469 -7.7812 2.5469 -8.0625 Q2.5469 -8.3438 2.4688 -8.4922 Q2.3906 -8.6406 2.1875 -8.7188 Q1.9844 -8.7969 1.5 -8.8125 L1.625 -9.3438 L3.8438 -9.4219 L4.3906 -9.4219 L3.7344 -6.8906 L3.8594 -6.8438 Q4.8125 -8.1875 5.7031 -8.8438 Q6.5938 -9.5 7.4844 -9.5 Q8.4219 -9.5 8.9141 -8.9766 Q9.4062 -8.4531 9.4062 -7.4219 Q9.4062 -7.0781 9.3438 -6.6562 Q9.2812 -6.2344 9.2031 -5.9219 L8.375 -2.4375 Q8.2188 -1.7344 8.2188 -1.3281 Q8.2188 -1.0312 8.3125 -0.8672 Q8.4062 -0.7031 8.6094 -0.6172 Q8.8125 -0.5312 9.2812 -0.4844 L9.2031 0 Z" stroke="none"/></g></g></svg>