<?xml version="1.0" encoding="UTF-8" standalone="no"?><svg xmlns="http://www.w3.org/2000/svg" xmlns:xlink="http://www.w3.org/1999/xlink" stroke-dasharray="none" shape-rendering="auto" font-family="'Dialog'" width="124.812600" text-rendering="auto" fill-opacity="1" contentScriptType="text/ecmascript" color-interpolation="auto" color-rendering="auto" preserveAspectRatio="xMidYMid meet" font-size="12" fill="black" stroke="black" image-rendering="auto" stroke-miterlimit="10" zoomAndPan="magnify" version="1.0" stroke-linecap="square" stroke-linejoin="miter" contentStyleType="text/css" font-style="normal" height="59" stroke-width="1" stroke-dashoffset="0" font-weight="normal" stroke-opacity="1" y="-20.000000"><!--Converted from MathML using JEuclid--><defs id="genericDefs"/><g><g text-rendering="optimizeLegibility" stroke-width="1.6667" color-interpolation="linearRGB" color-rendering="optimizeQuality" image-rendering="optimizeQuality"><line y2="31.78" fill="none" x1="1.6778" x2="22.4434" y1="31.78"/><path d="M8.5 -11.2188 Q8.5781 -11.5312 8.6328 -11.9219 Q8.6875 -12.3125 8.6875 -12.6094 Q8.6875 -12.9062 8.5859 -13.0547 Q8.4844 -13.2031 8.2812 -13.2734 Q8.0781 -13.3438 7.5625 -13.375 L7.6719 -13.875 L10.125 -13.9688 L10.7031 -13.9688 L8.1719 -2.7188 Q8.0312 -2.0938 7.9844 -1.7969 Q7.9375 -1.5 7.9375 -1.2969 Q7.9375 -0.8906 8.1641 -0.7109 Q8.3906 -0.5312 9.0312 -0.4844 L8.9375 0 L6.1406 0 L6.7656 -2.4531 L6.625 -2.4844 Q5.6875 -1.125 4.8516 -0.4922 Q4.0156 0.1406 3.0781 0.1406 Q2 0.1406 1.4141 -0.6641 Q0.8281 -1.4688 0.8281 -2.9375 Q0.8281 -3.875 1.0391 -4.8203 Q1.25 -5.7656 1.6875 -6.6094 Q2.125 -7.4531 2.7266 -8.0938 Q3.3281 -8.7344 4.125 -9.1172 Q4.9219 -9.5 5.8594 -9.5 Q6.4531 -9.5 6.9609 -9.3828 Q7.4688 -9.2656 7.9844 -8.9531 L8.5 -11.2188 ZM7.2812 -5.9531 Q7.4375 -6.6562 7.4375 -7.2812 Q7.4375 -8.0312 7.1094 -8.3828 Q6.7812 -8.7344 6.0312 -8.7344 Q5.625 -8.7344 5.2578 -8.6016 Q4.8906 -8.4688 4.5078 -8.1641 Q4.125 -7.8594 3.7734 -7.3594 Q3.4219 -6.8594 3.1406 -6.1484 Q2.8594 -5.4375 2.7031 -4.6172 Q2.5469 -3.7969 2.5469 -3.0312 Q2.5469 -2.0156 2.8281 -1.5078 Q3.1094 -1 3.7656 -1 Q4.0625 -1 4.3906 -1.1406 Q4.7188 -1.2812 5.1172 -1.6484 Q5.5156 -2.0156 6.0312 -2.7188 Q6.4844 -3.375 6.75 -4.0156 Q7.0156 -4.6562 7.2031 -5.5312 L7.2812 -5.9531 Z" stroke-width="1" transform="translate(1.6778,25.0501)" stroke="none"/></g><g text-rendering="optimizeLegibility" transform="translate(12.7403,25.0501)" color-rendering="optimizeQuality" color-interpolation="linearRGB" image-rendering="optimizeQuality"><path d="M2.3438 -0.7031 L1.2344 4.2188 L-0.3594 4.2188 L1.6094 -4.625 Q2.6875 -9.5 6.625 -9.5 Q8.0625 -9.5 8.8828 -8.6641 Q9.7031 -7.8281 9.7031 -6.2969 Q9.7031 -4.0312 8.2344 -1.9375 Q6.7656 0.1562 4.4062 0.1562 Q3.2188 0.1562 2.3438 -0.7031 ZM3.0781 -4.0781 L2.6719 -2.25 Q2.6406 -2.1094 2.6406 -1.9688 Q2.6406 -1.4688 3.2109 -1.0391 Q3.7812 -0.6094 4.4844 -0.6094 Q5.875 -0.6094 6.9297 -2.4766 Q7.9844 -4.3438 7.9844 -6.5312 Q7.9844 -8.7188 6.3125 -8.7188 Q4.0781 -8.7188 3.0781 -4.0781 Z" stroke="none"/></g><g text-rendering="optimizeLegibility" transform="translate(2.8887,48.2599)" color-rendering="optimizeQuality" color-interpolation="linearRGB" image-rendering="optimizeQuality"><path d="M8.5 -11.2188 Q8.5781 -11.5312 8.6328 -11.9219 Q8.6875 -12.3125 8.6875 -12.6094 Q8.6875 -12.9062 8.5859 -13.0547 Q8.4844 -13.2031 8.2812 -13.2734 Q8.0781 -13.3438 7.5625 -13.375 L7.6719 -13.875 L10.125 -13.9688 L10.7031 -13.9688 L8.1719 -2.7188 Q8.0312 -2.0938 7.9844 -1.7969 Q7.9375 -1.5 7.9375 -1.2969 Q7.9375 -0.8906 8.1641 -0.7109 Q8.3906 -0.5312 9.0312 -0.4844 L8.9375 0 L6.1406 0 L6.7656 -2.4531 L6.625 -2.4844 Q5.6875 -1.125 4.8516 -0.4922 Q4.0156 0.1406 3.0781 0.1406 Q2 0.1406 1.4141 -0.6641 Q0.8281 -1.4688 0.8281 -2.9375 Q0.8281 -3.875 1.0391 -4.8203 Q1.25 -5.7656 1.6875 -6.6094 Q2.125 -7.4531 2.7266 -8.0938 Q3.3281 -8.7344 4.125 -9.1172 Q4.9219 -9.5 5.8594 -9.5 Q6.4531 -9.5 6.9609 -9.3828 Q7.4688 -9.2656 7.9844 -8.9531 L8.5 -11.2188 ZM7.2812 -5.9531 Q7.4375 -6.6562 7.4375 -7.2812 Q7.4375 -8.0312 7.1094 -8.3828 Q6.7812 -8.7344 6.0312 -8.7344 Q5.625 -8.7344 5.2578 -8.6016 Q4.8906 -8.4688 4.5078 -8.1641 Q4.125 -7.8594 3.7734 -7.3594 Q3.4219 -6.8594 3.1406 -6.1484 Q2.8594 -5.4375 2.7031 -4.6172 Q2.5469 -3.7969 2.5469 -3.0312 Q2.5469 -2.0156 2.8281 -1.5078 Q3.1094 -1 3.7656 -1 Q4.0625 -1 4.3906 -1.1406 Q4.7188 -1.2812 5.1172 -1.6484 Q5.5156 -2.0156 6.0312 -2.7188 Q6.4844 -3.375 6.75 -4.0156 Q7.0156 -4.6562 7.2031 -5.5312 L7.2812 -5.9531 Z" stroke="none"/></g><g text-rendering="optimizeLegibility" transform="translate(13.5918,48.2599)" color-rendering="optimizeQuality" color-interpolation="linearRGB" image-rendering="optimizeQuality"><path d="M6.5938 -1.7969 Q5.7969 -0.8281 5.0156 -0.3359 Q4.2344 0.1562 3.3438 0.1562 Q2.3125 0.1562 1.8047 -0.375 Q1.2969 -0.9062 1.2969 -1.9062 Q1.2969 -2.5156 1.4688 -3.2812 L2.6875 -8.3438 L1.2344 -8.3438 L1.3438 -8.8438 Q1.9219 -8.9219 2.2578 -9.1016 Q2.5938 -9.2812 2.8203 -9.5781 Q3.0469 -9.875 3.2422 -10.3516 Q3.4375 -10.8281 3.7344 -11.75 L5.0781 -11.75 L4.5469 -9.3438 L7.6406 -9.3438 L7.4219 -8.3438 L4.3125 -8.3438 L3.375 -4.5625 Q2.9844 -2.9844 2.9844 -2.2031 Q2.9844 -1.6094 3.2422 -1.2969 Q3.5 -0.9844 4 -0.9844 Q4.4531 -0.9844 4.9453 -1.3359 Q5.4375 -1.6875 6.0312 -2.3906 L6.5938 -1.7969 Z" stroke="none"/></g><g text-rendering="optimizeLegibility" transform="translate(26.5691,39)" color-rendering="optimizeQuality" color-interpolation="linearRGB" image-rendering="optimizeQuality"><path d="M1.2188 -7.0625 L1.2188 -8.4219 L9.8594 -8.4219 L9.8594 -7.0625 L1.2188 -7.0625 ZM1.2188 -3.0156 L1.2188 -4.3594 L9.8594 -4.3594 L9.8594 -3.0156 L1.2188 -3.0156 Z" stroke="none"/></g><g text-rendering="optimizeLegibility" transform="translate(40.0066,39)" color-rendering="optimizeQuality" color-interpolation="linearRGB" image-rendering="optimizeQuality"><path d="M5.6562 -21.375 L13.5 -9.4688 L13.5 -8.25 L4.7031 3.8281 L15.3125 3.8281 Q16.3125 3.8281 16.8203 3.7031 Q17.3281 3.5781 17.6875 3.3125 Q18.0469 3.0469 18.3438 2.5703 Q18.6406 2.0938 18.9141 1.2578 Q19.1875 0.4219 19.4375 -0.9375 L21.3125 -0.9375 L20.8438 6.9219 L0.4219 6.9219 L0.4219 6.0312 L10.375 -7.6562 L1.0312 -22.1406 L1.0312 -23.0625 L20.9375 -23.0625 L20.9375 -15.8906 L19.1875 -15.8906 Q18.7812 -17.4219 18.4219 -18.3906 Q18.0625 -19.3594 17.6875 -19.9219 Q17.3125 -20.4844 16.9141 -20.7812 Q16.5156 -21.0781 16 -21.2266 Q15.4844 -21.375 14.625 -21.375 L5.6562 -21.375 Z" stroke="none"/></g><g text-rendering="optimizeLegibility" transform="translate(40.8894,58.2031)" color-rendering="optimizeQuality" color-interpolation="linearRGB" image-rendering="optimizeQuality"><path d="M2.5156 -3.8125 L2.7344 -3.8125 Q2.9531 -3.8125 3.1953 -3.8906 Q3.4375 -3.9688 3.7188 -4.1484 Q4 -4.3281 4.4688 -4.7031 Q4.8281 -4.9844 5 -5.1875 Q5.1719 -5.3906 5.2344 -5.5391 Q5.2969 -5.6875 5.2969 -5.8281 Q5.2969 -6.1562 4.8281 -6.2031 L4.9062 -6.5312 L7.1094 -6.5312 L7.25 -6.2031 Q6.6719 -5.6875 6.0469 -5.2031 L4.3125 -3.8438 L5.3438 -1.2656 Q5.4688 -0.9062 5.6172 -0.7188 Q5.7656 -0.5312 5.9531 -0.4453 Q6.1406 -0.3594 6.4375 -0.3281 L6.3594 0 L4.5312 0 L3.5312 -2.8125 Q3.4375 -3.0781 3.3672 -3.1719 Q3.2969 -3.2656 3.2109 -3.3047 Q3.125 -3.3438 2.9219 -3.3438 L2.4219 -3.3438 L1.7031 0 L0.5312 0 L2.2812 -7.8125 Q2.3594 -8.1562 2.3906 -8.3125 Q2.4219 -8.4688 2.4375 -8.5938 Q2.4531 -8.7188 2.4531 -8.8281 Q2.4531 -9.1094 2.2734 -9.2266 Q2.0938 -9.3438 1.6406 -9.3594 L1.7344 -9.7188 L3.4531 -9.7812 L3.8594 -9.7812 L2.5156 -3.8125 Z" stroke="none"/></g><g text-rendering="optimizeLegibility" transform="translate(47.2957,58.2031)" color-rendering="optimizeQuality" color-interpolation="linearRGB" image-rendering="optimizeQuality"><path d="M0.8438 -4.9375 L0.8438 -5.8906 L6.9062 -5.8906 L6.9062 -4.9375 L0.8438 -4.9375 ZM0.8438 -2.1094 L0.8438 -3.0625 L6.9062 -3.0625 L6.9062 -2.1094 L0.8438 -2.1094 Z" stroke="none"/></g><g text-rendering="optimizeLegibility" transform="translate(54.2019,58.2031)" color-rendering="optimizeQuality" color-interpolation="linearRGB" image-rendering="optimizeQuality"><path d="M4.75 -1.7812 Q4.75 -1.3906 4.7969 -1.1875 Q4.8438 -0.9844 4.9531 -0.8594 Q5.0625 -0.7344 5.2734 -0.6641 Q5.4844 -0.5938 5.8047 -0.5547 Q6.125 -0.5156 6.6562 -0.5 L6.6562 0 L1.6094 0 L1.6094 -0.5 Q2.3594 -0.5312 2.6875 -0.5938 Q3.0156 -0.6562 3.1875 -0.7656 Q3.3594 -0.875 3.4375 -1.0938 Q3.5156 -1.3125 3.5156 -1.7812 L3.5156 -7.3281 Q3.5156 -7.6094 3.4219 -7.7344 Q3.3281 -7.8594 3.1406 -7.8594 Q2.9219 -7.8594 2.5156 -7.6328 Q2.1094 -7.4062 1.5156 -7 L1.2188 -7.5312 L4.4219 -9.4375 L4.7969 -9.4375 Q4.75 -8.7812 4.75 -7.625 L4.75 -1.7812 Z" stroke="none"/></g><g text-rendering="optimizeLegibility" transform="translate(43.3816,9.9688)" color-rendering="optimizeQuality" color-interpolation="linearRGB" image-rendering="optimizeQuality"><path d="M3.25 -5.1094 L3.4844 -5.1094 Q3.7656 -5.1094 4 -5.2109 Q4.2344 -5.3125 4.5547 -5.5625 Q4.875 -5.8125 5.5547 -6.4922 Q6.2344 -7.1719 6.5312 -7.5234 Q6.8281 -7.875 6.9609 -8.125 Q7.0938 -8.375 7.0938 -8.5938 Q7.0938 -8.7656 6.9531 -8.8672 Q6.8125 -8.9688 6.5625 -9 L6.6406 -9.3281 L9.5781 -9.3281 L9.5 -9 Q9.2188 -8.9531 8.875 -8.7109 Q8.5312 -8.4688 7.8281 -7.7656 L5.1719 -5.1875 L6.625 -1.6875 Q6.8125 -1.2344 6.9219 -1.0312 Q7.0312 -0.8281 7.1641 -0.6875 Q7.2969 -0.5469 7.4609 -0.4609 Q7.625 -0.375 7.8594 -0.3281 L7.7812 0 L5.1406 0 L5.2188 -0.3281 Q5.5781 -0.375 5.5781 -0.6562 Q5.5781 -0.75 5.5625 -0.8438 Q5.5469 -0.9375 5.4922 -1.125 Q5.4375 -1.3125 5.3281 -1.5781 L4.4375 -3.75 Q4.2812 -4.1406 4.1641 -4.2969 Q4.0469 -4.4531 3.9219 -4.5156 Q3.7969 -4.5781 3.5156 -4.5781 L3.1406 -4.5781 L2.5781 -1.9844 Q2.4844 -1.5781 2.4531 -1.3438 Q2.4219 -1.1094 2.4219 -0.9219 Q2.4219 -0.6094 2.5781 -0.4844 Q2.7344 -0.3594 3.0938 -0.3281 L3.0156 0 L0.2812 0 L0.3594 -0.3281 Q0.625 -0.375 0.75 -0.4688 Q0.875 -0.5625 0.9688 -0.7266 Q1.0625 -0.8906 1.1328 -1.125 Q1.2031 -1.3594 1.3594 -2.0312 L2.5156 -7.2969 Q2.5938 -7.6094 2.6328 -7.9062 Q2.6719 -8.2031 2.6719 -8.4062 Q2.6719 -8.7188 2.5078 -8.8438 Q2.3438 -8.9688 2 -9 L2.0781 -9.3281 L4.8125 -9.3281 L4.7344 -9 Q4.4844 -8.9375 4.3672 -8.875 Q4.25 -8.8125 4.1562 -8.6719 Q4.0625 -8.5312 3.9766 -8.2422 Q3.8906 -7.9531 3.7344 -7.2969 L3.25 -5.1094 Z" stroke="none"/></g><g text-rendering="optimizeLegibility" transform="translate(53.5066,11.25)" color-rendering="optimizeQuality" color-interpolation="linearRGB" image-rendering="optimizeQuality"><path d="M0.5 0.4219 Q0.4062 0.5312 0.3438 0.6406 Q0.2812 0.75 0.25 0.8516 Q0.2188 0.9531 0.2188 1.0938 Q0.2188 1.4688 0.4844 1.6328 Q0.75 1.7969 1.2812 1.7969 Q1.7656 1.7969 2.0859 1.625 Q2.4062 1.4531 2.6328 1.1016 Q2.8594 0.75 3.0312 0.2344 Q3.2031 -0.2812 3.375 -1.1562 L3.3125 -1.1719 Q2.8281 -0.5156 2.4219 -0.2188 Q2.0156 0.0781 1.5469 0.0781 Q1.0156 0.0781 0.7266 -0.3281 Q0.4375 -0.7344 0.4375 -1.4688 Q0.4375 -2.0156 0.5781 -2.5391 Q0.7188 -3.0625 0.9688 -3.4922 Q1.2188 -3.9219 1.5391 -4.2031 Q1.8594 -4.4844 2.2188 -4.6172 Q2.5781 -4.75 2.9531 -4.75 Q3.2656 -4.75 3.5391 -4.6797 Q3.8125 -4.6094 4.0938 -4.4219 L4.5469 -4.75 L4.8594 -4.6719 L4.3438 -2.3906 Q4.2969 -2.1406 4.2344 -1.8281 L4.1094 -1.1875 Q3.875 -0.0469 3.7344 0.3906 Q3.5781 0.9062 3.3438 1.2344 Q3.1406 1.5469 2.8516 1.75 Q2.5625 1.9531 2.1875 2.0703 Q1.8125 2.1875 1.2969 2.1875 Q-0.5469 2.1875 -0.5469 1.1094 Q-0.5469 0.8281 -0.3828 0.6094 Q-0.2188 0.3906 0.1406 0.1406 L0.5 0.4219 ZM1.9062 -0.5 Q2.1562 -0.5 2.3984 -0.6719 Q2.6406 -0.8438 2.9219 -1.2188 Q3.2031 -1.5938 3.3594 -1.9297 Q3.5156 -2.2656 3.625 -2.7656 Q3.7344 -3.2656 3.7344 -3.6406 Q3.7344 -4.0156 3.5703 -4.1875 Q3.4062 -4.3594 3.0312 -4.3594 Q2.8281 -4.3594 2.6484 -4.2969 Q2.4688 -4.2344 2.2734 -4.0781 Q2.0781 -3.9219 1.9062 -3.6719 Q1.7344 -3.4219 1.5938 -3.0703 Q1.4531 -2.7188 1.375 -2.3125 Q1.2969 -1.9062 1.2969 -1.5156 Q1.2969 -1 1.4453 -0.75 Q1.5938 -0.5 1.9062 -0.5 Z" stroke="none"/></g><g text-rendering="optimizeLegibility" stroke-width="1.6667" color-interpolation="linearRGB" color-rendering="optimizeQuality" image-rendering="optimizeQuality"><line y2="31.78" fill="none" x1="64.9969" x2="78.2938" y1="31.78"/><path d="M6.625 0 L6.7344 -0.4844 Q7.1719 -0.5156 7.4219 -0.7344 Q7.6719 -0.9531 7.7734 -1.3281 Q7.875 -1.7031 7.875 -2.3281 Q7.875 -2.7188 7.8438 -3.1719 L7.7812 -4.4219 L3.4844 -4.4219 L2.9375 -3.4688 Q2.5625 -2.7969 2.3828 -2.3125 Q2.2031 -1.8281 2.2031 -1.4531 Q2.2031 -0.6406 3.1875 -0.4844 L3.0938 0 L-0.9062 0 L-0.7969 -0.4844 Q-0.5 -0.5156 -0.2266 -0.7188 Q0.0469 -0.9219 0.3438 -1.3281 Q0.6406 -1.7344 1.1875 -2.6719 L7.4531 -13.4844 L8.9219 -13.4844 L9.625 -2.5938 Q9.6719 -1.8281 9.8047 -1.3906 Q9.9375 -0.9531 10.1562 -0.7422 Q10.375 -0.5312 10.7969 -0.4844 L10.6875 0 L6.625 0 ZM3.9219 -5.2812 L7.7344 -5.2812 L7.5625 -8.4219 Q7.5469 -9.0625 7.5234 -10.0312 Q7.5 -11 7.5 -11.4219 L7.3906 -11.4219 L3.9219 -5.2812 Z" stroke-width="1" transform="translate(66.7,29.2689)" stroke="none"/></g><g text-rendering="optimizeLegibility" transform="translate(64.9969,47.6192)" color-rendering="optimizeQuality" color-interpolation="linearRGB" image-rendering="optimizeQuality"><path d="M6 -13.3281 L5.9062 -12.8594 Q5.4688 -12.7969 5.2266 -12.5938 Q4.9844 -12.3906 4.8906 -12.0234 Q4.7969 -11.6562 4.7969 -11.0469 Q4.7969 -10.8438 4.8125 -10.6406 L5.0938 -3.0156 L5.0938 -2.2344 L5.2031 -2.2344 L9.4219 -9.8594 Q9.7969 -10.5312 9.9844 -11.0156 Q10.1719 -11.5 10.1719 -11.875 Q10.1719 -12.2656 9.9375 -12.5156 Q9.7031 -12.7656 9.1875 -12.8594 L9.2969 -13.3281 L13.2969 -13.3281 L13.1875 -12.8594 Q12.9219 -12.8125 12.6797 -12.6484 Q12.4375 -12.4844 12.1406 -12.1094 Q11.8438 -11.7344 11.2188 -10.6719 L4.9688 0.1562 L3.6719 0.1562 L3.0156 -10.7344 Q2.9844 -11.375 2.8828 -11.8281 Q2.7812 -12.2812 2.5547 -12.5312 Q2.3281 -12.7812 1.8594 -12.8594 L1.9688 -13.3281 L6 -13.3281 Z" stroke="none"/></g><g text-rendering="optimizeLegibility" transform="translate(81.6538,39)" color-rendering="optimizeQuality" color-interpolation="linearRGB" image-rendering="optimizeQuality"><path d="M6.4531 -7.0625 Q6.3438 -7.9375 5.9453 -8.3359 Q5.5469 -8.7344 4.7188 -8.7344 Q4.2656 -8.7344 3.8906 -8.5625 Q3.5156 -8.3906 3.3047 -8.0625 Q3.0938 -7.7344 3.0938 -7.2969 Q3.0938 -6.9375 3.2344 -6.6406 Q3.375 -6.3438 3.7266 -6.0156 Q4.0781 -5.6875 4.7031 -5.2812 Q5.6406 -4.6406 6.0234 -4.0469 Q6.4062 -3.4531 6.4062 -2.6719 Q6.4062 -1.75 5.9688 -1.1094 Q5.5312 -0.4688 4.7656 -0.1562 Q4 0.1562 3.0469 0.1562 Q2.1875 0.1562 1.4375 0.0312 Q0.6875 -0.0938 -0.0156 -0.2969 L0.4531 -2.4062 L1.2188 -2.4062 Q1.2812 -1.5 1.7266 -1.0547 Q2.1719 -0.6094 3.0156 -0.6094 Q3.8906 -0.6094 4.375 -1.0469 Q4.8594 -1.4844 4.8594 -2.2031 Q4.8594 -2.625 4.7188 -2.9531 Q4.5781 -3.2812 4.2656 -3.5859 Q3.9531 -3.8906 3.375 -4.2812 Q2.75 -4.7031 2.375 -5.0703 Q2 -5.4375 1.7891 -5.8828 Q1.5781 -6.3281 1.5781 -6.8594 Q1.5781 -7.6719 1.9766 -8.2734 Q2.375 -8.875 3.1094 -9.1875 Q3.8438 -9.5 4.8281 -9.5 Q6.4531 -9.5 7.6719 -9.0781 L7.2344 -7.0625 L6.4531 -7.0625 Z" stroke="none"/></g><g text-rendering="optimizeLegibility" transform="translate(82.646,39.7656)" color-rendering="optimizeQuality" color-interpolation="linearRGB" image-rendering="optimizeQuality"><path d="M3.7344 -13.1719 L3.7344 -11.2656 L1.9375 -11.2656 L1.9375 -13.1719 L3.7344 -13.1719 Z" stroke="none"/></g><g text-rendering="optimizeLegibility" transform="translate(89.3257,44.0469)" color-rendering="optimizeQuality" color-interpolation="linearRGB" image-rendering="optimizeQuality"><path d="M2.5156 -3.8125 L2.7344 -3.8125 Q2.9531 -3.8125 3.1953 -3.8906 Q3.4375 -3.9688 3.7188 -4.1484 Q4 -4.3281 4.4688 -4.7031 Q4.8281 -4.9844 5 -5.1875 Q5.1719 -5.3906 5.2344 -5.5391 Q5.2969 -5.6875 5.2969 -5.8281 Q5.2969 -6.1562 4.8281 -6.2031 L4.9062 -6.5312 L7.1094 -6.5312 L7.25 -6.2031 Q6.6719 -5.6875 6.0469 -5.2031 L4.3125 -3.8438 L5.3438 -1.2656 Q5.4688 -0.9062 5.6172 -0.7188 Q5.7656 -0.5312 5.9531 -0.4453 Q6.1406 -0.3594 6.4375 -0.3281 L6.3594 0 L4.5312 0 L3.5312 -2.8125 Q3.4375 -3.0781 3.3672 -3.1719 Q3.2969 -3.2656 3.2109 -3.3047 Q3.125 -3.3438 2.9219 -3.3438 L2.4219 -3.3438 L1.7031 0 L0.5312 0 L2.2812 -7.8125 Q2.3594 -8.1562 2.3906 -8.3125 Q2.4219 -8.4688 2.4375 -8.5938 Q2.4531 -8.7188 2.4531 -8.8281 Q2.4531 -9.1094 2.2734 -9.2266 Q2.0938 -9.3438 1.6406 -9.3594 L1.7344 -9.7188 L3.4531 -9.7812 L3.8594 -9.7812 L2.5156 -3.8125 Z" stroke="none"/></g><g text-rendering="optimizeLegibility" transform="translate(96.5757,39)" color-rendering="optimizeQuality" color-interpolation="linearRGB" image-rendering="optimizeQuality"><path d="M10.2656 0.125 L10.2656 -7.0156 Q10.2656 -8.7656 10.3594 -10.6406 L10.25 -10.6406 L5.0312 0.125 L3.5 0.125 L3.0312 -10.7344 Q3 -11.5469 2.8672 -11.9766 Q2.7344 -12.4062 2.5078 -12.6016 Q2.2812 -12.7969 1.875 -12.8594 L1.9844 -13.3281 L6.0625 -13.3281 L5.9531 -12.8594 Q5.5156 -12.8281 5.2656 -12.5938 Q5.0156 -12.3594 4.9141 -11.9688 Q4.8125 -11.5781 4.8125 -10.8438 L4.8125 -10.5156 Q4.8125 -10.3438 4.8281 -10.1562 L4.9062 -6.3438 Q4.9219 -5.9219 4.9219 -5.0469 L4.9219 -4.2656 L4.9062 -2.2188 L5.0156 -2.2188 L10.4062 -13.3281 L11.8906 -13.3281 L11.8906 -6.8125 Q11.8906 -5.6562 11.8594 -4.5625 L11.7969 -2.2188 L11.8906 -2.2188 L15.8438 -9.8594 Q16.0781 -10.2969 16.3281 -10.875 Q16.5781 -11.4531 16.5781 -11.875 Q16.5781 -12.2656 16.3438 -12.5156 Q16.1094 -12.7656 15.5938 -12.8594 L15.7031 -13.3281 L19.7031 -13.3281 L19.5938 -12.8594 Q19.1406 -12.7969 18.7344 -12.3594 Q18.3281 -11.9219 17.6406 -10.6719 L11.7656 0.125 L10.2656 0.125 Z" stroke="none"/></g><g text-rendering="optimizeLegibility" transform="translate(116.2788,44.0156)" color-rendering="optimizeQuality" color-interpolation="linearRGB" image-rendering="optimizeQuality"><path d="M2.5156 -3.8125 L2.7344 -3.8125 Q2.9531 -3.8125 3.1953 -3.8906 Q3.4375 -3.9688 3.7188 -4.1484 Q4 -4.3281 4.4688 -4.7031 Q4.8281 -4.9844 5 -5.1875 Q5.1719 -5.3906 5.2344 -5.5391 Q5.2969 -5.6875 5.2969 -5.8281 Q5.2969 -6.1562 4.8281 -6.2031 L4.9062 -6.5312 L7.1094 -6.5312 L7.25 -6.2031 Q6.6719 -5.6875 6.0469 -5.2031 L4.3125 -3.8438 L5.3438 -1.2656 Q5.4688 -0.9062 5.6172 -0.7188 Q5.7656 -0.5312 5.9531 -0.4453 Q6.1406 -0.3594 6.4375 -0.3281 L6.3594 0 L4.5312 0 L3.5312 -2.8125 Q3.4375 -3.0781 3.3672 -3.1719 Q3.2969 -3.2656 3.2109 -3.3047 Q3.125 -3.3438 2.9219 -3.3438 L2.4219 -3.3438 L1.7031 0 L0.5312 0 L2.2812 -7.8125 Q2.3594 -8.1562 2.3906 -8.3125 Q2.4219 -8.4688 2.4375 -8.5938 Q2.4531 -8.7188 2.4531 -8.8281 Q2.4531 -9.1094 2.2734 -9.2266 Q2.0938 -9.3438 1.6406 -9.3594 L1.7344 -9.7188 L3.4531 -9.7812 L3.8594 -9.7812 L2.5156 -3.8125 Z" stroke="none"/></g></g></svg>