<?xml version="1.0" encoding="UTF-8" standalone="no"?><svg xmlns="http://www.w3.org/2000/svg" xmlns:xlink="http://www.w3.org/1999/xlink" stroke-dasharray="none" shape-rendering="auto" font-family="'Dialog'" width="84.812600" text-rendering="auto" fill-opacity="1" contentScriptType="text/ecmascript" color-interpolation="auto" color-rendering="auto" preserveAspectRatio="xMidYMid meet" font-size="12" fill="black" stroke="black" image-rendering="auto" stroke-miterlimit="10" zoomAndPan="magnify" version="1.0" stroke-linecap="square" stroke-linejoin="miter" contentStyleType="text/css" font-style="normal" height="43" stroke-width="1" stroke-dashoffset="0" font-weight="normal" stroke-opacity="1" y="-10.000000"><!--Converted from MathML using JEuclid--><defs id="genericDefs"/><g><g text-rendering="optimizeLegibility" stroke-width="1.6667" color-interpolation="linearRGB" color-rendering="optimizeQuality" image-rendering="optimizeQuality"><line y2="25.78" fill="none" x1="1.6778" x2="48.1778" y1="25.78"/><path d="M8.5 -11.2188 Q8.5781 -11.5312 8.6328 -11.9219 Q8.6875 -12.3125 8.6875 -12.6094 Q8.6875 -12.9062 8.5859 -13.0547 Q8.4844 -13.2031 8.2812 -13.2734 Q8.0781 -13.3438 7.5625 -13.375 L7.6719 -13.875 L10.125 -13.9688 L10.7031 -13.9688 L8.1719 -2.7188 Q8.0312 -2.0938 7.9844 -1.7969 Q7.9375 -1.5 7.9375 -1.2969 Q7.9375 -0.8906 8.1641 -0.7109 Q8.3906 -0.5312 9.0312 -0.4844 L8.9375 0 L6.1406 0 L6.7656 -2.4531 L6.625 -2.4844 Q5.6875 -1.125 4.8516 -0.4922 Q4.0156 0.1406 3.0781 0.1406 Q2 0.1406 1.4141 -0.6641 Q0.8281 -1.4688 0.8281 -2.9375 Q0.8281 -3.875 1.0391 -4.8203 Q1.25 -5.7656 1.6875 -6.6094 Q2.125 -7.4531 2.7266 -8.0938 Q3.3281 -8.7344 4.125 -9.1172 Q4.9219 -9.5 5.8594 -9.5 Q6.4531 -9.5 6.9609 -9.3828 Q7.4688 -9.2656 7.9844 -8.9531 L8.5 -11.2188 ZM7.2812 -5.9531 Q7.4375 -6.6562 7.4375 -7.2812 Q7.4375 -8.0312 7.1094 -8.3828 Q6.7812 -8.7344 6.0312 -8.7344 Q5.625 -8.7344 5.2578 -8.6016 Q4.8906 -8.4688 4.5078 -8.1641 Q4.125 -7.8594 3.7734 -7.3594 Q3.4219 -6.8594 3.1406 -6.1484 Q2.8594 -5.4375 2.7031 -4.6172 Q2.5469 -3.7969 2.5469 -3.0312 Q2.5469 -2.0156 2.8281 -1.5078 Q3.1094 -1 3.7656 -1 Q4.0625 -1 4.3906 -1.1406 Q4.7188 -1.2812 5.1172 -1.6484 Q5.5156 -2.0156 6.0312 -2.7188 Q6.4844 -3.375 6.75 -4.0156 Q7.0156 -4.6562 7.2031 -5.5312 L7.2812 -5.9531 Z" stroke-width="1" transform="translate(1.6778,19.0658)" stroke="none"/></g><g text-rendering="optimizeLegibility" transform="translate(12.1465,17.9846) matrix(1,0,0,1.2572,0,0)" color-rendering="optimizeQuality" color-interpolation="linearRGB" image-rendering="optimizeQuality"><path d="M6.5781 4.2031 L2.2344 4.2031 L2.2344 -13.9688 L6.5781 -13.9688 L6.5781 -13.1719 L3.9531 -13.1719 L3.9531 3.4062 L6.5781 3.4062 L6.5781 4.2031 Z" stroke="none"/></g><g text-rendering="optimizeLegibility" transform="translate(21.3653,19.0658)" color-rendering="optimizeQuality" color-interpolation="linearRGB" image-rendering="optimizeQuality"><path d="M6.25 -13.3281 L6.1406 -12.8594 Q5.7188 -12.7812 5.4688 -12.5625 Q5.2188 -12.3438 5.2188 -11.9219 Q5.2188 -11.2969 5.5469 -10.3594 L6.3594 -7.9844 L8.4531 -10.6406 Q8.5938 -10.8281 8.7344 -11.0234 Q8.875 -11.2188 8.9922 -11.4141 Q9.1094 -11.6094 9.1562 -11.7422 Q9.2031 -11.875 9.2344 -11.9844 Q9.2656 -12.0938 9.2656 -12.1875 Q9.2656 -12.4531 9.1094 -12.6406 Q8.9531 -12.8281 8.5625 -12.8594 L8.6719 -13.3281 L12.3125 -13.3281 L12.2031 -12.8594 Q11.9219 -12.7656 11.6562 -12.5703 Q11.3906 -12.375 11.0391 -11.9844 Q10.6875 -11.5938 9.7188 -10.4375 L6.8125 -6.9688 L8.2344 -3 Q8.5625 -2.0938 8.75 -1.6406 Q8.9688 -1.1562 9.125 -0.9219 Q9.25 -0.7656 9.3906 -0.6719 Q9.5156 -0.5781 9.8438 -0.4844 L9.75 0 L5.7969 0 L5.9062 -0.4844 Q6.3438 -0.5469 6.5859 -0.7891 Q6.8281 -1.0312 6.8281 -1.4062 Q6.8281 -1.9844 6.5938 -2.6875 L5.5781 -5.6719 L3.3438 -2.875 Q2.8594 -2.25 2.6328 -1.8594 Q2.4062 -1.4688 2.4062 -1.1875 Q2.4062 -0.9531 2.4688 -0.8125 Q2.5312 -0.6719 2.6797 -0.5938 Q2.8281 -0.5156 3.0938 -0.4844 L2.9844 0 L-0.6406 0 L-0.5469 -0.4844 Q-0.3594 -0.5469 -0.2031 -0.6328 Q-0.0469 -0.7188 0.1328 -0.8672 Q0.3125 -1.0156 0.6172 -1.3594 Q0.9219 -1.7031 1.3125 -2.1562 L5.125 -6.6875 L3.6875 -10.7031 Q3.4688 -11.2969 3.3047 -11.6953 Q3.1406 -12.0938 2.9766 -12.3281 Q2.8125 -12.5625 2.6406 -12.6797 Q2.4688 -12.7969 2.2031 -12.8594 L2.3125 -13.3281 L6.25 -13.3281 Z" stroke="none"/></g><g text-rendering="optimizeLegibility" transform="translate(33.6778,22.3392)" color-rendering="optimizeQuality" color-interpolation="linearRGB" image-rendering="optimizeQuality"><path d="M5.5625 -1.3594 Q5.0625 -0.8125 4.5938 -0.4922 Q4.125 -0.1719 3.6641 -0.0312 Q3.2031 0.1094 2.6406 0.1094 Q2.0938 0.1094 1.7031 -0.0625 Q1.3125 -0.2344 1.0625 -0.5391 Q0.8125 -0.8438 0.6875 -1.2656 Q0.5625 -1.6875 0.5625 -2.1875 Q0.5625 -2.9062 0.8281 -3.75 Q1.0938 -4.5938 1.625 -5.2578 Q2.1562 -5.9219 2.8984 -6.2891 Q3.6406 -6.6562 4.4844 -6.6562 Q5.3125 -6.6562 5.7266 -6.3203 Q6.1406 -5.9844 6.1406 -5.2656 Q6.1406 -4.1094 5.0469 -3.5312 Q3.9531 -2.9531 1.8125 -2.9531 Q1.7344 -2.5312 1.7344 -2.0625 Q1.7344 -1.3438 2.0156 -1.0156 Q2.2969 -0.6875 2.9219 -0.6875 Q3.5625 -0.6875 4.0703 -0.9609 Q4.5781 -1.2344 5.1406 -1.8125 L5.5625 -1.3594 ZM1.9219 -3.5312 Q2.5625 -3.5312 3.0312 -3.6016 Q3.5 -3.6719 3.8438 -3.7812 Q4.1875 -3.8906 4.4141 -4.0469 Q4.6406 -4.2031 4.7734 -4.3906 Q4.9062 -4.5781 4.9609 -4.7891 Q5.0156 -5 5.0156 -5.2188 Q5.0156 -5.6406 4.8203 -5.875 Q4.625 -6.1094 4.2344 -6.1094 Q3.7656 -6.1094 3.3047 -5.7656 Q2.8438 -5.4219 2.4922 -4.8359 Q2.1406 -4.25 1.9219 -3.5312 Z" stroke="none"/></g><g text-rendering="optimizeLegibility" transform="translate(41.3965,17.9846) matrix(1,0,0,1.2572,0,0)" color-rendering="optimizeQuality" color-interpolation="linearRGB" image-rendering="optimizeQuality"><path d="M4.7812 4.2031 L0.4219 4.2031 L0.4219 3.4062 L3.0625 3.4062 L3.0625 -13.1719 L0.4219 -13.1719 L0.4219 -13.9688 L4.7812 -13.9688 L4.7812 4.2031 Z" stroke="none"/></g><g text-rendering="optimizeLegibility" transform="translate(15.7559,42.2599)" color-rendering="optimizeQuality" color-interpolation="linearRGB" image-rendering="optimizeQuality"><path d="M8.5 -11.2188 Q8.5781 -11.5312 8.6328 -11.9219 Q8.6875 -12.3125 8.6875 -12.6094 Q8.6875 -12.9062 8.5859 -13.0547 Q8.4844 -13.2031 8.2812 -13.2734 Q8.0781 -13.3438 7.5625 -13.375 L7.6719 -13.875 L10.125 -13.9688 L10.7031 -13.9688 L8.1719 -2.7188 Q8.0312 -2.0938 7.9844 -1.7969 Q7.9375 -1.5 7.9375 -1.2969 Q7.9375 -0.8906 8.1641 -0.7109 Q8.3906 -0.5312 9.0312 -0.4844 L8.9375 0 L6.1406 0 L6.7656 -2.4531 L6.625 -2.4844 Q5.6875 -1.125 4.8516 -0.4922 Q4.0156 0.1406 3.0781 0.1406 Q2 0.1406 1.4141 -0.6641 Q0.8281 -1.4688 0.8281 -2.9375 Q0.8281 -3.875 1.0391 -4.8203 Q1.25 -5.7656 1.6875 -6.6094 Q2.125 -7.4531 2.7266 -8.0938 Q3.3281 -8.7344 4.125 -9.1172 Q4.9219 -9.5 5.8594 -9.5 Q6.4531 -9.5 6.9609 -9.3828 Q7.4688 -9.2656 7.9844 -8.9531 L8.5 -11.2188 ZM7.2812 -5.9531 Q7.4375 -6.6562 7.4375 -7.2812 Q7.4375 -8.0312 7.1094 -8.3828 Q6.7812 -8.7344 6.0312 -8.7344 Q5.625 -8.7344 5.2578 -8.6016 Q4.8906 -8.4688 4.5078 -8.1641 Q4.125 -7.8594 3.7734 -7.3594 Q3.4219 -6.8594 3.1406 -6.1484 Q2.8594 -5.4375 2.7031 -4.6172 Q2.5469 -3.7969 2.5469 -3.0312 Q2.5469 -2.0156 2.8281 -1.5078 Q3.1094 -1 3.7656 -1 Q4.0625 -1 4.3906 -1.1406 Q4.7188 -1.2812 5.1172 -1.6484 Q5.5156 -2.0156 6.0312 -2.7188 Q6.4844 -3.375 6.75 -4.0156 Q7.0156 -4.6562 7.2031 -5.5312 L7.2812 -5.9531 Z" stroke="none"/></g><g text-rendering="optimizeLegibility" transform="translate(26.459,42.2599)" color-rendering="optimizeQuality" color-interpolation="linearRGB" image-rendering="optimizeQuality"><path d="M6.5938 -1.7969 Q5.7969 -0.8281 5.0156 -0.3359 Q4.2344 0.1562 3.3438 0.1562 Q2.3125 0.1562 1.8047 -0.375 Q1.2969 -0.9062 1.2969 -1.9062 Q1.2969 -2.5156 1.4688 -3.2812 L2.6875 -8.3438 L1.2344 -8.3438 L1.3438 -8.8438 Q1.9219 -8.9219 2.2578 -9.1016 Q2.5938 -9.2812 2.8203 -9.5781 Q3.0469 -9.875 3.2422 -10.3516 Q3.4375 -10.8281 3.7344 -11.75 L5.0781 -11.75 L4.5469 -9.3438 L7.6406 -9.3438 L7.4219 -8.3438 L4.3125 -8.3438 L3.375 -4.5625 Q2.9844 -2.9844 2.9844 -2.2031 Q2.9844 -1.6094 3.2422 -1.2969 Q3.5 -0.9844 4 -0.9844 Q4.4531 -0.9844 4.9453 -1.3359 Q5.4375 -1.6875 6.0312 -2.3906 L6.5938 -1.7969 Z" stroke="none"/></g><g text-rendering="optimizeLegibility" transform="translate(52.3035,33)" color-rendering="optimizeQuality" color-interpolation="linearRGB" image-rendering="optimizeQuality"><path d="M1.2188 -7.0625 L1.2188 -8.4219 L9.8594 -8.4219 L9.8594 -7.0625 L1.2188 -7.0625 ZM1.2188 -3.0156 L1.2188 -4.3594 L9.8594 -4.3594 L9.8594 -3.0156 L1.2188 -3.0156 Z" stroke="none"/></g><g text-rendering="optimizeLegibility" transform="translate(64.1628,33)" color-rendering="optimizeQuality" color-interpolation="linearRGB" image-rendering="optimizeQuality"><path d="M6.8125 -1.6875 L6.7812 -1.6875 Q5.7812 0.1562 3.7031 0.1562 Q2.4219 0.1562 1.6484 -0.6406 Q0.875 -1.4375 0.875 -2.9219 Q0.875 -4.7656 2.0312 -6.4766 Q3.1875 -8.1875 5.3281 -9.5 L5.7188 -8.8438 Q4.3438 -7.7812 3.4531 -6.1094 Q2.5625 -4.4375 2.5625 -2.8438 Q2.5625 -1.7031 3.0234 -1.1562 Q3.4844 -0.6094 4.2188 -0.6094 Q4.8906 -0.6094 5.4375 -1.2266 Q5.9844 -1.8438 6.2031 -2.9219 L6.9375 -6.6094 L8.5781 -6.6094 L7.7969 -2.8438 Q7.7188 -2.4219 7.7188 -2.0781 Q7.7188 -1.3906 8.0547 -1 Q8.3906 -0.6094 8.9844 -0.6094 Q10.1875 -0.6094 10.9922 -2.1094 Q11.7969 -3.6094 11.7969 -5.7812 Q11.7969 -7.8125 11 -8.9375 L11.5625 -9.5 Q13.5156 -7.6406 13.5156 -5.3594 Q13.5156 -3.125 12.2344 -1.4844 Q10.9531 0.1562 8.9688 0.1562 Q7.1562 0.1562 6.8125 -1.6875 Z" stroke="none"/></g><g text-rendering="optimizeLegibility" transform="translate(68.0847,33.7656)" color-rendering="optimizeQuality" color-interpolation="linearRGB" image-rendering="optimizeQuality"><path d="M3.7344 -13.1719 L3.7344 -11.2656 L1.9375 -11.2656 L1.9375 -13.1719 L3.7344 -13.1719 Z" stroke="none"/></g><g text-rendering="optimizeLegibility" transform="translate(77.6785,36.4297)" color-rendering="optimizeQuality" color-interpolation="linearRGB" image-rendering="optimizeQuality"><path d="M5.5625 -1.3594 Q5.0625 -0.8125 4.5938 -0.4922 Q4.125 -0.1719 3.6641 -0.0312 Q3.2031 0.1094 2.6406 0.1094 Q2.0938 0.1094 1.7031 -0.0625 Q1.3125 -0.2344 1.0625 -0.5391 Q0.8125 -0.8438 0.6875 -1.2656 Q0.5625 -1.6875 0.5625 -2.1875 Q0.5625 -2.9062 0.8281 -3.75 Q1.0938 -4.5938 1.625 -5.2578 Q2.1562 -5.9219 2.8984 -6.2891 Q3.6406 -6.6562 4.4844 -6.6562 Q5.3125 -6.6562 5.7266 -6.3203 Q6.1406 -5.9844 6.1406 -5.2656 Q6.1406 -4.1094 5.0469 -3.5312 Q3.9531 -2.9531 1.8125 -2.9531 Q1.7344 -2.5312 1.7344 -2.0625 Q1.7344 -1.3438 2.0156 -1.0156 Q2.2969 -0.6875 2.9219 -0.6875 Q3.5625 -0.6875 4.0703 -0.9609 Q4.5781 -1.2344 5.1406 -1.8125 L5.5625 -1.3594 ZM1.9219 -3.5312 Q2.5625 -3.5312 3.0312 -3.6016 Q3.5 -3.6719 3.8438 -3.7812 Q4.1875 -3.8906 4.4141 -4.0469 Q4.6406 -4.2031 4.7734 -4.3906 Q4.9062 -4.5781 4.9609 -4.7891 Q5.0156 -5 5.0156 -5.2188 Q5.0156 -5.6406 4.8203 -5.875 Q4.625 -6.1094 4.2344 -6.1094 Q3.7656 -6.1094 3.3047 -5.7656 Q2.8438 -5.4219 2.4922 -4.8359 Q2.1406 -4.25 1.9219 -3.5312 Z" stroke="none"/></g></g></svg>