<?xml version="1.0" encoding="UTF-8" standalone="no"?><svg xmlns="http://www.w3.org/2000/svg" xmlns:xlink="http://www.w3.org/1999/xlink" stroke-dasharray="none" shape-rendering="auto" font-family="'Dialog'" width="170.812600" text-rendering="auto" fill-opacity="1" contentScriptType="text/ecmascript" color-interpolation="auto" color-rendering="auto" preserveAspectRatio="xMidYMid meet" font-size="12" fill="black" stroke="black" image-rendering="auto" stroke-miterlimit="10" zoomAndPan="magnify" version="1.0" stroke-linecap="square" stroke-linejoin="miter" contentStyleType="text/css" font-style="normal" height="25" stroke-width="1" stroke-dashoffset="0" font-weight="normal" stroke-opacity="1" y="-6.000000"><!--Converted from MathML using JEuclid--><defs id="genericDefs"/><g><g text-rendering="optimizeLegibility" transform="translate(0,19)" color-rendering="optimizeQuality" color-interpolation="linearRGB" image-rendering="optimizeQuality"><path d="M13.9531 -13.3281 L13.8438 -12.8594 Q13.4688 -12.7812 13.3047 -12.6797 Q13.1406 -12.5781 13.0078 -12.3828 Q12.875 -12.1875 12.75 -11.7734 Q12.625 -11.3594 12.4062 -10.4219 L10.125 0 L8.7969 0 L5.9375 -8.375 Q5.4219 -9.8906 5.0312 -11.375 L4.9062 -11.375 Q4.8438 -10.875 4.5781 -9.4766 Q4.3125 -8.0781 4.0312 -6.7344 L3.1719 -2.8438 Q3.0781 -2.4375 3.0156 -2.0547 Q2.9531 -1.6719 2.9531 -1.3125 Q2.9531 -0.875 3.1797 -0.6953 Q3.4062 -0.5156 3.9219 -0.4844 L3.8125 0 L0.3906 0 L0.5 -0.4844 Q0.875 -0.5312 1.0547 -0.6641 Q1.2344 -0.7969 1.3672 -1.0312 Q1.5 -1.2656 1.6016 -1.6016 Q1.7031 -1.9375 1.9219 -2.9062 L3.5781 -10.4375 Q3.6875 -10.8438 3.7422 -11.2266 Q3.7969 -11.6094 3.7969 -12 Q3.7969 -12.4688 3.5625 -12.6484 Q3.3281 -12.8281 2.8438 -12.8594 L2.9531 -13.3281 L6.0625 -13.3281 L8.6406 -5.7188 Q9.2031 -4.0781 9.5 -2.9531 L9.6094 -2.9531 Q9.6875 -3.5469 9.9688 -4.9297 Q10.25 -6.3125 10.4844 -7.3594 L11.1562 -10.4375 Q11.2344 -10.75 11.3047 -11.1875 Q11.375 -11.625 11.375 -12 Q11.375 -12.4688 11.1406 -12.6484 Q10.9062 -12.8281 10.4219 -12.8594 L10.5312 -13.3281 L13.9531 -13.3281 Z" stroke="none"/></g><g text-rendering="optimizeLegibility" transform="translate(13.9531,23.8906)" color-rendering="optimizeQuality" color-interpolation="linearRGB" image-rendering="optimizeQuality"><path d="M2.5156 -3.8125 L2.7344 -3.8125 Q2.9531 -3.8125 3.1953 -3.8906 Q3.4375 -3.9688 3.7188 -4.1484 Q4 -4.3281 4.4688 -4.7031 Q4.8281 -4.9844 5 -5.1875 Q5.1719 -5.3906 5.2344 -5.5391 Q5.2969 -5.6875 5.2969 -5.8281 Q5.2969 -6.1562 4.8281 -6.2031 L4.9062 -6.5312 L7.1094 -6.5312 L7.25 -6.2031 Q6.6719 -5.6875 6.0469 -5.2031 L4.3125 -3.8438 L5.3438 -1.2656 Q5.4688 -0.9062 5.6172 -0.7188 Q5.7656 -0.5312 5.9531 -0.4453 Q6.1406 -0.3594 6.4375 -0.3281 L6.3594 0 L4.5312 0 L3.5312 -2.8125 Q3.4375 -3.0781 3.3672 -3.1719 Q3.2969 -3.2656 3.2109 -3.3047 Q3.125 -3.3438 2.9219 -3.3438 L2.4219 -3.3438 L1.7031 0 L0.5312 0 L2.2812 -7.8125 Q2.3594 -8.1562 2.3906 -8.3125 Q2.4219 -8.4688 2.4375 -8.5938 Q2.4531 -8.7188 2.4531 -8.8281 Q2.4531 -9.1094 2.2734 -9.2266 Q2.0938 -9.3438 1.6406 -9.3594 L1.7344 -9.7188 L3.4531 -9.7812 L3.8594 -9.7812 L2.5156 -3.8125 Z" stroke="none"/></g><g text-rendering="optimizeLegibility" transform="translate(21.9844,19)" color-rendering="optimizeQuality" color-interpolation="linearRGB" image-rendering="optimizeQuality"><path d="M1.2188 -7.0625 L1.2188 -8.4219 L9.8594 -8.4219 L9.8594 -7.0625 L1.2188 -7.0625 ZM1.2188 -3.0156 L1.2188 -4.3594 L9.8594 -4.3594 L9.8594 -3.0156 L1.2188 -3.0156 Z" stroke="none"/></g><g text-rendering="optimizeLegibility" transform="translate(33.9844,19)" color-rendering="optimizeQuality" color-interpolation="linearRGB" image-rendering="optimizeQuality"><path d="M2.3125 -0.9062 L5.4375 -0.9062 Q5.875 -0.9062 6.1484 -0.9609 Q6.4219 -1.0156 6.6328 -1.1328 Q6.8438 -1.25 7.0312 -1.4297 Q7.2188 -1.6094 7.4062 -1.8516 Q7.5938 -2.0938 7.8281 -2.5 Q8.0625 -2.9062 8.3281 -3.5312 L9.2656 -3.5312 L8.5156 0 L-0.1406 0 L-0.0469 -0.4844 L8.8125 -12.4375 L5.8281 -12.4375 Q5.4062 -12.4375 5.1641 -12.3906 Q4.9219 -12.3438 4.7344 -12.25 Q4.5469 -12.1562 4.4062 -12.0391 Q4.2656 -11.9219 4.0625 -11.6797 Q3.8594 -11.4375 3.6172 -11.0547 Q3.375 -10.6719 3.0625 -10.0312 L2.125 -10.0312 L2.8594 -13.3281 L11.3125 -13.3281 L11.2031 -12.8594 L2.3125 -0.9062 Z" stroke="none"/></g><g text-rendering="optimizeLegibility" transform="translate(45.2969,23.8906)" color-rendering="optimizeQuality" color-interpolation="linearRGB" image-rendering="optimizeQuality"><path d="M2.5156 -3.8125 L2.7344 -3.8125 Q2.9531 -3.8125 3.1953 -3.8906 Q3.4375 -3.9688 3.7188 -4.1484 Q4 -4.3281 4.4688 -4.7031 Q4.8281 -4.9844 5 -5.1875 Q5.1719 -5.3906 5.2344 -5.5391 Q5.2969 -5.6875 5.2969 -5.8281 Q5.2969 -6.1562 4.8281 -6.2031 L4.9062 -6.5312 L7.1094 -6.5312 L7.25 -6.2031 Q6.6719 -5.6875 6.0469 -5.2031 L4.3125 -3.8438 L5.3438 -1.2656 Q5.4688 -0.9062 5.6172 -0.7188 Q5.7656 -0.5312 5.9531 -0.4453 Q6.1406 -0.3594 6.4375 -0.3281 L6.3594 0 L4.5312 0 L3.5312 -2.8125 Q3.4375 -3.0781 3.3672 -3.1719 Q3.2969 -3.2656 3.2109 -3.3047 Q3.125 -3.3438 2.9219 -3.3438 L2.4219 -3.3438 L1.7031 0 L0.5312 0 L2.2812 -7.8125 Q2.3594 -8.1562 2.3906 -8.3125 Q2.4219 -8.4688 2.4375 -8.5938 Q2.4531 -8.7188 2.4531 -8.8281 Q2.4531 -9.1094 2.2734 -9.2266 Q2.0938 -9.3438 1.6406 -9.3594 L1.7344 -9.7188 L3.4531 -9.7812 L3.8594 -9.7812 L2.5156 -3.8125 Z" stroke="none"/></g><g text-rendering="optimizeLegibility" transform="translate(52.7812,17.9124) matrix(1,0,0,1.2559,0,0)" color-rendering="optimizeQuality" color-interpolation="linearRGB" image-rendering="optimizeQuality"><path d="M7.2188 4.25 Q5.5625 4.25 4.5078 3.75 Q3.4531 3.25 2.8672 2.2344 Q2.2812 1.2188 2.0234 -0.4141 Q1.7656 -2.0469 1.7656 -4.8438 Q1.7656 -7.625 2.0234 -9.2656 Q2.2812 -10.9062 2.8672 -11.9453 Q3.4531 -12.9844 4.5078 -13.5 Q5.5625 -14.0156 7.2188 -14.0156 L7.2188 -13.2188 Q6.5312 -13.2188 6 -13.0938 Q5.4062 -12.9531 4.9844 -12.5625 Q4.5156 -12.1406 4.2344 -11.375 Q3.8906 -10.4688 3.7188 -8.9844 Q3.5469 -7.4062 3.5469 -4.9219 Q3.5469 -2.7188 3.6953 -1.1797 Q3.8438 0.3594 4.1875 1.3281 Q4.4531 2.1562 4.8594 2.6094 Q5.2188 3.0156 5.7188 3.2188 Q6.2969 3.4531 7.2188 3.4531 L7.2188 4.25 Z" stroke="none"/></g><g text-rendering="optimizeLegibility" transform="translate(62,19)" color-rendering="optimizeQuality" color-interpolation="linearRGB" image-rendering="optimizeQuality"><path d="M9.2031 0 L6.1406 0 L7.375 -4.9688 Q7.4844 -5.4375 7.6016 -6.0156 Q7.7188 -6.5938 7.7188 -7.0469 Q7.7188 -7.75 7.4766 -8.0469 Q7.2344 -8.3438 6.7344 -8.3438 Q6.3125 -8.3438 5.8438 -8.0312 Q5.375 -7.7188 4.8594 -7.0859 Q4.3438 -6.4531 3.9844 -5.8047 Q3.625 -5.1562 3.4219 -4.2344 L2.5469 0 L0.8438 0 L2.3281 -6.6719 Q2.3906 -6.8906 2.4688 -7.3359 Q2.5469 -7.7812 2.5469 -8.0625 Q2.5469 -8.3438 2.4688 -8.4922 Q2.3906 -8.6406 2.1875 -8.7188 Q1.9844 -8.7969 1.5 -8.8125 L1.625 -9.3438 L3.8438 -9.4219 L4.3906 -9.4219 L3.7344 -6.8906 L3.8594 -6.8438 Q4.8125 -8.1875 5.7031 -8.8438 Q6.5938 -9.5 7.4844 -9.5 Q8.4219 -9.5 8.9141 -8.9766 Q9.4062 -8.4531 9.4062 -7.4219 Q9.4062 -7.0781 9.3438 -6.6562 Q9.2812 -6.2344 9.2031 -5.9219 L8.375 -2.4375 Q8.2188 -1.7344 8.2188 -1.3281 Q8.2188 -1.0312 8.3125 -0.8672 Q8.4062 -0.7031 8.6094 -0.6172 Q8.8125 -0.5312 9.2812 -0.4844 L9.2031 0 Z" stroke="none"/></g><g text-rendering="optimizeLegibility" transform="translate(72.9844,17.9124) matrix(1,0,0,1.2559,0,0)" color-rendering="optimizeQuality" color-interpolation="linearRGB" image-rendering="optimizeQuality"><path d="M0.4219 -14.0156 Q2.0781 -14.0156 3.1328 -13.5156 Q4.1875 -13.0156 4.7734 -12 Q5.3594 -10.9844 5.6172 -9.3516 Q5.875 -7.7188 5.875 -4.9219 Q5.875 -2.1562 5.6172 -0.5078 Q5.3594 1.1406 4.7734 2.1797 Q4.1875 3.2188 3.1328 3.7344 Q2.0781 4.25 0.4219 4.25 L0.4219 3.4531 Q1.1094 3.4531 1.625 3.3281 Q2.2344 3.1875 2.6406 2.7969 Q3.1094 2.375 3.4062 1.6094 Q3.75 0.7031 3.9219 -0.7812 Q4.0938 -2.3594 4.0938 -4.8438 Q4.0938 -7.0469 3.9453 -8.5859 Q3.7969 -10.125 3.4531 -11.0938 Q3.1875 -11.9219 2.7812 -12.375 Q2.4062 -12.7812 1.9219 -12.9844 Q1.3438 -13.2188 0.4219 -13.2188 L0.4219 -14.0156 Z" stroke="none"/></g><g text-rendering="optimizeLegibility" transform="translate(80.8594,19)" color-rendering="optimizeQuality" color-interpolation="linearRGB" image-rendering="optimizeQuality"><path d="M10.9531 -9.9062 L10.0156 -9.9062 Q10.0156 -11.6875 9.7891 -12.0859 Q9.5625 -12.4844 8.7344 -12.4844 L5.7969 -12.4844 L3.6875 -2.8438 Q3.4531 -1.8125 3.4531 -1.3125 Q3.4531 -0.9062 3.6562 -0.7188 Q3.8594 -0.5312 4.5469 -0.4844 L4.4219 0 L0.4219 0 L0.5156 -0.4844 Q1.1094 -0.5625 1.3594 -0.9844 Q1.6094 -1.4062 1.9375 -2.9219 L3.6094 -10.4219 Q3.8125 -11.3906 3.8125 -11.9844 Q3.8125 -12.8438 2.8594 -12.8594 L2.9531 -13.3438 L11.7188 -13.3438 L10.9531 -9.9062 Z" stroke="none"/></g><g text-rendering="optimizeLegibility" transform="translate(92.5781,22.3203)" color-rendering="optimizeQuality" color-interpolation="linearRGB" image-rendering="optimizeQuality"><path d="M6.4531 0 L4.2969 0 L5.1562 -3.4688 Q5.25 -3.8125 5.3281 -4.2109 Q5.4062 -4.6094 5.4062 -4.9375 Q5.4062 -5.4219 5.2344 -5.6328 Q5.0625 -5.8438 4.7031 -5.8438 Q4.4219 -5.8438 4.0938 -5.625 Q3.7656 -5.4062 3.3984 -4.9609 Q3.0312 -4.5156 2.7812 -4.0625 Q2.5312 -3.6094 2.4062 -2.9531 L1.7812 0 L0.5938 0 L1.6406 -4.6719 Q1.6719 -4.8281 1.7266 -5.1328 Q1.7812 -5.4375 1.7812 -5.6406 Q1.7812 -5.8438 1.7266 -5.9453 Q1.6719 -6.0469 1.5312 -6.1016 Q1.3906 -6.1562 1.0469 -6.1719 L1.1406 -6.5312 L2.6875 -6.5938 L3.0781 -6.5938 L2.625 -4.8125 L2.7031 -4.7969 Q3.375 -5.7344 3.9922 -6.1875 Q4.6094 -6.6406 5.2344 -6.6406 Q5.9062 -6.6406 6.2422 -6.2734 Q6.5781 -5.9062 6.5781 -5.2031 Q6.5781 -4.9531 6.5391 -4.6641 Q6.5 -4.375 6.4375 -4.1406 L5.8594 -1.7031 Q5.75 -1.2188 5.75 -0.9375 Q5.75 -0.7188 5.8203 -0.6094 Q5.8906 -0.5 6.0312 -0.4375 Q6.1719 -0.375 6.5 -0.3281 L6.4531 0 Z" stroke="none"/></g><g text-rendering="optimizeLegibility" transform="translate(100.0625,19)" color-rendering="optimizeQuality" color-interpolation="linearRGB" image-rendering="optimizeQuality"><path d="M6.625 0 L6.7344 -0.4844 Q7.1719 -0.5156 7.4219 -0.7344 Q7.6719 -0.9531 7.7734 -1.3281 Q7.875 -1.7031 7.875 -2.3281 Q7.875 -2.7188 7.8438 -3.1719 L7.7812 -4.4219 L3.4844 -4.4219 L2.9375 -3.4688 Q2.5625 -2.7969 2.3828 -2.3125 Q2.2031 -1.8281 2.2031 -1.4531 Q2.2031 -0.6406 3.1875 -0.4844 L3.0938 0 L-0.9062 0 L-0.7969 -0.4844 Q-0.5 -0.5156 -0.2266 -0.7188 Q0.0469 -0.9219 0.3438 -1.3281 Q0.6406 -1.7344 1.1875 -2.6719 L7.4531 -13.4844 L8.9219 -13.4844 L9.625 -2.5938 Q9.6719 -1.8281 9.8047 -1.3906 Q9.9375 -0.9531 10.1562 -0.7422 Q10.375 -0.5312 10.7969 -0.4844 L10.6875 0 L6.625 0 ZM3.9219 -5.2812 L7.7344 -5.2812 L7.5625 -8.4219 Q7.5469 -9.0625 7.5234 -10.0312 Q7.5 -11 7.5 -11.4219 L7.3906 -11.4219 L3.9219 -5.2812 Z" stroke="none"/></g><g text-rendering="optimizeLegibility" transform="translate(112.25,17.9188) matrix(1,0,0,1.2572,0,0)" color-rendering="optimizeQuality" color-interpolation="linearRGB" image-rendering="optimizeQuality"><path d="M9.1875 -13.9688 L2.1406 4.2031 L0.6094 4.2031 L7.6719 -13.9688 L9.1875 -13.9688 Z" stroke="none"/></g><g text-rendering="optimizeLegibility" transform="translate(123.4375,19)" color-rendering="optimizeQuality" color-interpolation="linearRGB" image-rendering="optimizeQuality"><path d="M10.7812 -8.0156 L7.9062 -8.0156 L7.875 -7.9375 Q9.2188 -6.9844 9.2188 -5.1875 Q9.2188 -3.1719 7.8438 -1.5078 Q6.4688 0.1562 4.0625 0.1562 Q2.5781 0.1562 1.7031 -0.7891 Q0.8281 -1.7344 0.8281 -3.3281 Q0.8281 -4.9375 1.4609 -6.2031 Q2.0938 -7.4688 3.1172 -8.1953 Q4.1406 -8.9219 5.2578 -9.1328 Q6.375 -9.3438 8.3281 -9.3438 L11.0469 -9.3438 L10.7812 -8.0156 ZM6.6875 -7.9844 Q5.4375 -7.9844 4.625 -7.5 Q3.8125 -7.0156 3.1641 -5.8516 Q2.5156 -4.6875 2.5156 -2.875 Q2.5156 -1.7969 3.0156 -1.2031 Q3.5156 -0.6094 4.2656 -0.6094 Q5.6094 -0.6094 6.5469 -2.1328 Q7.4844 -3.6562 7.4844 -5.5156 Q7.4844 -6.9688 6.6875 -7.9844 Z" stroke="none"/></g><g text-rendering="optimizeLegibility" transform="translate(134.4844,24.0469)" color-rendering="optimizeQuality" color-interpolation="linearRGB" image-rendering="optimizeQuality"><path d="M2.5156 -3.8125 L2.7344 -3.8125 Q2.9531 -3.8125 3.1953 -3.8906 Q3.4375 -3.9688 3.7188 -4.1484 Q4 -4.3281 4.4688 -4.7031 Q4.8281 -4.9844 5 -5.1875 Q5.1719 -5.3906 5.2344 -5.5391 Q5.2969 -5.6875 5.2969 -5.8281 Q5.2969 -6.1562 4.8281 -6.2031 L4.9062 -6.5312 L7.1094 -6.5312 L7.25 -6.2031 Q6.6719 -5.6875 6.0469 -5.2031 L4.3125 -3.8438 L5.3438 -1.2656 Q5.4688 -0.9062 5.6172 -0.7188 Q5.7656 -0.5312 5.9531 -0.4453 Q6.1406 -0.3594 6.4375 -0.3281 L6.3594 0 L4.5312 0 L3.5312 -2.8125 Q3.4375 -3.0781 3.3672 -3.1719 Q3.2969 -3.2656 3.2109 -3.3047 Q3.125 -3.3438 2.9219 -3.3438 L2.4219 -3.3438 L1.7031 0 L0.5312 0 L2.2812 -7.8125 Q2.3594 -8.1562 2.3906 -8.3125 Q2.4219 -8.4688 2.4375 -8.5938 Q2.4531 -8.7188 2.4531 -8.8281 Q2.4531 -9.1094 2.2734 -9.2266 Q2.0938 -9.3438 1.6406 -9.3594 L1.7344 -9.7188 L3.4531 -9.7812 L3.8594 -9.7812 L2.5156 -3.8125 Z" stroke="none"/></g><g text-rendering="optimizeLegibility" transform="translate(141.9688,17.9124) matrix(1,0,0,1.2559,0,0)" color-rendering="optimizeQuality" color-interpolation="linearRGB" image-rendering="optimizeQuality"><path d="M7.2188 4.25 Q5.5625 4.25 4.5078 3.75 Q3.4531 3.25 2.8672 2.2344 Q2.2812 1.2188 2.0234 -0.4141 Q1.7656 -2.0469 1.7656 -4.8438 Q1.7656 -7.625 2.0234 -9.2656 Q2.2812 -10.9062 2.8672 -11.9453 Q3.4531 -12.9844 4.5078 -13.5 Q5.5625 -14.0156 7.2188 -14.0156 L7.2188 -13.2188 Q6.5312 -13.2188 6 -13.0938 Q5.4062 -12.9531 4.9844 -12.5625 Q4.5156 -12.1406 4.2344 -11.375 Q3.8906 -10.4688 3.7188 -8.9844 Q3.5469 -7.4062 3.5469 -4.9219 Q3.5469 -2.7188 3.6953 -1.1797 Q3.8438 0.3594 4.1875 1.3281 Q4.4531 2.1562 4.8594 2.6094 Q5.2188 3.0156 5.7188 3.2188 Q6.2969 3.4531 7.2188 3.4531 L7.2188 4.25 Z" stroke="none"/></g><g text-rendering="optimizeLegibility" transform="translate(151.1875,19)" color-rendering="optimizeQuality" color-interpolation="linearRGB" image-rendering="optimizeQuality"><path d="M9.2031 0 L6.1406 0 L7.375 -4.9688 Q7.4844 -5.4375 7.6016 -6.0156 Q7.7188 -6.5938 7.7188 -7.0469 Q7.7188 -7.75 7.4766 -8.0469 Q7.2344 -8.3438 6.7344 -8.3438 Q6.3125 -8.3438 5.8438 -8.0312 Q5.375 -7.7188 4.8594 -7.0859 Q4.3438 -6.4531 3.9844 -5.8047 Q3.625 -5.1562 3.4219 -4.2344 L2.5469 0 L0.8438 0 L2.3281 -6.6719 Q2.3906 -6.8906 2.4688 -7.3359 Q2.5469 -7.7812 2.5469 -8.0625 Q2.5469 -8.3438 2.4688 -8.4922 Q2.3906 -8.6406 2.1875 -8.7188 Q1.9844 -8.7969 1.5 -8.8125 L1.625 -9.3438 L3.8438 -9.4219 L4.3906 -9.4219 L3.7344 -6.8906 L3.8594 -6.8438 Q4.8125 -8.1875 5.7031 -8.8438 Q6.5938 -9.5 7.4844 -9.5 Q8.4219 -9.5 8.9141 -8.9766 Q9.4062 -8.4531 9.4062 -7.4219 Q9.4062 -7.0781 9.3438 -6.6562 Q9.2812 -6.2344 9.2031 -5.9219 L8.375 -2.4375 Q8.2188 -1.7344 8.2188 -1.3281 Q8.2188 -1.0312 8.3125 -0.8672 Q8.4062 -0.7031 8.6094 -0.6172 Q8.8125 -0.5312 9.2812 -0.4844 L9.2031 0 Z" stroke="none"/></g><g text-rendering="optimizeLegibility" transform="translate(162.1719,17.9124) matrix(1,0,0,1.2559,0,0)" color-rendering="optimizeQuality" color-interpolation="linearRGB" image-rendering="optimizeQuality"><path d="M0.4219 -14.0156 Q2.0781 -14.0156 3.1328 -13.5156 Q4.1875 -13.0156 4.7734 -12 Q5.3594 -10.9844 5.6172 -9.3516 Q5.875 -7.7188 5.875 -4.9219 Q5.875 -2.1562 5.6172 -0.5078 Q5.3594 1.1406 4.7734 2.1797 Q4.1875 3.2188 3.1328 3.7344 Q2.0781 4.25 0.4219 4.25 L0.4219 3.4531 Q1.1094 3.4531 1.625 3.3281 Q2.2344 3.1875 2.6406 2.7969 Q3.1094 2.375 3.4062 1.6094 Q3.75 0.7031 3.9219 -0.7812 Q4.0938 -2.3594 4.0938 -4.8438 Q4.0938 -7.0469 3.9453 -8.5859 Q3.7969 -10.125 3.4531 -11.0938 Q3.1875 -11.9219 2.7812 -12.375 Q2.4062 -12.7812 1.9219 -12.9844 Q1.3438 -13.2188 0.4219 -13.2188 L0.4219 -14.0156 Z" stroke="none"/></g></g></svg>