<?xml version="1.0" encoding="UTF-8" standalone="no"?><svg xmlns="http://www.w3.org/2000/svg" xmlns:xlink="http://www.w3.org/1999/xlink" stroke-dasharray="none" shape-rendering="auto" font-family="'Dialog'" width="179.812600" text-rendering="auto" fill-opacity="1" contentScriptType="text/ecmascript" color-interpolation="auto" color-rendering="auto" preserveAspectRatio="xMidYMid meet" font-size="12" fill="black" stroke="black" image-rendering="auto" stroke-miterlimit="10" zoomAndPan="magnify" version="1.0" stroke-linecap="square" stroke-linejoin="miter" contentStyleType="text/css" font-style="normal" height="29" stroke-width="1" stroke-dashoffset="0" font-weight="normal" stroke-opacity="1" y="-7.000000"><!--Converted from MathML using JEuclid--><defs id="genericDefs"/><g><g text-rendering="optimizeLegibility" stroke-width="1.6667" color-interpolation="linearRGB" color-rendering="optimizeQuality" image-rendering="optimizeQuality"><line y2="16.4714" fill="none" x1="1.6778" x2="23.2715" y1="16.4714"/><path d="M5.9531 -7.8438 Q6 -8.0781 6.0391 -8.3516 Q6.0781 -8.625 6.0781 -8.8281 Q6.0781 -9.0312 6.0078 -9.1406 Q5.9375 -9.25 5.7969 -9.2969 Q5.6562 -9.3438 5.2969 -9.3594 L5.375 -9.7188 L7.0938 -9.7812 L7.5 -9.7812 L5.7188 -1.9062 Q5.625 -1.4688 5.5938 -1.2578 Q5.5625 -1.0469 5.5625 -0.9062 Q5.5625 -0.625 5.7188 -0.5 Q5.875 -0.375 6.3125 -0.3281 L6.25 0 L4.2969 0 L4.7344 -1.7188 L4.6406 -1.75 Q3.9844 -0.7812 3.3984 -0.3359 Q2.8125 0.1094 2.1562 0.1094 Q1.4062 0.1094 0.9922 -0.4609 Q0.5781 -1.0312 0.5781 -2.0625 Q0.5781 -2.7188 0.7266 -3.375 Q0.875 -4.0312 1.1797 -4.625 Q1.4844 -5.2188 1.9062 -5.6719 Q2.3281 -6.125 2.8906 -6.3906 Q3.4531 -6.6562 4.1094 -6.6562 Q4.5156 -6.6562 4.8672 -6.5703 Q5.2188 -6.4844 5.5938 -6.2656 L5.9531 -7.8438 ZM5.0938 -4.1562 Q5.2031 -4.6562 5.2031 -5.0938 Q5.2031 -5.625 4.9766 -5.8672 Q4.75 -6.1094 4.2188 -6.1094 Q3.9375 -6.1094 3.6797 -6.0156 Q3.4219 -5.9219 3.1562 -5.7109 Q2.8906 -5.5 2.6484 -5.1484 Q2.4062 -4.7969 2.2031 -4.2969 Q2 -3.7969 1.8906 -3.2266 Q1.7812 -2.6562 1.7812 -2.125 Q1.7812 -1.4062 1.9766 -1.0547 Q2.1719 -0.7031 2.625 -0.7031 Q2.8438 -0.7031 3.0703 -0.7969 Q3.2969 -0.8906 3.5781 -1.1484 Q3.8594 -1.4062 4.2188 -1.9062 Q4.5469 -2.3594 4.7344 -2.8125 Q4.9219 -3.2656 5.0312 -3.875 L5.0938 -4.1562 Z" stroke-width="1" transform="translate(1.6778,10.4681)" stroke="none"/></g><g text-rendering="optimizeLegibility" transform="translate(9.1778,10.4681)" color-rendering="optimizeQuality" color-interpolation="linearRGB" image-rendering="optimizeQuality"><path d="M4.0156 -9.3281 L3.9375 -9 Q3.6562 -8.9688 3.5 -8.8281 Q3.3438 -8.6875 3.3438 -8.3906 Q3.3438 -7.9844 3.5469 -7.2969 L4.2656 -4.7188 L5.9531 -6.9688 Q6.3281 -7.4688 6.4922 -7.7578 Q6.6562 -8.0469 6.7344 -8.2656 Q6.7812 -8.4219 6.7812 -8.5781 Q6.7812 -8.7656 6.6484 -8.8672 Q6.5156 -8.9688 6.2812 -9 L6.3438 -9.3281 L8.9219 -9.3281 L8.8438 -9 Q8.6719 -8.9688 8.5547 -8.8984 Q8.4375 -8.8281 8.2812 -8.6875 Q8.125 -8.5469 7.8672 -8.2266 Q7.6094 -7.9062 7.1875 -7.375 L4.5312 -3.9219 L4.1094 -1.9844 Q4.0469 -1.7188 4.0234 -1.5625 Q4 -1.4062 3.9844 -1.2344 Q3.9688 -1.0625 3.9688 -0.9219 Q3.9688 -0.7188 4.0391 -0.5938 Q4.1094 -0.4688 4.2422 -0.4141 Q4.375 -0.3594 4.7031 -0.3281 L4.6406 0 L1.75 0 L1.8281 -0.3281 Q2.1094 -0.375 2.2344 -0.4453 Q2.3594 -0.5156 2.4609 -0.6562 Q2.5625 -0.7969 2.6641 -1.1094 Q2.7656 -1.4219 2.9062 -2.0312 L3.2969 -3.9219 L2.3125 -7.375 Q2.0781 -8.1719 1.9531 -8.4531 Q1.8281 -8.7344 1.6797 -8.8516 Q1.5312 -8.9688 1.2969 -9 L1.375 -9.3281 L4.0156 -9.3281 Z" stroke="none"/></g><g text-rendering="optimizeLegibility" transform="translate(18.0997,13.9603)" color-rendering="optimizeQuality" color-interpolation="linearRGB" image-rendering="optimizeQuality"><path d="M1.7969 -2.7188 L1.9531 -2.7188 Q2.1094 -2.7188 2.2812 -2.7812 Q2.4531 -2.8438 2.6562 -2.9688 Q2.8594 -3.0938 3.1875 -3.3594 Q3.4531 -3.5625 3.5703 -3.7031 Q3.6875 -3.8438 3.7344 -3.9531 Q3.7812 -4.0625 3.7812 -4.1562 Q3.7812 -4.4062 3.4531 -4.4219 L3.5 -4.6719 L5.0781 -4.6719 L5.1719 -4.4219 Q4.7656 -4.0625 4.3125 -3.7188 L3.0781 -2.75 L3.8125 -0.9062 Q3.9062 -0.6562 4.0078 -0.5156 Q4.1094 -0.375 4.25 -0.3125 Q4.3906 -0.25 4.5938 -0.2344 L4.5469 0 L3.2344 0 L2.5312 -2 Q2.4531 -2.2031 2.4062 -2.2656 Q2.3594 -2.3281 2.2969 -2.3594 Q2.2344 -2.3906 2.0938 -2.3906 L1.7344 -2.3906 L1.2188 0 L0.375 0 L1.625 -5.5781 Q1.6875 -5.8281 1.7109 -5.9375 Q1.7344 -6.0469 1.7422 -6.1406 Q1.75 -6.2344 1.75 -6.2969 Q1.75 -6.5156 1.625 -6.5938 Q1.5 -6.6719 1.1719 -6.6875 L1.2344 -6.9375 L2.4688 -6.9844 L2.75 -6.9844 L1.7969 -2.7188 Z" stroke="none"/></g><g text-rendering="optimizeLegibility" transform="translate(6.0528,28.7638)" color-rendering="optimizeQuality" color-interpolation="linearRGB" image-rendering="optimizeQuality"><path d="M5.9531 -7.8438 Q6 -8.0781 6.0391 -8.3516 Q6.0781 -8.625 6.0781 -8.8281 Q6.0781 -9.0312 6.0078 -9.1406 Q5.9375 -9.25 5.7969 -9.2969 Q5.6562 -9.3438 5.2969 -9.3594 L5.375 -9.7188 L7.0938 -9.7812 L7.5 -9.7812 L5.7188 -1.9062 Q5.625 -1.4688 5.5938 -1.2578 Q5.5625 -1.0469 5.5625 -0.9062 Q5.5625 -0.625 5.7188 -0.5 Q5.875 -0.375 6.3125 -0.3281 L6.25 0 L4.2969 0 L4.7344 -1.7188 L4.6406 -1.75 Q3.9844 -0.7812 3.3984 -0.3359 Q2.8125 0.1094 2.1562 0.1094 Q1.4062 0.1094 0.9922 -0.4609 Q0.5781 -1.0312 0.5781 -2.0625 Q0.5781 -2.7188 0.7266 -3.375 Q0.875 -4.0312 1.1797 -4.625 Q1.4844 -5.2188 1.9062 -5.6719 Q2.3281 -6.125 2.8906 -6.3906 Q3.4531 -6.6562 4.1094 -6.6562 Q4.5156 -6.6562 4.8672 -6.5703 Q5.2188 -6.4844 5.5938 -6.2656 L5.9531 -7.8438 ZM5.0938 -4.1562 Q5.2031 -4.6562 5.2031 -5.0938 Q5.2031 -5.625 4.9766 -5.8672 Q4.75 -6.1094 4.2188 -6.1094 Q3.9375 -6.1094 3.6797 -6.0156 Q3.4219 -5.9219 3.1562 -5.7109 Q2.8906 -5.5 2.6484 -5.1484 Q2.4062 -4.7969 2.2031 -4.2969 Q2 -3.7969 1.8906 -3.2266 Q1.7812 -2.6562 1.7812 -2.125 Q1.7812 -1.4062 1.9766 -1.0547 Q2.1719 -0.7031 2.625 -0.7031 Q2.8438 -0.7031 3.0703 -0.7969 Q3.2969 -0.8906 3.5781 -1.1484 Q3.8594 -1.4062 4.2188 -1.9062 Q4.5469 -2.3594 4.7344 -2.8125 Q4.9219 -3.2656 5.0312 -3.875 L5.0938 -4.1562 Z" stroke="none"/></g><g text-rendering="optimizeLegibility" transform="translate(13.5528,28.7638)" color-rendering="optimizeQuality" color-interpolation="linearRGB" image-rendering="optimizeQuality"><path d="M4.6094 -1.2656 Q4.0469 -0.5781 3.5 -0.2344 Q2.9531 0.1094 2.3438 0.1094 Q1.625 0.1094 1.2656 -0.2578 Q0.9062 -0.625 0.9062 -1.3281 Q0.9062 -1.7656 1.0312 -2.2969 L1.875 -5.8438 L0.8594 -5.8438 L0.9375 -6.1875 Q1.3438 -6.2344 1.5781 -6.3672 Q1.8125 -6.5 1.9766 -6.7031 Q2.1406 -6.9062 2.2734 -7.2422 Q2.4062 -7.5781 2.6094 -8.2188 L3.5625 -8.2188 L3.1719 -6.5312 L5.3438 -6.5312 L5.2031 -5.8438 L3.0156 -5.8438 L2.3594 -3.1875 Q2.0938 -2.0781 2.0938 -1.5312 Q2.0938 -1.125 2.2734 -0.9062 Q2.4531 -0.6875 2.7969 -0.6875 Q3.125 -0.6875 3.4688 -0.9297 Q3.8125 -1.1719 4.2188 -1.6719 L4.6094 -1.2656 Z" stroke="none"/></g><g text-rendering="optimizeLegibility" transform="translate(27.3972,23.6914)" color-rendering="optimizeQuality" color-interpolation="linearRGB" image-rendering="optimizeQuality"><path d="M1.2188 -7.0625 L1.2188 -8.4219 L9.8594 -8.4219 L9.8594 -7.0625 L1.2188 -7.0625 ZM1.2188 -3.0156 L1.2188 -4.3594 L9.8594 -4.3594 L9.8594 -3.0156 L1.2188 -3.0156 Z" stroke="none"/></g><g text-rendering="optimizeLegibility" stroke-width="1.6667" color-interpolation="linearRGB" color-rendering="optimizeQuality" image-rendering="optimizeQuality"><line y2="16.4714" fill="none" x1="40.9344" x2="74.5281" y1="16.4714"/><path d="M4.7656 -1.1719 L4.75 -1.1719 Q4.0469 0.1094 2.5938 0.1094 Q1.7031 0.1094 1.1562 -0.4453 Q0.6094 -1 0.6094 -2.0469 Q0.6094 -3.3438 1.4219 -4.5391 Q2.2344 -5.7344 3.7188 -6.6562 L4 -6.1875 Q3.0312 -5.4531 2.4141 -4.2812 Q1.7969 -3.1094 1.7969 -1.9844 Q1.7969 -1.1875 2.1172 -0.8125 Q2.4375 -0.4375 2.9531 -0.4375 Q3.4219 -0.4375 3.8047 -0.8594 Q4.1875 -1.2812 4.3438 -2.0469 L4.8594 -4.625 L6.0156 -4.625 L5.4688 -1.9844 Q5.4062 -1.7031 5.4062 -1.4531 Q5.4062 -0.9688 5.6406 -0.7031 Q5.875 -0.4375 6.2969 -0.4375 Q7.125 -0.4375 7.6953 -1.4844 Q8.2656 -2.5312 8.2656 -4.0469 Q8.2656 -5.4688 7.7031 -6.25 L8.0938 -6.6562 Q9.4688 -5.3438 9.4688 -3.75 Q9.4688 -2.1875 8.5625 -1.0391 Q7.6562 0.1094 6.2812 0.1094 Q5 0.1094 4.7656 -1.1719 Z" stroke-width="1" transform="translate(40.9344,10.3587)" stroke="none"/></g><g text-rendering="optimizeLegibility" transform="translate(44.2469,8.6331)" color-rendering="optimizeQuality" color-interpolation="linearRGB" image-rendering="optimizeQuality"><path d="M1.875 -6.5781 L1.875 -5.6406 L0.9688 -5.6406 L0.9688 -6.5781 L1.875 -6.5781 Z" stroke="none"/></g><g text-rendering="optimizeLegibility" transform="translate(50.4031,13.9603)" color-rendering="optimizeQuality" color-interpolation="linearRGB" image-rendering="optimizeQuality"><path d="M1.7969 -2.7188 L1.9531 -2.7188 Q2.1094 -2.7188 2.2812 -2.7812 Q2.4531 -2.8438 2.6562 -2.9688 Q2.8594 -3.0938 3.1875 -3.3594 Q3.4531 -3.5625 3.5703 -3.7031 Q3.6875 -3.8438 3.7344 -3.9531 Q3.7812 -4.0625 3.7812 -4.1562 Q3.7812 -4.4062 3.4531 -4.4219 L3.5 -4.6719 L5.0781 -4.6719 L5.1719 -4.4219 Q4.7656 -4.0625 4.3125 -3.7188 L3.0781 -2.75 L3.8125 -0.9062 Q3.9062 -0.6562 4.0078 -0.5156 Q4.1094 -0.375 4.25 -0.3125 Q4.3906 -0.25 4.5938 -0.2344 L4.5469 0 L3.2344 0 L2.5312 -2 Q2.4531 -2.2031 2.4062 -2.2656 Q2.3594 -2.3281 2.2969 -2.3594 Q2.2344 -2.3906 2.0938 -2.3906 L1.7344 -2.3906 L1.2188 0 L0.375 0 L1.625 -5.5781 Q1.6875 -5.8281 1.7109 -5.9375 Q1.7344 -6.0469 1.7422 -6.1406 Q1.75 -6.2344 1.75 -6.2969 Q1.75 -6.5156 1.625 -6.5938 Q1.5 -6.6719 1.1719 -6.6875 L1.2344 -6.9375 L2.4688 -6.9844 L2.75 -6.9844 L1.7969 -2.7188 Z" stroke="none"/></g><g text-rendering="optimizeLegibility" transform="translate(55.575,10.3587)" color-rendering="optimizeQuality" color-interpolation="linearRGB" image-rendering="optimizeQuality"><path d="M7.1875 0.0938 L7.1875 -4.9219 Q7.1875 -6.125 7.25 -7.4531 L7.1719 -7.4531 L3.5156 0.0938 L2.4531 0.0938 L2.125 -7.5156 Q2.0938 -8.0781 2.0078 -8.3828 Q1.9219 -8.6875 1.7578 -8.8203 Q1.5938 -8.9531 1.3125 -9 L1.3906 -9.3281 L4.2344 -9.3281 L4.1562 -9 Q3.8594 -8.9688 3.6797 -8.8125 Q3.5 -8.6562 3.4375 -8.375 Q3.375 -8.0938 3.375 -7.5938 L3.375 -7.3594 Q3.375 -7.2344 3.375 -7.1094 L3.4375 -4.4375 Q3.4531 -4.1406 3.4531 -3.5312 L3.4531 -2.9844 L3.4375 -1.5469 L3.5 -1.5469 L7.2812 -9.3281 L8.3125 -9.3281 L8.3125 -4.7656 Q8.3125 -3.9531 8.2969 -3.1875 L8.2656 -1.5469 L8.3281 -1.5469 L11.0938 -6.9062 Q11.25 -7.2031 11.4219 -7.6094 Q11.5938 -8.0156 11.5938 -8.3125 Q11.5938 -8.5938 11.4375 -8.7656 Q11.2812 -8.9375 10.9219 -9 L11 -9.3281 L13.7812 -9.3281 L13.7188 -9 Q13.4062 -8.9531 13.1172 -8.6484 Q12.8281 -8.3438 12.3438 -7.4688 L8.2344 0.0938 L7.1875 0.0938 Z" stroke="none"/></g><g text-rendering="optimizeLegibility" transform="translate(69.3562,13.9447)" color-rendering="optimizeQuality" color-interpolation="linearRGB" image-rendering="optimizeQuality"><path d="M1.7969 -2.7188 L1.9531 -2.7188 Q2.1094 -2.7188 2.2812 -2.7812 Q2.4531 -2.8438 2.6562 -2.9688 Q2.8594 -3.0938 3.1875 -3.3594 Q3.4531 -3.5625 3.5703 -3.7031 Q3.6875 -3.8438 3.7344 -3.9531 Q3.7812 -4.0625 3.7812 -4.1562 Q3.7812 -4.4062 3.4531 -4.4219 L3.5 -4.6719 L5.0781 -4.6719 L5.1719 -4.4219 Q4.7656 -4.0625 4.3125 -3.7188 L3.0781 -2.75 L3.8125 -0.9062 Q3.9062 -0.6562 4.0078 -0.5156 Q4.1094 -0.375 4.25 -0.3125 Q4.3906 -0.25 4.5938 -0.2344 L4.5469 0 L3.2344 0 L2.5312 -2 Q2.4531 -2.2031 2.4062 -2.2656 Q2.3594 -2.3281 2.2969 -2.3594 Q2.2344 -2.3906 2.0938 -2.3906 L1.7344 -2.3906 L1.2188 0 L0.375 0 L1.625 -5.5781 Q1.6875 -5.8281 1.7109 -5.9375 Q1.7344 -6.0469 1.7422 -6.1406 Q1.75 -6.2344 1.75 -6.2969 Q1.75 -6.5156 1.625 -6.5938 Q1.5 -6.6719 1.1719 -6.6875 L1.2344 -6.9375 L2.4688 -6.9844 L2.75 -6.9844 L1.7969 -2.7188 Z" stroke="none"/></g><g text-rendering="optimizeLegibility" transform="translate(54.4656,25.6388)" color-rendering="optimizeQuality" color-interpolation="linearRGB" image-rendering="optimizeQuality"><path d="M1.6406 -0.5 L0.875 2.9531 L-0.25 2.9531 L1.125 -3.2344 Q1.875 -6.6562 4.6406 -6.6562 Q5.6406 -6.6562 6.2109 -6.0703 Q6.7812 -5.4844 6.7812 -4.4062 Q6.7812 -2.8125 5.7578 -1.3516 Q4.7344 0.1094 3.0781 0.1094 Q2.25 0.1094 1.6406 -0.5 ZM2.1562 -2.8594 L1.875 -1.5781 Q1.8594 -1.4844 1.8594 -1.375 Q1.8594 -1.0312 2.25 -0.7344 Q2.6406 -0.4375 3.1406 -0.4375 Q4.1094 -0.4375 4.8438 -1.7422 Q5.5781 -3.0469 5.5781 -4.5625 Q5.5781 -6.1094 4.4219 -6.1094 Q2.8594 -6.1094 2.1562 -2.8594 Z" stroke="none"/></g><g text-rendering="optimizeLegibility" transform="translate(91.2948,23.6914)" color-rendering="optimizeQuality" color-interpolation="linearRGB" image-rendering="optimizeQuality"><path d="M3.5938 -5.4375 L3.9062 -5.4375 Q4.2031 -5.4375 4.5547 -5.5547 Q4.9062 -5.6719 5.3125 -5.9219 Q5.7188 -6.1719 6.3906 -6.7031 Q6.8906 -7.125 7.1406 -7.4141 Q7.3906 -7.7031 7.4766 -7.9141 Q7.5625 -8.125 7.5625 -8.3281 Q7.5625 -8.7969 6.8906 -8.8594 L7 -9.3438 L10.1719 -9.3438 L10.3594 -8.8594 Q9.5469 -8.125 8.6406 -7.4219 L6.1562 -5.5 L7.625 -1.7969 Q7.8281 -1.2969 8.0312 -1.0312 Q8.2344 -0.7656 8.5 -0.6406 Q8.7656 -0.5156 9.1875 -0.4844 L9.0781 0 L6.4688 0 L5.0469 -4.0156 Q4.9062 -4.3906 4.8125 -4.5312 Q4.7188 -4.6719 4.5938 -4.7266 Q4.4688 -4.7812 4.1875 -4.7812 L3.4531 -4.7812 L2.4375 0 L0.75 0 L3.2656 -11.1562 Q3.375 -11.6562 3.4141 -11.875 Q3.4531 -12.0938 3.4766 -12.2812 Q3.5 -12.4688 3.5 -12.6094 Q3.5 -13.0156 3.25 -13.1797 Q3 -13.3438 2.3594 -13.375 L2.4688 -13.875 L4.9375 -13.9688 L5.5156 -13.9688 L3.5938 -5.4375 Z" stroke="none"/></g><g text-rendering="optimizeLegibility" transform="translate(102.4354,23.6914)" color-rendering="optimizeQuality" color-interpolation="linearRGB" image-rendering="optimizeQuality"><path d="M1.2188 -7.0625 L1.2188 -8.4219 L9.8594 -8.4219 L9.8594 -7.0625 L1.2188 -7.0625 ZM1.2188 -3.0156 L1.2188 -4.3594 L9.8594 -4.3594 L9.8594 -3.0156 L1.2188 -3.0156 Z" stroke="none"/></g><g text-rendering="optimizeLegibility" transform="translate(114.2948,23.6914)" color-rendering="optimizeQuality" color-interpolation="linearRGB" image-rendering="optimizeQuality"><path d="M6.7812 -2.5469 Q6.7812 -1.9844 6.8516 -1.6953 Q6.9219 -1.4062 7.0781 -1.2266 Q7.2344 -1.0469 7.5391 -0.9453 Q7.8438 -0.8438 8.3047 -0.7891 Q8.7656 -0.7344 9.5156 -0.7188 L9.5156 0 L2.2969 0 L2.2969 -0.7188 Q3.375 -0.7656 3.8438 -0.8438 Q4.3125 -0.9219 4.5547 -1.0938 Q4.7969 -1.2656 4.9062 -1.5625 Q5.0156 -1.8594 5.0156 -2.5469 L5.0156 -10.4688 Q5.0156 -10.8594 4.8828 -11.0391 Q4.75 -11.2188 4.4844 -11.2188 Q4.1719 -11.2188 3.5938 -10.8984 Q3.0156 -10.5781 2.1719 -10.0156 L1.7344 -10.7656 L6.3125 -13.4844 L6.8438 -13.4844 Q6.7812 -12.5469 6.7812 -10.8906 L6.7812 -2.5469 Z" stroke="none"/></g><g text-rendering="optimizeLegibility" transform="translate(125.576,23.6914)" color-rendering="optimizeQuality" color-interpolation="linearRGB" image-rendering="optimizeQuality"><path d="M3.0156 -2.2656 Q3.1562 -1.5781 3.1562 -0.9219 Q3.1562 -0.2344 2.9219 0.3359 Q2.6875 0.9062 2.1719 1.4609 Q1.6562 2.0156 0.7656 2.7031 L0.2344 2.0938 Q0.7344 1.625 0.9609 1.25 Q1.1875 0.875 1.2812 0.3984 Q1.375 -0.0781 1.375 -0.7969 Q1.375 -1.5469 1.3125 -2.2656 L3.0156 -2.2656 Z" stroke="none"/></g><g text-rendering="optimizeLegibility" transform="translate(127.8729,23.6914)" color-rendering="optimizeQuality" color-interpolation="linearRGB" image-rendering="optimizeQuality"><path d="M8.8125 -4.5312 L8.8125 0 L4.8594 0 L4.8594 -4.5312 L8.8125 -4.5312 ZM18.375 -4.5312 L18.375 0 L14.4375 0 L14.4375 -4.5312 L18.375 -4.5312 ZM27.9531 -4.5312 L27.9531 0 L24 0 L24 -4.5312 L27.9531 -4.5312 Z" stroke="none"/></g><g text-rendering="optimizeLegibility" transform="translate(159.5917,23.6914)" color-rendering="optimizeQuality" color-interpolation="linearRGB" image-rendering="optimizeQuality"><path d="M3.0156 -2.2656 Q3.1562 -1.5781 3.1562 -0.9219 Q3.1562 -0.2344 2.9219 0.3359 Q2.6875 0.9062 2.1719 1.4609 Q1.6562 2.0156 0.7656 2.7031 L0.2344 2.0938 Q0.7344 1.625 0.9609 1.25 Q1.1875 0.875 1.2812 0.3984 Q1.375 -0.0781 1.375 -0.7969 Q1.375 -1.5469 1.3125 -2.2656 L3.0156 -2.2656 Z" stroke="none"/></g><g text-rendering="optimizeLegibility" transform="translate(164.7479,23.6914)" color-rendering="optimizeQuality" color-interpolation="linearRGB" image-rendering="optimizeQuality"><path d="M4.6562 -7.3125 L4.9688 -7.3125 Q5.375 -7.3125 5.7188 -7.4453 Q6.0625 -7.5781 6.5078 -7.9375 Q6.9531 -8.2969 7.9375 -9.2656 Q8.9219 -10.2344 9.3359 -10.7344 Q9.75 -11.2344 9.9375 -11.6016 Q10.125 -11.9688 10.125 -12.2812 Q10.125 -12.5156 9.9297 -12.6719 Q9.7344 -12.8281 9.375 -12.8594 L9.4844 -13.3281 L13.6719 -13.3281 L13.5625 -12.8594 Q13.1719 -12.7969 12.6797 -12.4453 Q12.1875 -12.0938 11.1719 -11.0938 L7.3906 -7.4062 L9.4688 -2.4062 Q9.7344 -1.7656 9.8906 -1.4688 Q10.0469 -1.1719 10.2344 -0.9688 Q10.4219 -0.7656 10.6562 -0.6484 Q10.8906 -0.5312 11.2188 -0.4844 L11.1094 0 L7.3438 0 L7.4531 -0.4844 Q7.9844 -0.5312 7.9844 -0.9531 Q7.9844 -1.0781 7.9609 -1.2109 Q7.9375 -1.3438 7.8516 -1.6094 Q7.7656 -1.875 7.625 -2.25 L6.3438 -5.3594 Q6.125 -5.9062 5.9609 -6.1328 Q5.7969 -6.3594 5.6094 -6.4453 Q5.4219 -6.5312 5.0312 -6.5312 L4.4844 -6.5312 L3.6719 -2.8438 Q3.5469 -2.25 3.5078 -1.9141 Q3.4688 -1.5781 3.4688 -1.3125 Q3.4688 -0.875 3.6875 -0.6953 Q3.9062 -0.5156 4.4219 -0.4844 L4.3125 0 L0.4062 0 L0.5156 -0.4844 Q0.8906 -0.5312 1.0781 -0.6641 Q1.2656 -0.7969 1.3906 -1.0312 Q1.5156 -1.2656 1.625 -1.6016 Q1.7344 -1.9375 1.9375 -2.9062 L3.6094 -10.4375 Q3.7031 -10.875 3.7578 -11.2891 Q3.8125 -11.7031 3.8125 -12 Q3.8125 -12.4688 3.5781 -12.6484 Q3.3438 -12.8281 2.8594 -12.8594 L2.9688 -13.3281 L6.875 -13.3281 L6.7656 -12.8594 Q6.3906 -12.7812 6.2344 -12.6797 Q6.0781 -12.5781 5.9453 -12.3828 Q5.8125 -12.1875 5.6797 -11.7734 Q5.5469 -11.3594 5.3438 -10.4219 L4.6562 -7.3125 Z" stroke="none"/></g></g></svg>