<?xml version="1.0" encoding="UTF-8" standalone="no"?><svg xmlns="http://www.w3.org/2000/svg" xmlns:xlink="http://www.w3.org/1999/xlink" stroke-dasharray="none" shape-rendering="auto" font-family="'Dialog'" width="74.812600" text-rendering="auto" fill-opacity="1" contentScriptType="text/ecmascript" color-interpolation="auto" color-rendering="auto" preserveAspectRatio="xMidYMid meet" font-size="12" fill="black" stroke="black" image-rendering="auto" stroke-miterlimit="10" zoomAndPan="magnify" version="1.0" stroke-linecap="square" stroke-linejoin="miter" contentStyleType="text/css" font-style="normal" height="19" stroke-width="1" stroke-dashoffset="0" font-weight="normal" stroke-opacity="1" y="-5.000000"><!--Converted from MathML using JEuclid--><defs id="genericDefs"/><g><g text-rendering="optimizeLegibility" transform="translate(0,14)" color-rendering="optimizeQuality" color-interpolation="linearRGB" image-rendering="optimizeQuality"><path d="M11.4062 -2.4375 Q11.4062 -1.875 11.4375 -1.5938 Q11.4688 -1.3125 11.5391 -1.1406 Q11.6094 -0.9688 11.7031 -0.8594 Q11.7969 -0.75 11.9766 -0.6641 Q12.1562 -0.5781 12.5469 -0.4844 L12.5469 0 L8.4531 0 L8.4531 -0.4844 Q8.9844 -0.6094 9.2031 -0.7812 Q9.4219 -0.9531 9.5 -1.2891 Q9.5781 -1.625 9.5781 -2.4375 L9.5781 -6.5312 L4.1562 -6.5312 L4.1562 -2.4375 Q4.1562 -1.7812 4.1953 -1.4844 Q4.2344 -1.1875 4.3359 -1.0078 Q4.4375 -0.8281 4.6406 -0.7109 Q4.8438 -0.5938 5.2969 -0.4844 L5.2969 0 L1.1875 0 L1.1875 -0.4844 Q1.7812 -0.6406 1.9922 -0.8281 Q2.2031 -1.0156 2.2656 -1.3672 Q2.3281 -1.7188 2.3281 -2.4375 L2.3281 -10.8906 Q2.3281 -11.5625 2.2812 -11.8672 Q2.2344 -12.1719 2.1172 -12.3438 Q2 -12.5156 1.8125 -12.6172 Q1.625 -12.7188 1.1875 -12.8594 L1.1875 -13.3281 L5.2969 -13.3281 L5.2969 -12.8594 Q4.8594 -12.75 4.6719 -12.6406 Q4.4844 -12.5312 4.375 -12.3672 Q4.2656 -12.2031 4.2109 -11.8828 Q4.1562 -11.5625 4.1562 -10.8906 L4.1562 -7.4375 L9.5781 -7.4375 L9.5781 -10.8906 Q9.5781 -11.7344 9.5 -12.0469 Q9.4219 -12.3594 9.2266 -12.5312 Q9.0312 -12.7031 8.4531 -12.8594 L8.4531 -13.3281 L12.5469 -13.3281 L12.5469 -12.8594 Q12 -12.7188 11.7812 -12.5469 Q11.5625 -12.375 11.4844 -12.0312 Q11.4062 -11.6875 11.4062 -10.8906 L11.4062 -2.4375 ZM29.125 -12.8594 Q28.7031 -12.75 28.5078 -12.6406 Q28.3125 -12.5312 28.2031 -12.3672 Q28.0938 -12.2031 28.0391 -11.8828 Q27.9844 -11.5625 27.9844 -10.8906 L27.9844 -2.4375 Q27.9844 -1.7812 28.0312 -1.4844 Q28.0781 -1.1875 28.1797 -1.0078 Q28.2812 -0.8281 28.4766 -0.7109 Q28.6719 -0.5938 29.125 -0.4844 L29.125 0 L25.0625 0 L25.0625 -0.4844 Q25.6094 -0.6094 25.8281 -0.7891 Q26.0469 -0.9688 26.125 -1.3125 Q26.2031 -1.6562 26.2031 -2.4375 L26.2031 -6.1875 Q26.2031 -7.6562 26.2422 -9.1641 Q26.2812 -10.6719 26.3438 -11.2344 L26.1719 -11.2344 L22.3125 -1.5469 L21.1875 -1.5469 L17.5938 -11.3906 L17.4219 -11.3906 Q17.4844 -10.7969 17.5234 -9.2344 Q17.5625 -7.6719 17.5625 -6.0156 L17.5625 -2.4375 Q17.5625 -1.7812 17.6094 -1.4844 Q17.6562 -1.1875 17.7578 -1.0078 Q17.8594 -0.8281 18.0625 -0.7109 Q18.2656 -0.5938 18.7031 -0.4844 L18.7031 0 L15.1406 0 L15.1406 -0.4844 Q15.75 -0.6406 15.9531 -0.8281 Q16.1562 -1.0156 16.2188 -1.3672 Q16.2812 -1.7188 16.2812 -2.4375 L16.2812 -10.8906 Q16.2812 -11.5625 16.2344 -11.8672 Q16.1875 -12.1719 16.0781 -12.3438 Q15.9688 -12.5156 15.7812 -12.6172 Q15.5938 -12.7188 15.1406 -12.8594 L15.1406 -13.3281 L18.625 -13.3281 L22.0625 -3.8281 L25.8281 -13.3281 L29.125 -13.3281 L29.125 -12.8594 ZM34.1562 -0.9062 L36.7031 -0.9062 Q37.125 -0.9062 37.4141 -0.9531 Q37.7031 -1 37.8984 -1.1016 Q38.0938 -1.2031 38.2578 -1.3828 Q38.4219 -1.5625 38.5703 -1.8594 Q38.7188 -2.1562 38.8438 -2.5938 Q38.9688 -3.0312 39.1719 -3.9219 L40.1562 -3.9219 L39.9688 0 L31.1875 0 L31.1875 -0.4844 Q31.7812 -0.6406 31.9922 -0.8281 Q32.2031 -1.0156 32.2656 -1.3672 Q32.3281 -1.7188 32.3281 -2.4375 L32.3281 -10.8906 Q32.3281 -11.5625 32.2812 -11.8672 Q32.2344 -12.1719 32.1172 -12.3438 Q32 -12.5156 31.8125 -12.6172 Q31.625 -12.7188 31.1875 -12.8594 L31.1875 -13.3281 L35.2969 -13.3281 L35.2969 -12.8594 Q34.8594 -12.7344 34.6797 -12.6406 Q34.5 -12.5469 34.3828 -12.3906 Q34.2656 -12.2344 34.2109 -11.9141 Q34.1562 -11.5938 34.1562 -10.8906 L34.1562 -0.9062 Z" stroke="none"/></g><g text-rendering="optimizeLegibility" transform="translate(40.9375,14)" color-rendering="optimizeQuality" color-interpolation="linearRGB" image-rendering="optimizeQuality"><path d="M1.2188 -7.0625 L1.2188 -8.4219 L9.8594 -8.4219 L9.8594 -7.0625 L1.2188 -7.0625 ZM1.2188 -3.0156 L1.2188 -4.3594 L9.8594 -4.3594 L9.8594 -3.0156 L1.2188 -3.0156 Z" stroke="none"/></g><g text-rendering="optimizeLegibility" transform="translate(52.7969,14)" color-rendering="optimizeQuality" color-interpolation="linearRGB" image-rendering="optimizeQuality"><path d="M10.6562 -2.8438 Q10.5312 -2.2656 10.4922 -1.9297 Q10.4531 -1.5938 10.4531 -1.3125 Q10.4531 -0.875 10.6719 -0.6953 Q10.8906 -0.5156 11.4062 -0.4844 L11.2969 0 L7.3906 0 L7.5 -0.4844 Q7.875 -0.5312 8.0625 -0.6641 Q8.25 -0.7969 8.375 -1.0312 Q8.5 -1.2656 8.6094 -1.6016 Q8.7188 -1.9375 8.9219 -2.9062 L9.7344 -6.5312 L4.4844 -6.5312 L3.6719 -2.8438 Q3.5938 -2.4844 3.5469 -2.25 Q3.5 -2.0156 3.4844 -1.7969 Q3.4688 -1.5781 3.4688 -1.3125 Q3.4688 -0.9062 3.6641 -0.7188 Q3.8594 -0.5312 4.4219 -0.4844 L4.3125 0 L0.4062 0 L0.5156 -0.4844 Q0.8906 -0.5312 1.0781 -0.6641 Q1.2656 -0.7969 1.3906 -1.0312 Q1.5156 -1.2656 1.625 -1.6016 Q1.7344 -1.9375 1.9375 -2.9062 L3.6094 -10.4375 Q3.6875 -10.8281 3.75 -11.2812 Q3.8125 -11.7344 3.8125 -12 Q3.8125 -12.4688 3.5781 -12.6484 Q3.3438 -12.8281 2.8594 -12.8594 L2.9688 -13.3281 L6.875 -13.3281 L6.7656 -12.8594 Q6.3906 -12.7812 6.2344 -12.6797 Q6.0781 -12.5781 5.9453 -12.3828 Q5.8125 -12.1875 5.6797 -11.7734 Q5.5469 -11.3594 5.3438 -10.4219 L4.6719 -7.4375 L9.9219 -7.4375 L10.5938 -10.4375 Q10.6719 -10.8281 10.7344 -11.2812 Q10.7969 -11.7344 10.7969 -12 Q10.7969 -12.4688 10.5625 -12.6484 Q10.3281 -12.8281 9.8438 -12.8594 L9.9531 -13.3281 L13.8594 -13.3281 L13.75 -12.8594 Q13.4219 -12.7812 13.2812 -12.7109 Q13.1406 -12.6406 13.0312 -12.5234 Q12.9219 -12.4062 12.8203 -12.1875 Q12.7188 -11.9688 12.6016 -11.5391 Q12.4844 -11.1094 12.3281 -10.4219 L10.6562 -2.8438 Z" stroke="none"/></g><g text-rendering="optimizeLegibility" transform="translate(66.6562,18.8906)" color-rendering="optimizeQuality" color-interpolation="linearRGB" image-rendering="optimizeQuality"><path d="M2.5156 -3.8125 L2.7344 -3.8125 Q2.9531 -3.8125 3.1953 -3.8906 Q3.4375 -3.9688 3.7188 -4.1484 Q4 -4.3281 4.4688 -4.7031 Q4.8281 -4.9844 5 -5.1875 Q5.1719 -5.3906 5.2344 -5.5391 Q5.2969 -5.6875 5.2969 -5.8281 Q5.2969 -6.1562 4.8281 -6.2031 L4.9062 -6.5312 L7.1094 -6.5312 L7.25 -6.2031 Q6.6719 -5.6875 6.0469 -5.2031 L4.3125 -3.8438 L5.3438 -1.2656 Q5.4688 -0.9062 5.6172 -0.7188 Q5.7656 -0.5312 5.9531 -0.4453 Q6.1406 -0.3594 6.4375 -0.3281 L6.3594 0 L4.5312 0 L3.5312 -2.8125 Q3.4375 -3.0781 3.3672 -3.1719 Q3.2969 -3.2656 3.2109 -3.3047 Q3.125 -3.3438 2.9219 -3.3438 L2.4219 -3.3438 L1.7031 0 L0.5312 0 L2.2812 -7.8125 Q2.3594 -8.1562 2.3906 -8.3125 Q2.4219 -8.4688 2.4375 -8.5938 Q2.4531 -8.7188 2.4531 -8.8281 Q2.4531 -9.1094 2.2734 -9.2266 Q2.0938 -9.3438 1.6406 -9.3594 L1.7344 -9.7188 L3.4531 -9.7812 L3.8594 -9.7812 L2.5156 -3.8125 Z" stroke="none"/></g></g></svg>