<?xml version="1.0" encoding="UTF-8" standalone="no"?><svg xmlns="http://www.w3.org/2000/svg" xmlns:xlink="http://www.w3.org/1999/xlink" stroke-dasharray="none" shape-rendering="auto" font-family="'Dialog'" width="62.812600" text-rendering="auto" fill-opacity="1" contentScriptType="text/ecmascript" color-interpolation="auto" color-rendering="auto" preserveAspectRatio="xMidYMid meet" font-size="12" fill="black" stroke="black" image-rendering="auto" stroke-miterlimit="10" zoomAndPan="magnify" version="1.0" stroke-linecap="square" stroke-linejoin="miter" contentStyleType="text/css" font-style="normal" height="19" stroke-width="1" stroke-dashoffset="0" font-weight="normal" stroke-opacity="1" y="-5.000000"><!--Converted from MathML using JEuclid--><defs id="genericDefs"/><g><g text-rendering="optimizeLegibility" transform="translate(0,14)" color-rendering="optimizeQuality" color-interpolation="linearRGB" image-rendering="optimizeQuality"><path d="M10.1719 -13.0469 L10.1719 -10.3438 L9.2031 -10.3438 Q8.9688 -11.1875 8.6094 -11.6953 Q8.25 -12.2031 7.7734 -12.4141 Q7.2969 -12.625 6.625 -12.625 Q5.6094 -12.625 4.8281 -11.9609 Q4.0469 -11.2969 3.5938 -9.9531 Q3.1406 -8.6094 3.1406 -6.7031 Q3.1406 -4.7812 3.5156 -3.4297 Q3.8906 -2.0781 4.6094 -1.3906 Q5.3281 -0.7031 6.3906 -0.7031 Q7.1875 -0.7031 7.6953 -0.9297 Q8.2031 -1.1562 8.5469 -1.6562 Q8.8906 -2.1562 9.2031 -3.125 L10.1719 -3.125 L10.1719 -0.3281 Q9.2656 -0.0938 8.2969 0.0312 Q7.3281 0.1562 6.1875 0.1562 Q3.7031 0.1562 2.4297 -1.5234 Q1.1562 -3.2031 1.1562 -6.5312 Q1.1562 -8.625 1.8203 -10.1953 Q2.4844 -11.7656 3.7656 -12.625 Q5.0469 -13.4844 6.8125 -13.4844 Q7.7031 -13.4844 8.4531 -13.3906 Q9.2031 -13.2969 10.1719 -13.0469 ZM15.1562 -2.4688 Q15.1562 -1.8906 15.2188 -1.5547 Q15.2812 -1.2188 15.4141 -1.0156 Q15.5469 -0.8125 15.7656 -0.7031 Q15.9844 -0.5938 16.4688 -0.4844 L16.4688 0 L12.1875 0 L12.1875 -0.4844 Q12.7812 -0.6406 12.9922 -0.8281 Q13.2031 -1.0156 13.2656 -1.3672 Q13.3281 -1.7188 13.3281 -2.4375 L13.3281 -10.8906 Q13.3281 -11.5625 13.2812 -11.8672 Q13.2344 -12.1719 13.1172 -12.3438 Q13 -12.5156 12.8125 -12.6172 Q12.625 -12.7188 12.1875 -12.8594 L12.1875 -13.3281 L17.0312 -13.3281 Q19.3125 -13.3281 20.4297 -12.4531 Q21.5469 -11.5781 21.5469 -9.7969 Q21.5469 -8.7812 21.1953 -7.9688 Q20.8438 -7.1562 20.2031 -6.6406 Q19.5625 -6.125 18.6797 -5.8984 Q17.7969 -5.6719 16.8281 -5.6719 Q15.75 -5.6719 15.1562 -5.7188 L15.1562 -2.4688 ZM15.1562 -6.5312 L16.2812 -6.5312 Q17.3906 -6.5312 18.1094 -6.8125 Q18.8281 -7.0938 19.2031 -7.7656 Q19.5781 -8.4375 19.5781 -9.5469 Q19.5781 -10.375 19.3594 -10.9375 Q19.1406 -11.5 18.7422 -11.8438 Q18.3438 -12.1875 17.7969 -12.3281 Q17.25 -12.4688 16.6094 -12.4688 Q15.6406 -12.4688 15.1562 -12.4375 L15.1562 -6.5312 ZM23.1875 0 L23.1875 -0.4844 Q23.7812 -0.6406 23.9922 -0.8281 Q24.2031 -1.0156 24.2656 -1.3672 Q24.3281 -1.7188 24.3281 -2.4375 L24.3281 -10.8906 Q24.3281 -11.5625 24.2812 -11.8672 Q24.2344 -12.1719 24.1172 -12.3438 Q24 -12.5156 23.8125 -12.6172 Q23.625 -12.7188 23.1875 -12.8594 L23.1875 -13.3281 L28.5312 -13.3281 Q30.0781 -13.3281 31.0234 -13 Q31.9688 -12.6719 32.4219 -12.0234 Q32.875 -11.375 32.875 -10.3438 Q32.875 -9.5 32.5469 -8.875 Q32.2188 -8.25 31.6953 -7.8359 Q31.1719 -7.4219 30.3438 -7.0781 L30.3438 -6.9844 Q31.6719 -6.5781 32.3516 -5.7422 Q33.0312 -4.9062 33.0312 -3.7656 Q33.0312 -2.4375 32.4453 -1.5938 Q31.8594 -0.75 30.7891 -0.375 Q29.7188 0 28.2188 0 L23.1875 0 ZM27.8594 -7.3594 Q29.3438 -7.3594 30.1328 -8.0781 Q30.9219 -8.7969 30.9219 -10.1562 Q30.9219 -10.8281 30.7031 -11.2734 Q30.4844 -11.7188 30.0938 -11.9844 Q29.7031 -12.25 29.1797 -12.3594 Q28.6562 -12.4688 28.0312 -12.4688 Q27.6719 -12.4688 27.0625 -12.4531 Q26.4531 -12.4375 26.1562 -12.4062 L26.1562 -7.3594 L27.8594 -7.3594 ZM26.1562 -0.9219 Q26.8594 -0.8594 27.75 -0.8594 Q29.0156 -0.8594 29.7266 -1.1797 Q30.4375 -1.5 30.7578 -2.1328 Q31.0781 -2.7656 31.0781 -3.7188 Q31.0781 -4.6562 30.7266 -5.2734 Q30.375 -5.8906 29.6562 -6.1953 Q28.9375 -6.5 27.6719 -6.5 L26.1562 -6.5 L26.1562 -0.9219 Z" stroke="none"/></g><g text-rendering="optimizeLegibility" transform="translate(33.8125,14)" color-rendering="optimizeQuality" color-interpolation="linearRGB" image-rendering="optimizeQuality"><path d="M1.2188 -7.0625 L1.2188 -8.4219 L9.8594 -8.4219 L9.8594 -7.0625 L1.2188 -7.0625 ZM1.2188 -3.0156 L1.2188 -4.3594 L9.8594 -4.3594 L9.8594 -3.0156 L1.2188 -3.0156 Z" stroke="none"/></g><g text-rendering="optimizeLegibility" transform="translate(45.6719,14)" color-rendering="optimizeQuality" color-interpolation="linearRGB" image-rendering="optimizeQuality"><path d="M7.1719 -7 Q7.1562 -7.7344 7.0547 -8.0703 Q6.9531 -8.4062 6.7266 -8.5703 Q6.5 -8.7344 6.0781 -8.7344 Q5.0938 -8.7344 4.3047 -7.9453 Q3.5156 -7.1562 3.0156 -5.7188 Q2.5156 -4.2812 2.5156 -2.9531 Q2.5156 -2.5469 2.5938 -2.1797 Q2.6719 -1.8125 2.8516 -1.5547 Q3.0312 -1.2969 3.3281 -1.1406 Q3.625 -0.9844 4.0781 -0.9844 Q4.9688 -0.9844 5.6172 -1.3203 Q6.2656 -1.6562 7 -2.3906 L7.5938 -1.7812 Q6.6719 -0.7656 5.7422 -0.2969 Q4.8125 0.1719 3.7344 0.1719 Q2.3125 0.1719 1.5781 -0.6719 Q0.8438 -1.5156 0.8438 -3.1094 Q0.8438 -4.1562 1.2344 -5.4062 Q1.625 -6.6562 2.3828 -7.6094 Q3.1406 -8.5625 4.1406 -9.0312 Q5.1406 -9.5 6.2969 -9.5 Q7.0781 -9.5 7.6562 -9.4062 Q8.2344 -9.3125 8.6875 -9.2031 L8.2031 -7 L7.1719 -7 Z" stroke="none"/></g><g text-rendering="optimizeLegibility" transform="translate(48.0234,11.625)" color-rendering="optimizeQuality" color-interpolation="linearRGB" image-rendering="optimizeQuality"><path d="M3.7969 -8.125 L0.1875 -8.125 L0.1875 -8.9688 L3.7969 -8.9688 L3.7969 -8.125 Z" stroke="none"/></g><g text-rendering="optimizeLegibility" transform="translate(54.4219,16.0234)" color-rendering="optimizeQuality" color-interpolation="linearRGB" image-rendering="optimizeQuality"><path d="M1.4688 1.2031 Q1.3906 1.5312 1.375 1.7109 Q1.3594 1.8906 1.3594 2.0156 Q1.3594 2.2188 1.4297 2.3359 Q1.5 2.4531 1.6406 2.5156 Q1.7812 2.5781 2.1094 2.6094 L2.0625 2.9375 L-0.0625 2.9375 L1.6719 -4.6562 Q1.8125 -5.2344 1.8125 -5.6406 Q1.8125 -5.8438 1.75 -5.9453 Q1.6875 -6.0469 1.5469 -6.1016 Q1.4062 -6.1562 1.0781 -6.1719 L1.1562 -6.5312 L2.7031 -6.5938 L3.0938 -6.5938 L2.6406 -4.8125 L2.7188 -4.7969 Q3.9844 -6.6406 5.2344 -6.6406 Q5.9844 -6.6406 6.3984 -6.0781 Q6.8125 -5.5156 6.8125 -4.4844 Q6.8125 -3.7344 6.6094 -2.9922 Q6.4062 -2.25 6.0469 -1.6484 Q5.6875 -1.0469 5.25 -0.6641 Q4.8125 -0.2812 4.3203 -0.0859 Q3.8281 0.1094 3.2812 0.1094 Q2.375 0.1094 1.7812 -0.2812 L1.4688 1.2031 ZM2.2812 -2.375 Q2.2188 -2.0156 2.2031 -1.8281 Q2.1875 -1.6406 2.1875 -1.4531 Q2.1875 -0.9219 2.4141 -0.6797 Q2.6406 -0.4375 3.2031 -0.4375 Q3.5469 -0.4375 3.8438 -0.5703 Q4.1406 -0.7031 4.3984 -0.9609 Q4.6562 -1.2188 4.875 -1.5938 Q5.0938 -1.9688 5.2578 -2.4531 Q5.4219 -2.9375 5.5078 -3.4531 Q5.5938 -3.9688 5.5938 -4.4219 Q5.5938 -5.1406 5.3906 -5.4922 Q5.1875 -5.8438 4.75 -5.8438 Q4.4062 -5.8438 4.0625 -5.6094 Q3.7188 -5.375 3.3203 -4.8516 Q2.9219 -4.3281 2.6953 -3.8281 Q2.4688 -3.3281 2.3438 -2.6719 L2.2812 -2.375 Z" stroke="none"/></g></g></svg>