<?xml version="1.0" encoding="UTF-8" standalone="no"?><svg xmlns="http://www.w3.org/2000/svg" xmlns:xlink="http://www.w3.org/1999/xlink" stroke-dasharray="none" shape-rendering="auto" font-family="'Dialog'" width="36.812600" text-rendering="auto" fill-opacity="1" contentScriptType="text/ecmascript" color-interpolation="auto" color-rendering="auto" preserveAspectRatio="xMidYMid meet" font-size="12" fill="black" stroke="black" image-rendering="auto" stroke-miterlimit="10" zoomAndPan="magnify" version="1.0" stroke-linecap="square" stroke-linejoin="miter" contentStyleType="text/css" font-style="normal" height="24" stroke-width="1" stroke-dashoffset="0" font-weight="normal" stroke-opacity="1" y="-5.000000"><!--Converted from MathML using JEuclid--><defs id="genericDefs"/><g><g text-rendering="optimizeLegibility" transform="translate(-0.2344,17.9188) matrix(1,0,0,1.2572,0,0)" color-rendering="optimizeQuality" color-interpolation="linearRGB" image-rendering="optimizeQuality"><path d="M6.5781 4.2031 L2.2344 4.2031 L2.2344 -13.9688 L6.5781 -13.9688 L6.5781 -13.1719 L3.9531 -13.1719 L3.9531 3.4062 L6.5781 3.4062 L6.5781 4.2031 Z" stroke="none"/></g><g text-rendering="optimizeLegibility" transform="translate(8.9844,19)" color-rendering="optimizeQuality" color-interpolation="linearRGB" image-rendering="optimizeQuality"><path d="M6.25 -13.3281 L6.1406 -12.8594 Q5.7188 -12.7812 5.4688 -12.5625 Q5.2188 -12.3438 5.2188 -11.9219 Q5.2188 -11.2969 5.5469 -10.3594 L6.3594 -7.9844 L8.4531 -10.6406 Q8.5938 -10.8281 8.7344 -11.0234 Q8.875 -11.2188 8.9922 -11.4141 Q9.1094 -11.6094 9.1562 -11.7422 Q9.2031 -11.875 9.2344 -11.9844 Q9.2656 -12.0938 9.2656 -12.1875 Q9.2656 -12.4531 9.1094 -12.6406 Q8.9531 -12.8281 8.5625 -12.8594 L8.6719 -13.3281 L12.3125 -13.3281 L12.2031 -12.8594 Q11.9219 -12.7656 11.6562 -12.5703 Q11.3906 -12.375 11.0391 -11.9844 Q10.6875 -11.5938 9.7188 -10.4375 L6.8125 -6.9688 L8.2344 -3 Q8.5625 -2.0938 8.75 -1.6406 Q8.9688 -1.1562 9.125 -0.9219 Q9.25 -0.7656 9.3906 -0.6719 Q9.5156 -0.5781 9.8438 -0.4844 L9.75 0 L5.7969 0 L5.9062 -0.4844 Q6.3438 -0.5469 6.5859 -0.7891 Q6.8281 -1.0312 6.8281 -1.4062 Q6.8281 -1.9844 6.5938 -2.6875 L5.5781 -5.6719 L3.3438 -2.875 Q2.8594 -2.25 2.6328 -1.8594 Q2.4062 -1.4688 2.4062 -1.1875 Q2.4062 -0.9531 2.4688 -0.8125 Q2.5312 -0.6719 2.6797 -0.5938 Q2.8281 -0.5156 3.0938 -0.4844 L2.9844 0 L-0.6406 0 L-0.5469 -0.4844 Q-0.3594 -0.5469 -0.2031 -0.6328 Q-0.0469 -0.7188 0.1328 -0.8672 Q0.3125 -1.0156 0.6172 -1.3594 Q0.9219 -1.7031 1.3125 -2.1562 L5.125 -6.6875 L3.6875 -10.7031 Q3.4688 -11.2969 3.3047 -11.6953 Q3.1406 -12.0938 2.9766 -12.3281 Q2.8125 -12.5625 2.6406 -12.6797 Q2.4688 -12.7969 2.2031 -12.8594 L2.3125 -13.3281 L6.25 -13.3281 Z" stroke="none"/></g><g text-rendering="optimizeLegibility" transform="translate(21.2969,22.2734)" color-rendering="optimizeQuality" color-interpolation="linearRGB" image-rendering="optimizeQuality"><path d="M5.5625 -1.3594 Q5.0625 -0.8125 4.5938 -0.4922 Q4.125 -0.1719 3.6641 -0.0312 Q3.2031 0.1094 2.6406 0.1094 Q2.0938 0.1094 1.7031 -0.0625 Q1.3125 -0.2344 1.0625 -0.5391 Q0.8125 -0.8438 0.6875 -1.2656 Q0.5625 -1.6875 0.5625 -2.1875 Q0.5625 -2.9062 0.8281 -3.75 Q1.0938 -4.5938 1.625 -5.2578 Q2.1562 -5.9219 2.8984 -6.2891 Q3.6406 -6.6562 4.4844 -6.6562 Q5.3125 -6.6562 5.7266 -6.3203 Q6.1406 -5.9844 6.1406 -5.2656 Q6.1406 -4.1094 5.0469 -3.5312 Q3.9531 -2.9531 1.8125 -2.9531 Q1.7344 -2.5312 1.7344 -2.0625 Q1.7344 -1.3438 2.0156 -1.0156 Q2.2969 -0.6875 2.9219 -0.6875 Q3.5625 -0.6875 4.0703 -0.9609 Q4.5781 -1.2344 5.1406 -1.8125 L5.5625 -1.3594 ZM1.9219 -3.5312 Q2.5625 -3.5312 3.0312 -3.6016 Q3.5 -3.6719 3.8438 -3.7812 Q4.1875 -3.8906 4.4141 -4.0469 Q4.6406 -4.2031 4.7734 -4.3906 Q4.9062 -4.5781 4.9609 -4.7891 Q5.0156 -5 5.0156 -5.2188 Q5.0156 -5.6406 4.8203 -5.875 Q4.625 -6.1094 4.2344 -6.1094 Q3.7656 -6.1094 3.3047 -5.7656 Q2.8438 -5.4219 2.4922 -4.8359 Q2.1406 -4.25 1.9219 -3.5312 Z" stroke="none"/></g><g text-rendering="optimizeLegibility" transform="translate(29.0156,17.9188) matrix(1,0,0,1.2572,0,0)" color-rendering="optimizeQuality" color-interpolation="linearRGB" image-rendering="optimizeQuality"><path d="M4.7812 4.2031 L0.4219 4.2031 L0.4219 3.4062 L3.0625 3.4062 L3.0625 -13.1719 L0.4219 -13.1719 L0.4219 -13.9688 L4.7812 -13.9688 L4.7812 4.2031 Z" stroke="none"/></g></g></svg>