<?xml version="1.0" encoding="UTF-8" standalone="no"?><svg xmlns="http://www.w3.org/2000/svg" xmlns:xlink="http://www.w3.org/1999/xlink" stroke-dasharray="none" shape-rendering="auto" font-family="'Dialog'" width="204.812600" text-rendering="auto" fill-opacity="1" contentScriptType="text/ecmascript" color-interpolation="auto" color-rendering="auto" preserveAspectRatio="xMidYMid meet" font-size="12" fill="black" stroke="black" image-rendering="auto" stroke-miterlimit="10" zoomAndPan="magnify" version="1.0" stroke-linecap="square" stroke-linejoin="miter" contentStyleType="text/css" font-style="normal" height="29" stroke-width="1" stroke-dashoffset="0" font-weight="normal" stroke-opacity="1" y="-7.000000"><!--Converted from MathML using JEuclid--><defs id="genericDefs"/><g><g text-rendering="optimizeLegibility" stroke-width="1.6667" color-interpolation="linearRGB" color-rendering="optimizeQuality" image-rendering="optimizeQuality"><line y2="16.3995" fill="none" x1="1.6778" x2="24.1153" y1="16.3995"/><path d="M5.9531 -7.8438 Q6 -8.0781 6.0391 -8.3516 Q6.0781 -8.625 6.0781 -8.8281 Q6.0781 -9.0312 6.0078 -9.1406 Q5.9375 -9.25 5.7969 -9.2969 Q5.6562 -9.3438 5.2969 -9.3594 L5.375 -9.7188 L7.0938 -9.7812 L7.5 -9.7812 L5.7188 -1.9062 Q5.625 -1.4688 5.5938 -1.2578 Q5.5625 -1.0469 5.5625 -0.9062 Q5.5625 -0.625 5.7188 -0.5 Q5.875 -0.375 6.3125 -0.3281 L6.25 0 L4.2969 0 L4.7344 -1.7188 L4.6406 -1.75 Q3.9844 -0.7812 3.3984 -0.3359 Q2.8125 0.1094 2.1562 0.1094 Q1.4062 0.1094 0.9922 -0.4609 Q0.5781 -1.0312 0.5781 -2.0625 Q0.5781 -2.7188 0.7266 -3.375 Q0.875 -4.0312 1.1797 -4.625 Q1.4844 -5.2188 1.9062 -5.6719 Q2.3281 -6.125 2.8906 -6.3906 Q3.4531 -6.6562 4.1094 -6.6562 Q4.5156 -6.6562 4.8672 -6.5703 Q5.2188 -6.4844 5.5938 -6.2656 L5.9531 -7.8438 ZM5.0938 -4.1562 Q5.2031 -4.6562 5.2031 -5.0938 Q5.2031 -5.625 4.9766 -5.8672 Q4.75 -6.1094 4.2188 -6.1094 Q3.9375 -6.1094 3.6797 -6.0156 Q3.4219 -5.9219 3.1562 -5.7109 Q2.8906 -5.5 2.6484 -5.1484 Q2.4062 -4.7969 2.2031 -4.2969 Q2 -3.7969 1.8906 -3.2266 Q1.7812 -2.6562 1.7812 -2.125 Q1.7812 -1.4062 1.9766 -1.0547 Q2.1719 -0.7031 2.625 -0.7031 Q2.8438 -0.7031 3.0703 -0.7969 Q3.2969 -0.8906 3.5781 -1.1484 Q3.8594 -1.4062 4.2188 -1.9062 Q4.5469 -2.3594 4.7344 -2.8125 Q4.9219 -3.2656 5.0312 -3.875 L5.0938 -4.1562 Z" stroke-width="1" transform="translate(1.6778,10.3962)" stroke="none"/></g><g text-rendering="optimizeLegibility" transform="translate(9.1778,10.3962)" color-rendering="optimizeQuality" color-interpolation="linearRGB" image-rendering="optimizeQuality"><path d="M9.7656 -9.3281 L9.6875 -9 Q9.4219 -8.9375 9.3125 -8.875 Q9.2031 -8.8125 9.1094 -8.6719 Q9.0156 -8.5312 8.9219 -8.2422 Q8.8281 -7.9531 8.6875 -7.2969 L7.0781 0 L6.1562 0 L4.1562 -5.8594 Q3.7969 -6.9219 3.5156 -7.9688 L3.4375 -7.9688 Q3.3906 -7.6094 3.2031 -6.6328 Q3.0156 -5.6562 2.8125 -4.7188 L2.2188 -1.9844 Q2.1562 -1.7031 2.1172 -1.4375 Q2.0781 -1.1719 2.0781 -0.9219 Q2.0781 -0.6094 2.2266 -0.4844 Q2.375 -0.3594 2.7344 -0.3281 L2.6719 0 L0.2812 0 L0.3438 -0.3281 Q0.6094 -0.375 0.7422 -0.4688 Q0.875 -0.5625 0.9609 -0.7266 Q1.0469 -0.8906 1.125 -1.125 Q1.2031 -1.3594 1.3438 -2.0312 L2.5156 -7.2969 Q2.5781 -7.5938 2.6172 -7.8594 Q2.6562 -8.125 2.6562 -8.4062 Q2.6562 -8.7188 2.4922 -8.8438 Q2.3281 -8.9688 1.9844 -9 L2.0625 -9.3281 L4.25 -9.3281 L6.0469 -4 Q6.4375 -2.8594 6.6562 -2.0625 L6.7344 -2.0625 Q6.7812 -2.4844 6.9766 -3.4531 Q7.1719 -4.4219 7.3281 -5.1406 L7.8125 -7.2969 Q7.8594 -7.5312 7.9141 -7.8359 Q7.9688 -8.1406 7.9688 -8.4062 Q7.9688 -8.7188 7.8047 -8.8438 Q7.6406 -8.9688 7.2969 -9 L7.375 -9.3281 L9.7656 -9.3281 Z" stroke="none"/></g><g text-rendering="optimizeLegibility" transform="translate(18.9434,13.8883)" color-rendering="optimizeQuality" color-interpolation="linearRGB" image-rendering="optimizeQuality"><path d="M1.7969 -2.7188 L1.9531 -2.7188 Q2.1094 -2.7188 2.2812 -2.7812 Q2.4531 -2.8438 2.6562 -2.9688 Q2.8594 -3.0938 3.1875 -3.3594 Q3.4531 -3.5625 3.5703 -3.7031 Q3.6875 -3.8438 3.7344 -3.9531 Q3.7812 -4.0625 3.7812 -4.1562 Q3.7812 -4.4062 3.4531 -4.4219 L3.5 -4.6719 L5.0781 -4.6719 L5.1719 -4.4219 Q4.7656 -4.0625 4.3125 -3.7188 L3.0781 -2.75 L3.8125 -0.9062 Q3.9062 -0.6562 4.0078 -0.5156 Q4.1094 -0.375 4.25 -0.3125 Q4.3906 -0.25 4.5938 -0.2344 L4.5469 0 L3.2344 0 L2.5312 -2 Q2.4531 -2.2031 2.4062 -2.2656 Q2.3594 -2.3281 2.2969 -2.3594 Q2.2344 -2.3906 2.0938 -2.3906 L1.7344 -2.3906 L1.2188 0 L0.375 0 L1.625 -5.5781 Q1.6875 -5.8281 1.7109 -5.9375 Q1.7344 -6.0469 1.7422 -6.1406 Q1.75 -6.2344 1.75 -6.2969 Q1.75 -6.5156 1.625 -6.5938 Q1.5 -6.6719 1.1719 -6.6875 L1.2344 -6.9375 L2.4688 -6.9844 L2.75 -6.9844 L1.7969 -2.7188 Z" stroke="none"/></g><g text-rendering="optimizeLegibility" transform="translate(6.4747,28.6918)" color-rendering="optimizeQuality" color-interpolation="linearRGB" image-rendering="optimizeQuality"><path d="M5.9531 -7.8438 Q6 -8.0781 6.0391 -8.3516 Q6.0781 -8.625 6.0781 -8.8281 Q6.0781 -9.0312 6.0078 -9.1406 Q5.9375 -9.25 5.7969 -9.2969 Q5.6562 -9.3438 5.2969 -9.3594 L5.375 -9.7188 L7.0938 -9.7812 L7.5 -9.7812 L5.7188 -1.9062 Q5.625 -1.4688 5.5938 -1.2578 Q5.5625 -1.0469 5.5625 -0.9062 Q5.5625 -0.625 5.7188 -0.5 Q5.875 -0.375 6.3125 -0.3281 L6.25 0 L4.2969 0 L4.7344 -1.7188 L4.6406 -1.75 Q3.9844 -0.7812 3.3984 -0.3359 Q2.8125 0.1094 2.1562 0.1094 Q1.4062 0.1094 0.9922 -0.4609 Q0.5781 -1.0312 0.5781 -2.0625 Q0.5781 -2.7188 0.7266 -3.375 Q0.875 -4.0312 1.1797 -4.625 Q1.4844 -5.2188 1.9062 -5.6719 Q2.3281 -6.125 2.8906 -6.3906 Q3.4531 -6.6562 4.1094 -6.6562 Q4.5156 -6.6562 4.8672 -6.5703 Q5.2188 -6.4844 5.5938 -6.2656 L5.9531 -7.8438 ZM5.0938 -4.1562 Q5.2031 -4.6562 5.2031 -5.0938 Q5.2031 -5.625 4.9766 -5.8672 Q4.75 -6.1094 4.2188 -6.1094 Q3.9375 -6.1094 3.6797 -6.0156 Q3.4219 -5.9219 3.1562 -5.7109 Q2.8906 -5.5 2.6484 -5.1484 Q2.4062 -4.7969 2.2031 -4.2969 Q2 -3.7969 1.8906 -3.2266 Q1.7812 -2.6562 1.7812 -2.125 Q1.7812 -1.4062 1.9766 -1.0547 Q2.1719 -0.7031 2.625 -0.7031 Q2.8438 -0.7031 3.0703 -0.7969 Q3.2969 -0.8906 3.5781 -1.1484 Q3.8594 -1.4062 4.2188 -1.9062 Q4.5469 -2.3594 4.7344 -2.8125 Q4.9219 -3.2656 5.0312 -3.875 L5.0938 -4.1562 Z" stroke="none"/></g><g text-rendering="optimizeLegibility" transform="translate(13.9747,28.6918)" color-rendering="optimizeQuality" color-interpolation="linearRGB" image-rendering="optimizeQuality"><path d="M4.6094 -1.2656 Q4.0469 -0.5781 3.5 -0.2344 Q2.9531 0.1094 2.3438 0.1094 Q1.625 0.1094 1.2656 -0.2578 Q0.9062 -0.625 0.9062 -1.3281 Q0.9062 -1.7656 1.0312 -2.2969 L1.875 -5.8438 L0.8594 -5.8438 L0.9375 -6.1875 Q1.3438 -6.2344 1.5781 -6.3672 Q1.8125 -6.5 1.9766 -6.7031 Q2.1406 -6.9062 2.2734 -7.2422 Q2.4062 -7.5781 2.6094 -8.2188 L3.5625 -8.2188 L3.1719 -6.5312 L5.3438 -6.5312 L5.2031 -5.8438 L3.0156 -5.8438 L2.3594 -3.1875 Q2.0938 -2.0781 2.0938 -1.5312 Q2.0938 -1.125 2.2734 -0.9062 Q2.4531 -0.6875 2.7969 -0.6875 Q3.125 -0.6875 3.4688 -0.9297 Q3.8125 -1.1719 4.2188 -1.6719 L4.6094 -1.2656 Z" stroke="none"/></g><g text-rendering="optimizeLegibility" transform="translate(28.241,23.6195)" color-rendering="optimizeQuality" color-interpolation="linearRGB" image-rendering="optimizeQuality"><path d="M1.2188 -7.0625 L1.2188 -8.4219 L9.8594 -8.4219 L9.8594 -7.0625 L1.2188 -7.0625 ZM1.2188 -3.0156 L1.2188 -4.3594 L9.8594 -4.3594 L9.8594 -3.0156 L1.2188 -3.0156 Z" stroke="none"/></g><g text-rendering="optimizeLegibility" transform="translate(41.0066,23.6195)" color-rendering="optimizeQuality" color-interpolation="linearRGB" image-rendering="optimizeQuality"><path d="M6.625 0 L6.7344 -0.4844 Q7.1719 -0.5156 7.4219 -0.7344 Q7.6719 -0.9531 7.7734 -1.3281 Q7.875 -1.7031 7.875 -2.3281 Q7.875 -2.7188 7.8438 -3.1719 L7.7812 -4.4219 L3.4844 -4.4219 L2.9375 -3.4688 Q2.5625 -2.7969 2.3828 -2.3125 Q2.2031 -1.8281 2.2031 -1.4531 Q2.2031 -0.6406 3.1875 -0.4844 L3.0938 0 L-0.9062 0 L-0.7969 -0.4844 Q-0.5 -0.5156 -0.2266 -0.7188 Q0.0469 -0.9219 0.3438 -1.3281 Q0.6406 -1.7344 1.1875 -2.6719 L7.4531 -13.4844 L8.9219 -13.4844 L9.625 -2.5938 Q9.6719 -1.8281 9.8047 -1.3906 Q9.9375 -0.9531 10.1562 -0.7422 Q10.375 -0.5312 10.7969 -0.4844 L10.6875 0 L6.625 0 ZM3.9219 -5.2812 L7.7344 -5.2812 L7.5625 -8.4219 Q7.5469 -9.0625 7.5234 -10.0312 Q7.5 -11 7.5 -11.4219 L7.3906 -11.4219 L3.9219 -5.2812 Z" stroke="none"/></g><g text-rendering="optimizeLegibility" transform="translate(51.8191,23.6195)" color-rendering="optimizeQuality" color-interpolation="linearRGB" image-rendering="optimizeQuality"><path d="M6.4531 -7.0625 Q6.3438 -7.9375 5.9453 -8.3359 Q5.5469 -8.7344 4.7188 -8.7344 Q4.2656 -8.7344 3.8906 -8.5625 Q3.5156 -8.3906 3.3047 -8.0625 Q3.0938 -7.7344 3.0938 -7.2969 Q3.0938 -6.9375 3.2344 -6.6406 Q3.375 -6.3438 3.7266 -6.0156 Q4.0781 -5.6875 4.7031 -5.2812 Q5.6406 -4.6406 6.0234 -4.0469 Q6.4062 -3.4531 6.4062 -2.6719 Q6.4062 -1.75 5.9688 -1.1094 Q5.5312 -0.4688 4.7656 -0.1562 Q4 0.1562 3.0469 0.1562 Q2.1875 0.1562 1.4375 0.0312 Q0.6875 -0.0938 -0.0156 -0.2969 L0.4531 -2.4062 L1.2188 -2.4062 Q1.2812 -1.5 1.7266 -1.0547 Q2.1719 -0.6094 3.0156 -0.6094 Q3.8906 -0.6094 4.375 -1.0469 Q4.8594 -1.4844 4.8594 -2.2031 Q4.8594 -2.625 4.7188 -2.9531 Q4.5781 -3.2812 4.2656 -3.5859 Q3.9531 -3.8906 3.375 -4.2812 Q2.75 -4.7031 2.375 -5.0703 Q2 -5.4375 1.7891 -5.8828 Q1.5781 -6.3281 1.5781 -6.8594 Q1.5781 -7.6719 1.9766 -8.2734 Q2.375 -8.875 3.1094 -9.1875 Q3.8438 -9.5 4.8281 -9.5 Q6.4531 -9.5 7.6719 -9.0781 L7.2344 -7.0625 L6.4531 -7.0625 Z" stroke="none"/></g><g text-rendering="optimizeLegibility" transform="translate(52.8113,24.3851)" color-rendering="optimizeQuality" color-interpolation="linearRGB" image-rendering="optimizeQuality"><path d="M3.7344 -13.1719 L3.7344 -11.2656 L1.9375 -11.2656 L1.9375 -13.1719 L3.7344 -13.1719 Z" stroke="none"/></g><g text-rendering="optimizeLegibility" transform="translate(59.491,28.6663)" color-rendering="optimizeQuality" color-interpolation="linearRGB" image-rendering="optimizeQuality"><path d="M2.5156 -3.8125 L2.7344 -3.8125 Q2.9531 -3.8125 3.1953 -3.8906 Q3.4375 -3.9688 3.7188 -4.1484 Q4 -4.3281 4.4688 -4.7031 Q4.8281 -4.9844 5 -5.1875 Q5.1719 -5.3906 5.2344 -5.5391 Q5.2969 -5.6875 5.2969 -5.8281 Q5.2969 -6.1562 4.8281 -6.2031 L4.9062 -6.5312 L7.1094 -6.5312 L7.25 -6.2031 Q6.6719 -5.6875 6.0469 -5.2031 L4.3125 -3.8438 L5.3438 -1.2656 Q5.4688 -0.9062 5.6172 -0.7188 Q5.7656 -0.5312 5.9531 -0.4453 Q6.1406 -0.3594 6.4375 -0.3281 L6.3594 0 L4.5312 0 L3.5312 -2.8125 Q3.4375 -3.0781 3.3672 -3.1719 Q3.2969 -3.2656 3.2109 -3.3047 Q3.125 -3.3438 2.9219 -3.3438 L2.4219 -3.3438 L1.7031 0 L0.5312 0 L2.2812 -7.8125 Q2.3594 -8.1562 2.3906 -8.3125 Q2.4219 -8.4688 2.4375 -8.5938 Q2.4531 -8.7188 2.4531 -8.8281 Q2.4531 -9.1094 2.2734 -9.2266 Q2.0938 -9.3438 1.6406 -9.3594 L1.7344 -9.7188 L3.4531 -9.7812 L3.8594 -9.7812 L2.5156 -3.8125 Z" stroke="none"/></g><g text-rendering="optimizeLegibility" transform="translate(80.3976,23.1069) matrix(1,0,0,1.3737,0,0)" color-rendering="optimizeQuality" color-interpolation="linearRGB" image-rendering="optimizeQuality"><path d="M7.2188 4.25 Q5.5625 4.25 4.5078 3.75 Q3.4531 3.25 2.8672 2.2344 Q2.2812 1.2188 2.0234 -0.4141 Q1.7656 -2.0469 1.7656 -4.8438 Q1.7656 -7.625 2.0234 -9.2656 Q2.2812 -10.9062 2.8672 -11.9453 Q3.4531 -12.9844 4.5078 -13.5 Q5.5625 -14.0156 7.2188 -14.0156 L7.2188 -13.2188 Q6.5312 -13.2188 6 -13.0938 Q5.4062 -12.9531 4.9844 -12.5625 Q4.5156 -12.1406 4.2344 -11.375 Q3.8906 -10.4688 3.7188 -8.9844 Q3.5469 -7.4062 3.5469 -4.9219 Q3.5469 -2.7188 3.6953 -1.1797 Q3.8438 0.3594 4.1875 1.3281 Q4.4531 2.1562 4.8594 2.6094 Q5.2188 3.0156 5.7188 3.2188 Q6.2969 3.4531 7.2188 3.4531 L7.2188 4.25 Z" stroke="none"/></g><g text-rendering="optimizeLegibility" transform="translate(89.6163,23.6195)" color-rendering="optimizeQuality" color-interpolation="linearRGB" image-rendering="optimizeQuality"><path d="M3.5938 -5.4375 L3.9062 -5.4375 Q4.2031 -5.4375 4.5547 -5.5547 Q4.9062 -5.6719 5.3125 -5.9219 Q5.7188 -6.1719 6.3906 -6.7031 Q6.8906 -7.125 7.1406 -7.4141 Q7.3906 -7.7031 7.4766 -7.9141 Q7.5625 -8.125 7.5625 -8.3281 Q7.5625 -8.7969 6.8906 -8.8594 L7 -9.3438 L10.1719 -9.3438 L10.3594 -8.8594 Q9.5469 -8.125 8.6406 -7.4219 L6.1562 -5.5 L7.625 -1.7969 Q7.8281 -1.2969 8.0312 -1.0312 Q8.2344 -0.7656 8.5 -0.6406 Q8.7656 -0.5156 9.1875 -0.4844 L9.0781 0 L6.4688 0 L5.0469 -4.0156 Q4.9062 -4.3906 4.8125 -4.5312 Q4.7188 -4.6719 4.5938 -4.7266 Q4.4688 -4.7812 4.1875 -4.7812 L3.4531 -4.7812 L2.4375 0 L0.75 0 L3.2656 -11.1562 Q3.375 -11.6562 3.4141 -11.875 Q3.4531 -12.0938 3.4766 -12.2812 Q3.5 -12.4688 3.5 -12.6094 Q3.5 -13.0156 3.25 -13.1797 Q3 -13.3438 2.3594 -13.375 L2.4688 -13.875 L4.9375 -13.9688 L5.5156 -13.9688 L3.5938 -5.4375 Z" stroke="none"/></g><g text-rendering="optimizeLegibility" transform="translate(100.7569,23.6195)" color-rendering="optimizeQuality" color-interpolation="linearRGB" image-rendering="optimizeQuality"><path d="M1.2188 -7.0625 L1.2188 -8.4219 L9.8594 -8.4219 L9.8594 -7.0625 L1.2188 -7.0625 ZM1.2188 -3.0156 L1.2188 -4.3594 L9.8594 -4.3594 L9.8594 -3.0156 L1.2188 -3.0156 Z" stroke="none"/></g><g text-rendering="optimizeLegibility" transform="translate(112.6163,23.6195)" color-rendering="optimizeQuality" color-interpolation="linearRGB" image-rendering="optimizeQuality"><path d="M4.6562 -7.3125 L4.9688 -7.3125 Q5.375 -7.3125 5.7188 -7.4453 Q6.0625 -7.5781 6.5078 -7.9375 Q6.9531 -8.2969 7.9375 -9.2656 Q8.9219 -10.2344 9.3359 -10.7344 Q9.75 -11.2344 9.9375 -11.6016 Q10.125 -11.9688 10.125 -12.2812 Q10.125 -12.5156 9.9297 -12.6719 Q9.7344 -12.8281 9.375 -12.8594 L9.4844 -13.3281 L13.6719 -13.3281 L13.5625 -12.8594 Q13.1719 -12.7969 12.6797 -12.4453 Q12.1875 -12.0938 11.1719 -11.0938 L7.3906 -7.4062 L9.4688 -2.4062 Q9.7344 -1.7656 9.8906 -1.4688 Q10.0469 -1.1719 10.2344 -0.9688 Q10.4219 -0.7656 10.6562 -0.6484 Q10.8906 -0.5312 11.2188 -0.4844 L11.1094 0 L7.3438 0 L7.4531 -0.4844 Q7.9844 -0.5312 7.9844 -0.9531 Q7.9844 -1.0781 7.9609 -1.2109 Q7.9375 -1.3438 7.8516 -1.6094 Q7.7656 -1.875 7.625 -2.25 L6.3438 -5.3594 Q6.125 -5.9062 5.9609 -6.1328 Q5.7969 -6.3594 5.6094 -6.4453 Q5.4219 -6.5312 5.0312 -6.5312 L4.4844 -6.5312 L3.6719 -2.8438 Q3.5469 -2.25 3.5078 -1.9141 Q3.4688 -1.5781 3.4688 -1.3125 Q3.4688 -0.875 3.6875 -0.6953 Q3.9062 -0.5156 4.4219 -0.4844 L4.3125 0 L0.4062 0 L0.5156 -0.4844 Q0.8906 -0.5312 1.0781 -0.6641 Q1.2656 -0.7969 1.3906 -1.0312 Q1.5156 -1.2656 1.625 -1.6016 Q1.7344 -1.9375 1.9375 -2.9062 L3.6094 -10.4375 Q3.7031 -10.875 3.7578 -11.2891 Q3.8125 -11.7031 3.8125 -12 Q3.8125 -12.4688 3.5781 -12.6484 Q3.3438 -12.8281 2.8594 -12.8594 L2.9688 -13.3281 L6.875 -13.3281 L6.7656 -12.8594 Q6.3906 -12.7812 6.2344 -12.6797 Q6.0781 -12.5781 5.9453 -12.3828 Q5.8125 -12.1875 5.6797 -11.7734 Q5.5469 -11.3594 5.3438 -10.4219 L4.6562 -7.3125 Z" stroke="none"/></g><g text-rendering="optimizeLegibility" transform="translate(126.2882,26.8851)" color-rendering="optimizeQuality" color-interpolation="linearRGB" image-rendering="optimizeQuality"><path d="M4.5156 -4.9375 Q4.4375 -5.5625 4.1641 -5.8359 Q3.8906 -6.1094 3.2969 -6.1094 Q2.9844 -6.1094 2.7266 -5.9922 Q2.4688 -5.875 2.3125 -5.6484 Q2.1562 -5.4219 2.1562 -5.1094 Q2.1562 -4.8594 2.2578 -4.6484 Q2.3594 -4.4375 2.6016 -4.2109 Q2.8438 -3.9844 3.2812 -3.6875 Q3.9531 -3.25 4.2188 -2.8281 Q4.4844 -2.4062 4.4844 -1.8594 Q4.4844 -1.2188 4.1797 -0.7734 Q3.875 -0.3281 3.3359 -0.1094 Q2.7969 0.1094 2.1406 0.1094 Q1.5312 0.1094 1.0078 0.0234 Q0.4844 -0.0625 0 -0.2031 L0.3125 -1.6875 L0.8438 -1.6875 Q0.8906 -1.0469 1.2031 -0.7422 Q1.5156 -0.4375 2.1094 -0.4375 Q2.7188 -0.4375 3.0625 -0.7422 Q3.4062 -1.0469 3.4062 -1.5312 Q3.4062 -1.8281 3.3047 -2.0625 Q3.2031 -2.2969 2.9844 -2.5078 Q2.7656 -2.7188 2.3594 -3 Q1.9219 -3.2812 1.6562 -3.5469 Q1.3906 -3.8125 1.2422 -4.125 Q1.0938 -4.4375 1.0938 -4.8125 Q1.0938 -5.375 1.375 -5.7891 Q1.6562 -6.2031 2.1719 -6.4219 Q2.6875 -6.6406 3.3906 -6.6406 Q4.5156 -6.6406 5.375 -6.3438 L5.0625 -4.9375 L4.5156 -4.9375 Z" stroke="none"/></g><g text-rendering="optimizeLegibility" transform="translate(128.1319,13.6663)" color-rendering="optimizeQuality" color-interpolation="linearRGB" image-rendering="optimizeQuality"><path d="M1.7344 0.1094 Q1.5 1.2031 1.0938 1.8516 Q0.6875 2.5 0.1094 2.7812 Q-0.4688 3.0625 -1.2969 3.0625 Q-1.5938 3.0625 -1.8438 2.9844 L-1.6875 2.3906 Q-1.5156 2.4375 -1.2031 2.4375 Q-0.8438 2.4375 -0.6172 2.3438 Q-0.3906 2.25 -0.1953 2.0312 Q0 1.8125 0.1797 1.3984 Q0.3594 0.9844 0.5156 0.3125 L1.9062 -5.8438 L1.0781 -5.8438 L1.1562 -6.1875 Q1.4844 -6.2344 1.625 -6.2891 Q1.7656 -6.3438 1.8516 -6.4453 Q1.9375 -6.5469 2.0078 -6.7266 Q2.0781 -6.9062 2.2031 -7.3438 Q2.5625 -8.5781 3.3203 -9.1953 Q4.0781 -9.8125 5.25 -9.8125 Q5.9062 -9.8125 6.4062 -9.7031 L6.125 -8.5469 L5.5312 -8.5469 Q5.4375 -8.9375 5.2812 -9.1094 Q5.125 -9.2812 4.8281 -9.2812 Q4.4375 -9.2812 4.1641 -9.0703 Q3.8906 -8.8594 3.6953 -8.4297 Q3.5 -8 3.3438 -7.2812 L3.1719 -6.5312 L4.7344 -6.5312 L4.5781 -5.8438 L3.0156 -5.8438 L1.7344 0.1094 Z" stroke="none"/></g><g text-rendering="optimizeLegibility" transform="translate(136.3038,23.6195)" color-rendering="optimizeQuality" color-interpolation="linearRGB" image-rendering="optimizeQuality"><path d="M3.0156 -2.2656 Q3.1562 -1.5781 3.1562 -0.9219 Q3.1562 -0.2344 2.9219 0.3359 Q2.6875 0.9062 2.1719 1.4609 Q1.6562 2.0156 0.7656 2.7031 L0.2344 2.0938 Q0.7344 1.625 0.9609 1.25 Q1.1875 0.875 1.2812 0.3984 Q1.375 -0.0781 1.375 -0.7969 Q1.375 -1.5469 1.3125 -2.2656 L3.0156 -2.2656 Z" stroke="none"/></g><g text-rendering="optimizeLegibility" transform="translate(138.6007,23.6195)" color-rendering="optimizeQuality" color-interpolation="linearRGB" image-rendering="optimizeQuality"><path d="M8.8125 -4.5312 L8.8125 0 L4.8594 0 L4.8594 -4.5312 L8.8125 -4.5312 ZM18.375 -4.5312 L18.375 0 L14.4375 0 L14.4375 -4.5312 L18.375 -4.5312 ZM27.9531 -4.5312 L27.9531 0 L24 0 L24 -4.5312 L27.9531 -4.5312 Z" stroke="none"/></g><g text-rendering="optimizeLegibility" transform="translate(170.3194,23.6195)" color-rendering="optimizeQuality" color-interpolation="linearRGB" image-rendering="optimizeQuality"><path d="M3.0156 -2.2656 Q3.1562 -1.5781 3.1562 -0.9219 Q3.1562 -0.2344 2.9219 0.3359 Q2.6875 0.9062 2.1719 1.4609 Q1.6562 2.0156 0.7656 2.7031 L0.2344 2.0938 Q0.7344 1.625 0.9609 1.25 Q1.1875 0.875 1.2812 0.3984 Q1.375 -0.0781 1.375 -0.7969 Q1.375 -1.5469 1.3125 -2.2656 L3.0156 -2.2656 Z" stroke="none"/></g><g text-rendering="optimizeLegibility" transform="translate(175.4757,23.6195)" color-rendering="optimizeQuality" color-interpolation="linearRGB" image-rendering="optimizeQuality"><path d="M4.6562 -7.3125 L4.9688 -7.3125 Q5.375 -7.3125 5.7188 -7.4453 Q6.0625 -7.5781 6.5078 -7.9375 Q6.9531 -8.2969 7.9375 -9.2656 Q8.9219 -10.2344 9.3359 -10.7344 Q9.75 -11.2344 9.9375 -11.6016 Q10.125 -11.9688 10.125 -12.2812 Q10.125 -12.5156 9.9297 -12.6719 Q9.7344 -12.8281 9.375 -12.8594 L9.4844 -13.3281 L13.6719 -13.3281 L13.5625 -12.8594 Q13.1719 -12.7969 12.6797 -12.4453 Q12.1875 -12.0938 11.1719 -11.0938 L7.3906 -7.4062 L9.4688 -2.4062 Q9.7344 -1.7656 9.8906 -1.4688 Q10.0469 -1.1719 10.2344 -0.9688 Q10.4219 -0.7656 10.6562 -0.6484 Q10.8906 -0.5312 11.2188 -0.4844 L11.1094 0 L7.3438 0 L7.4531 -0.4844 Q7.9844 -0.5312 7.9844 -0.9531 Q7.9844 -1.0781 7.9609 -1.2109 Q7.9375 -1.3438 7.8516 -1.6094 Q7.7656 -1.875 7.625 -2.25 L6.3438 -5.3594 Q6.125 -5.9062 5.9609 -6.1328 Q5.7969 -6.3594 5.6094 -6.4453 Q5.4219 -6.5312 5.0312 -6.5312 L4.4844 -6.5312 L3.6719 -2.8438 Q3.5469 -2.25 3.5078 -1.9141 Q3.4688 -1.5781 3.4688 -1.3125 Q3.4688 -0.875 3.6875 -0.6953 Q3.9062 -0.5156 4.4219 -0.4844 L4.3125 0 L0.4062 0 L0.5156 -0.4844 Q0.8906 -0.5312 1.0781 -0.6641 Q1.2656 -0.7969 1.3906 -1.0312 Q1.5156 -1.2656 1.625 -1.6016 Q1.7344 -1.9375 1.9375 -2.9062 L3.6094 -10.4375 Q3.7031 -10.875 3.7578 -11.2891 Q3.8125 -11.7031 3.8125 -12 Q3.8125 -12.4688 3.5781 -12.6484 Q3.3438 -12.8281 2.8594 -12.8594 L2.9688 -13.3281 L6.875 -13.3281 L6.7656 -12.8594 Q6.3906 -12.7812 6.2344 -12.6797 Q6.0781 -12.5781 5.9453 -12.3828 Q5.8125 -12.1875 5.6797 -11.7734 Q5.5469 -11.3594 5.3438 -10.4219 L4.6562 -7.3125 Z" stroke="none"/></g><g text-rendering="optimizeLegibility" transform="translate(189.1476,26.8851)" color-rendering="optimizeQuality" color-interpolation="linearRGB" image-rendering="optimizeQuality"><path d="M4.5156 -4.9375 Q4.4375 -5.5625 4.1641 -5.8359 Q3.8906 -6.1094 3.2969 -6.1094 Q2.9844 -6.1094 2.7266 -5.9922 Q2.4688 -5.875 2.3125 -5.6484 Q2.1562 -5.4219 2.1562 -5.1094 Q2.1562 -4.8594 2.2578 -4.6484 Q2.3594 -4.4375 2.6016 -4.2109 Q2.8438 -3.9844 3.2812 -3.6875 Q3.9531 -3.25 4.2188 -2.8281 Q4.4844 -2.4062 4.4844 -1.8594 Q4.4844 -1.2188 4.1797 -0.7734 Q3.875 -0.3281 3.3359 -0.1094 Q2.7969 0.1094 2.1406 0.1094 Q1.5312 0.1094 1.0078 0.0234 Q0.4844 -0.0625 0 -0.2031 L0.3125 -1.6875 L0.8438 -1.6875 Q0.8906 -1.0469 1.2031 -0.7422 Q1.5156 -0.4375 2.1094 -0.4375 Q2.7188 -0.4375 3.0625 -0.7422 Q3.4062 -1.0469 3.4062 -1.5312 Q3.4062 -1.8281 3.3047 -2.0625 Q3.2031 -2.2969 2.9844 -2.5078 Q2.7656 -2.7188 2.3594 -3 Q1.9219 -3.2812 1.6562 -3.5469 Q1.3906 -3.8125 1.2422 -4.125 Q1.0938 -4.4375 1.0938 -4.8125 Q1.0938 -5.375 1.375 -5.7891 Q1.6562 -6.2031 2.1719 -6.4219 Q2.6875 -6.6406 3.3906 -6.6406 Q4.5156 -6.6406 5.375 -6.3438 L5.0625 -4.9375 L4.5156 -4.9375 Z" stroke="none"/></g><g text-rendering="optimizeLegibility" transform="translate(189.1476,15.182)" color-rendering="optimizeQuality" color-interpolation="linearRGB" image-rendering="optimizeQuality"><path d="M3.4531 -9.7812 L3.8594 -9.7812 L2.0781 -1.7031 Q2 -1.375 1.9844 -1.2109 Q1.9688 -1.0469 1.9688 -0.9375 Q1.9688 -0.7188 2.0312 -0.6094 Q2.0938 -0.5 2.2422 -0.4375 Q2.3906 -0.375 2.7188 -0.3281 L2.6562 0 L0.5312 0 L2.2969 -7.8438 Q2.3594 -8.1562 2.3828 -8.3047 Q2.4062 -8.4531 2.4219 -8.5859 Q2.4375 -8.7188 2.4375 -8.8281 Q2.4375 -9.0312 2.3672 -9.1406 Q2.2969 -9.25 2.1562 -9.2969 Q2.0156 -9.3438 1.6406 -9.3594 L1.7344 -9.7188 L3.4531 -9.7812 Z" stroke="none"/></g><g text-rendering="optimizeLegibility" transform="translate(196.1007,23.1069) matrix(1,0,0,1.3737,0,0)" color-rendering="optimizeQuality" color-interpolation="linearRGB" image-rendering="optimizeQuality"><path d="M0.4219 -14.0156 Q2.0781 -14.0156 3.1328 -13.5156 Q4.1875 -13.0156 4.7734 -12 Q5.3594 -10.9844 5.6172 -9.3516 Q5.875 -7.7188 5.875 -4.9219 Q5.875 -2.1562 5.6172 -0.5078 Q5.3594 1.1406 4.7734 2.1797 Q4.1875 3.2188 3.1328 3.7344 Q2.0781 4.25 0.4219 4.25 L0.4219 3.4531 Q1.1094 3.4531 1.625 3.3281 Q2.2344 3.1875 2.6406 2.7969 Q3.1094 2.375 3.4062 1.6094 Q3.75 0.7031 3.9219 -0.7812 Q4.0938 -2.3594 4.0938 -4.8438 Q4.0938 -7.0469 3.9453 -8.5859 Q3.7969 -10.125 3.4531 -11.0938 Q3.1875 -11.9219 2.7812 -12.375 Q2.4062 -12.7812 1.9219 -12.9844 Q1.3438 -13.2188 0.4219 -13.2188 L0.4219 -14.0156 Z" stroke="none"/></g></g></svg>