<?xml version="1.0" encoding="UTF-8" standalone="no"?><svg xmlns="http://www.w3.org/2000/svg" xmlns:xlink="http://www.w3.org/1999/xlink" stroke-dasharray="none" shape-rendering="auto" font-family="'Dialog'" width="161.812600" text-rendering="auto" fill-opacity="1" contentScriptType="text/ecmascript" color-interpolation="auto" color-rendering="auto" preserveAspectRatio="xMidYMid meet" font-size="12" fill="black" stroke="black" image-rendering="auto" stroke-miterlimit="10" zoomAndPan="magnify" version="1.0" stroke-linecap="square" stroke-linejoin="miter" contentStyleType="text/css" font-style="normal" height="55" stroke-width="1" stroke-dashoffset="0" font-weight="normal" stroke-opacity="1" y="-20.000000"><!--Converted from MathML using JEuclid--><defs id="genericDefs"/><g><g text-rendering="optimizeLegibility" stroke-width="1.6667" color-interpolation="linearRGB" color-rendering="optimizeQuality" image-rendering="optimizeQuality"><line y2="27.78" fill="none" x1="1.6778" x2="25.1309" y1="27.78"/><path d="M8.5 -11.2188 Q8.5781 -11.5312 8.6328 -11.9219 Q8.6875 -12.3125 8.6875 -12.6094 Q8.6875 -12.9062 8.5859 -13.0547 Q8.4844 -13.2031 8.2812 -13.2734 Q8.0781 -13.3438 7.5625 -13.375 L7.6719 -13.875 L10.125 -13.9688 L10.7031 -13.9688 L8.1719 -2.7188 Q8.0312 -2.0938 7.9844 -1.7969 Q7.9375 -1.5 7.9375 -1.2969 Q7.9375 -0.8906 8.1641 -0.7109 Q8.3906 -0.5312 9.0312 -0.4844 L8.9375 0 L6.1406 0 L6.7656 -2.4531 L6.625 -2.4844 Q5.6875 -1.125 4.8516 -0.4922 Q4.0156 0.1406 3.0781 0.1406 Q2 0.1406 1.4141 -0.6641 Q0.8281 -1.4688 0.8281 -2.9375 Q0.8281 -3.875 1.0391 -4.8203 Q1.25 -5.7656 1.6875 -6.6094 Q2.125 -7.4531 2.7266 -8.0938 Q3.3281 -8.7344 4.125 -9.1172 Q4.9219 -9.5 5.8594 -9.5 Q6.4531 -9.5 6.9609 -9.3828 Q7.4688 -9.2656 7.9844 -8.9531 L8.5 -11.2188 ZM7.2812 -5.9531 Q7.4375 -6.6562 7.4375 -7.2812 Q7.4375 -8.0312 7.1094 -8.3828 Q6.7812 -8.7344 6.0312 -8.7344 Q5.625 -8.7344 5.2578 -8.6016 Q4.8906 -8.4688 4.5078 -8.1641 Q4.125 -7.8594 3.7734 -7.3594 Q3.4219 -6.8594 3.1406 -6.1484 Q2.8594 -5.4375 2.7031 -4.6172 Q2.5469 -3.7969 2.5469 -3.0312 Q2.5469 -2.0156 2.8281 -1.5078 Q3.1094 -1 3.7656 -1 Q4.0625 -1 4.3906 -1.1406 Q4.7188 -1.2812 5.1172 -1.6484 Q5.5156 -2.0156 6.0312 -2.7188 Q6.4844 -3.375 6.75 -4.0156 Q7.0156 -4.6562 7.2031 -5.5312 L7.2812 -5.9531 Z" stroke-width="1" transform="translate(1.6778,25.1283)" stroke="none"/></g><g text-rendering="optimizeLegibility" transform="translate(12.3809,25.1283)" color-rendering="optimizeQuality" color-interpolation="linearRGB" image-rendering="optimizeQuality"><path d="M6.9531 0 L2.8438 0 L2.9531 -0.4844 Q3.3281 -0.5312 3.5156 -0.6328 Q3.7031 -0.7344 3.8438 -0.9375 Q3.9844 -1.1406 4.1328 -1.5781 Q4.2812 -2.0156 4.4688 -2.9062 L6.5625 -12.4688 L5.3281 -12.4688 Q4.7188 -12.4688 4.3594 -12.2969 Q4 -12.125 3.6328 -11.6406 Q3.2656 -11.1562 2.75 -10.0469 L1.8125 -10.0469 L2.5469 -13.3281 L12.75 -13.3281 L11.9844 -9.8906 L11.0469 -9.8906 Q11.0469 -10.8438 11 -11.3125 Q10.9531 -11.7812 10.8125 -12.0312 Q10.6719 -12.2812 10.4766 -12.375 Q10.2812 -12.4688 9.7656 -12.4688 L8.3281 -12.4688 L6.2031 -2.8438 Q6.1094 -2.4688 6.0781 -2.2422 Q6.0469 -2.0156 6.0234 -1.7656 Q6 -1.5156 6 -1.3125 Q6 -1.0156 6.0938 -0.8438 Q6.1875 -0.6719 6.3828 -0.5938 Q6.5781 -0.5156 7.0625 -0.4844 L6.9531 0 Z" stroke="none"/></g><g text-rendering="optimizeLegibility" transform="translate(4.2325,44.2599)" color-rendering="optimizeQuality" color-interpolation="linearRGB" image-rendering="optimizeQuality"><path d="M8.5 -11.2188 Q8.5781 -11.5312 8.6328 -11.9219 Q8.6875 -12.3125 8.6875 -12.6094 Q8.6875 -12.9062 8.5859 -13.0547 Q8.4844 -13.2031 8.2812 -13.2734 Q8.0781 -13.3438 7.5625 -13.375 L7.6719 -13.875 L10.125 -13.9688 L10.7031 -13.9688 L8.1719 -2.7188 Q8.0312 -2.0938 7.9844 -1.7969 Q7.9375 -1.5 7.9375 -1.2969 Q7.9375 -0.8906 8.1641 -0.7109 Q8.3906 -0.5312 9.0312 -0.4844 L8.9375 0 L6.1406 0 L6.7656 -2.4531 L6.625 -2.4844 Q5.6875 -1.125 4.8516 -0.4922 Q4.0156 0.1406 3.0781 0.1406 Q2 0.1406 1.4141 -0.6641 Q0.8281 -1.4688 0.8281 -2.9375 Q0.8281 -3.875 1.0391 -4.8203 Q1.25 -5.7656 1.6875 -6.6094 Q2.125 -7.4531 2.7266 -8.0938 Q3.3281 -8.7344 4.125 -9.1172 Q4.9219 -9.5 5.8594 -9.5 Q6.4531 -9.5 6.9609 -9.3828 Q7.4688 -9.2656 7.9844 -8.9531 L8.5 -11.2188 ZM7.2812 -5.9531 Q7.4375 -6.6562 7.4375 -7.2812 Q7.4375 -8.0312 7.1094 -8.3828 Q6.7812 -8.7344 6.0312 -8.7344 Q5.625 -8.7344 5.2578 -8.6016 Q4.8906 -8.4688 4.5078 -8.1641 Q4.125 -7.8594 3.7734 -7.3594 Q3.4219 -6.8594 3.1406 -6.1484 Q2.8594 -5.4375 2.7031 -4.6172 Q2.5469 -3.7969 2.5469 -3.0312 Q2.5469 -2.0156 2.8281 -1.5078 Q3.1094 -1 3.7656 -1 Q4.0625 -1 4.3906 -1.1406 Q4.7188 -1.2812 5.1172 -1.6484 Q5.5156 -2.0156 6.0312 -2.7188 Q6.4844 -3.375 6.75 -4.0156 Q7.0156 -4.6562 7.2031 -5.5312 L7.2812 -5.9531 Z" stroke="none"/></g><g text-rendering="optimizeLegibility" transform="translate(14.9356,44.2599)" color-rendering="optimizeQuality" color-interpolation="linearRGB" image-rendering="optimizeQuality"><path d="M6.5938 -1.7969 Q5.7969 -0.8281 5.0156 -0.3359 Q4.2344 0.1562 3.3438 0.1562 Q2.3125 0.1562 1.8047 -0.375 Q1.2969 -0.9062 1.2969 -1.9062 Q1.2969 -2.5156 1.4688 -3.2812 L2.6875 -8.3438 L1.2344 -8.3438 L1.3438 -8.8438 Q1.9219 -8.9219 2.2578 -9.1016 Q2.5938 -9.2812 2.8203 -9.5781 Q3.0469 -9.875 3.2422 -10.3516 Q3.4375 -10.8281 3.7344 -11.75 L5.0781 -11.75 L4.5469 -9.3438 L7.6406 -9.3438 L7.4219 -8.3438 L4.3125 -8.3438 L3.375 -4.5625 Q2.9844 -2.9844 2.9844 -2.2031 Q2.9844 -1.6094 3.2422 -1.2969 Q3.5 -0.9844 4 -0.9844 Q4.4531 -0.9844 4.9453 -1.3359 Q5.4375 -1.6875 6.0312 -2.3906 L6.5938 -1.7969 Z" stroke="none"/></g><g text-rendering="optimizeLegibility" transform="translate(29.2566,35)" color-rendering="optimizeQuality" color-interpolation="linearRGB" image-rendering="optimizeQuality"><path d="M1.2188 -7.0625 L1.2188 -8.4219 L9.8594 -8.4219 L9.8594 -7.0625 L1.2188 -7.0625 ZM1.2188 -3.0156 L1.2188 -4.3594 L9.8594 -4.3594 L9.8594 -3.0156 L1.2188 -3.0156 Z" stroke="none"/></g><g text-rendering="optimizeLegibility" stroke-width="1.6667" color-interpolation="linearRGB" color-rendering="optimizeQuality" image-rendering="optimizeQuality"><line y2="27.78" fill="none" x1="42.7938" x2="68.4188" y1="27.78"/><path d="M6.7812 -2.5469 Q6.7812 -1.9844 6.8516 -1.6953 Q6.9219 -1.4062 7.0781 -1.2266 Q7.2344 -1.0469 7.5391 -0.9453 Q7.8438 -0.8438 8.3047 -0.7891 Q8.7656 -0.7344 9.5156 -0.7188 L9.5156 0 L2.2969 0 L2.2969 -0.7188 Q3.375 -0.7656 3.8438 -0.8438 Q4.3125 -0.9219 4.5547 -1.0938 Q4.7969 -1.2656 4.9062 -1.5625 Q5.0156 -1.8594 5.0156 -2.5469 L5.0156 -10.4688 Q5.0156 -10.8594 4.8828 -11.0391 Q4.75 -11.2188 4.4844 -11.2188 Q4.1719 -11.2188 3.5938 -10.8984 Q3.0156 -10.5781 2.1719 -10.0156 L1.7344 -10.7656 L6.3125 -13.4844 L6.8438 -13.4844 Q6.7812 -12.5469 6.7812 -10.8906 L6.7812 -2.5469 Z" stroke-width="1" transform="translate(50.8484,25.2689)" stroke="none"/></g><g text-rendering="optimizeLegibility" transform="translate(43.1531,41.6349)" color-rendering="optimizeQuality" color-interpolation="linearRGB" image-rendering="optimizeQuality"><path d="M2.3438 -0.7031 L1.2344 4.2188 L-0.3594 4.2188 L1.6094 -4.625 Q2.6875 -9.5 6.625 -9.5 Q8.0625 -9.5 8.8828 -8.6641 Q9.7031 -7.8281 9.7031 -6.2969 Q9.7031 -4.0312 8.2344 -1.9375 Q6.7656 0.1562 4.4062 0.1562 Q3.2188 0.1562 2.3438 -0.7031 ZM3.0781 -4.0781 L2.6719 -2.25 Q2.6406 -2.1094 2.6406 -1.9688 Q2.6406 -1.4688 3.2109 -1.0391 Q3.7812 -0.6094 4.4844 -0.6094 Q5.875 -0.6094 6.9297 -2.4766 Q7.9844 -4.3438 7.9844 -6.5312 Q7.9844 -8.7188 6.3125 -8.7188 Q4.0781 -8.7188 3.0781 -4.0781 Z" stroke="none"/></g><g text-rendering="optimizeLegibility" transform="translate(52.8563,41.6349)" color-rendering="optimizeQuality" color-interpolation="linearRGB" image-rendering="optimizeQuality"><path d="M7.1719 -7 Q7.1562 -7.7344 7.0547 -8.0703 Q6.9531 -8.4062 6.7266 -8.5703 Q6.5 -8.7344 6.0781 -8.7344 Q5.0938 -8.7344 4.3047 -7.9453 Q3.5156 -7.1562 3.0156 -5.7188 Q2.5156 -4.2812 2.5156 -2.9531 Q2.5156 -2.5469 2.5938 -2.1797 Q2.6719 -1.8125 2.8516 -1.5547 Q3.0312 -1.2969 3.3281 -1.1406 Q3.625 -0.9844 4.0781 -0.9844 Q4.9688 -0.9844 5.6172 -1.3203 Q6.2656 -1.6562 7 -2.3906 L7.5938 -1.7812 Q6.6719 -0.7656 5.7422 -0.2969 Q4.8125 0.1719 3.7344 0.1719 Q2.3125 0.1719 1.5781 -0.6719 Q0.8438 -1.5156 0.8438 -3.1094 Q0.8438 -4.1562 1.2344 -5.4062 Q1.625 -6.6562 2.3828 -7.6094 Q3.1406 -8.5625 4.1406 -9.0312 Q5.1406 -9.5 6.2969 -9.5 Q7.0781 -9.5 7.6562 -9.4062 Q8.2344 -9.3125 8.6875 -9.2031 L8.2031 -7 L7.1719 -7 Z" stroke="none"/></g><g text-rendering="optimizeLegibility" transform="translate(55.2078,39.2599)" color-rendering="optimizeQuality" color-interpolation="linearRGB" image-rendering="optimizeQuality"><path d="M3.7969 -8.125 L0.1875 -8.125 L0.1875 -8.9688 L3.7969 -8.9688 L3.7969 -8.125 Z" stroke="none"/></g><g text-rendering="optimizeLegibility" transform="translate(61.6063,43.6583)" color-rendering="optimizeQuality" color-interpolation="linearRGB" image-rendering="optimizeQuality"><path d="M1.4688 1.2031 Q1.3906 1.5312 1.375 1.7109 Q1.3594 1.8906 1.3594 2.0156 Q1.3594 2.2188 1.4297 2.3359 Q1.5 2.4531 1.6406 2.5156 Q1.7812 2.5781 2.1094 2.6094 L2.0625 2.9375 L-0.0625 2.9375 L1.6719 -4.6562 Q1.8125 -5.2344 1.8125 -5.6406 Q1.8125 -5.8438 1.75 -5.9453 Q1.6875 -6.0469 1.5469 -6.1016 Q1.4062 -6.1562 1.0781 -6.1719 L1.1562 -6.5312 L2.7031 -6.5938 L3.0938 -6.5938 L2.6406 -4.8125 L2.7188 -4.7969 Q3.9844 -6.6406 5.2344 -6.6406 Q5.9844 -6.6406 6.3984 -6.0781 Q6.8125 -5.5156 6.8125 -4.4844 Q6.8125 -3.7344 6.6094 -2.9922 Q6.4062 -2.25 6.0469 -1.6484 Q5.6875 -1.0469 5.25 -0.6641 Q4.8125 -0.2812 4.3203 -0.0859 Q3.8281 0.1094 3.2812 0.1094 Q2.375 0.1094 1.7812 -0.2812 L1.4688 1.2031 ZM2.2812 -2.375 Q2.2188 -2.0156 2.2031 -1.8281 Q2.1875 -1.6406 2.1875 -1.4531 Q2.1875 -0.9219 2.4141 -0.6797 Q2.6406 -0.4375 3.2031 -0.4375 Q3.5469 -0.4375 3.8438 -0.5703 Q4.1406 -0.7031 4.3984 -0.9609 Q4.6562 -1.2188 4.875 -1.5938 Q5.0938 -1.9688 5.2578 -2.4531 Q5.4219 -2.9375 5.5078 -3.4531 Q5.5938 -3.9688 5.5938 -4.4219 Q5.5938 -5.1406 5.3906 -5.4922 Q5.1875 -5.8438 4.75 -5.8438 Q4.4062 -5.8438 4.0625 -5.6094 Q3.7188 -5.375 3.3203 -4.8516 Q2.9219 -4.3281 2.6953 -3.8281 Q2.4688 -3.3281 2.3438 -2.6719 L2.2812 -2.375 Z" stroke="none"/></g><g text-rendering="optimizeLegibility" transform="translate(73.3413,35)" color-rendering="optimizeQuality" color-interpolation="linearRGB" image-rendering="optimizeQuality"><path d="M5.6562 -21.375 L13.5 -9.4688 L13.5 -8.25 L4.7031 3.8281 L15.3125 3.8281 Q16.3125 3.8281 16.8203 3.7031 Q17.3281 3.5781 17.6875 3.3125 Q18.0469 3.0469 18.3438 2.5703 Q18.6406 2.0938 18.9141 1.2578 Q19.1875 0.4219 19.4375 -0.9375 L21.3125 -0.9375 L20.8438 6.9219 L0.4219 6.9219 L0.4219 6.0312 L10.375 -7.6562 L1.0312 -22.1406 L1.0312 -23.0625 L20.9375 -23.0625 L20.9375 -15.8906 L19.1875 -15.8906 Q18.7812 -17.4219 18.4219 -18.3906 Q18.0625 -19.3594 17.6875 -19.9219 Q17.3125 -20.4844 16.9141 -20.7812 Q16.5156 -21.0781 16 -21.2266 Q15.4844 -21.375 14.625 -21.375 L5.6562 -21.375 Z" stroke="none"/></g><g text-rendering="optimizeLegibility" transform="translate(74.2241,54.2031)" color-rendering="optimizeQuality" color-interpolation="linearRGB" image-rendering="optimizeQuality"><path d="M2.5156 -3.8125 L2.7344 -3.8125 Q2.9531 -3.8125 3.1953 -3.8906 Q3.4375 -3.9688 3.7188 -4.1484 Q4 -4.3281 4.4688 -4.7031 Q4.8281 -4.9844 5 -5.1875 Q5.1719 -5.3906 5.2344 -5.5391 Q5.2969 -5.6875 5.2969 -5.8281 Q5.2969 -6.1562 4.8281 -6.2031 L4.9062 -6.5312 L7.1094 -6.5312 L7.25 -6.2031 Q6.6719 -5.6875 6.0469 -5.2031 L4.3125 -3.8438 L5.3438 -1.2656 Q5.4688 -0.9062 5.6172 -0.7188 Q5.7656 -0.5312 5.9531 -0.4453 Q6.1406 -0.3594 6.4375 -0.3281 L6.3594 0 L4.5312 0 L3.5312 -2.8125 Q3.4375 -3.0781 3.3672 -3.1719 Q3.2969 -3.2656 3.2109 -3.3047 Q3.125 -3.3438 2.9219 -3.3438 L2.4219 -3.3438 L1.7031 0 L0.5312 0 L2.2812 -7.8125 Q2.3594 -8.1562 2.3906 -8.3125 Q2.4219 -8.4688 2.4375 -8.5938 Q2.4531 -8.7188 2.4531 -8.8281 Q2.4531 -9.1094 2.2734 -9.2266 Q2.0938 -9.3438 1.6406 -9.3594 L1.7344 -9.7188 L3.4531 -9.7812 L3.8594 -9.7812 L2.5156 -3.8125 Z" stroke="none"/></g><g text-rendering="optimizeLegibility" transform="translate(80.6304,54.2031)" color-rendering="optimizeQuality" color-interpolation="linearRGB" image-rendering="optimizeQuality"><path d="M0.8438 -4.9375 L0.8438 -5.8906 L6.9062 -5.8906 L6.9062 -4.9375 L0.8438 -4.9375 ZM0.8438 -2.1094 L0.8438 -3.0625 L6.9062 -3.0625 L6.9062 -2.1094 L0.8438 -2.1094 Z" stroke="none"/></g><g text-rendering="optimizeLegibility" transform="translate(87.5366,54.2031)" color-rendering="optimizeQuality" color-interpolation="linearRGB" image-rendering="optimizeQuality"><path d="M4.75 -1.7812 Q4.75 -1.3906 4.7969 -1.1875 Q4.8438 -0.9844 4.9531 -0.8594 Q5.0625 -0.7344 5.2734 -0.6641 Q5.4844 -0.5938 5.8047 -0.5547 Q6.125 -0.5156 6.6562 -0.5 L6.6562 0 L1.6094 0 L1.6094 -0.5 Q2.3594 -0.5312 2.6875 -0.5938 Q3.0156 -0.6562 3.1875 -0.7656 Q3.3594 -0.875 3.4375 -1.0938 Q3.5156 -1.3125 3.5156 -1.7812 L3.5156 -7.3281 Q3.5156 -7.6094 3.4219 -7.7344 Q3.3281 -7.8594 3.1406 -7.8594 Q2.9219 -7.8594 2.5156 -7.6328 Q2.1094 -7.4062 1.5156 -7 L1.2188 -7.5312 L4.4219 -9.4375 L4.7969 -9.4375 Q4.75 -8.7812 4.75 -7.625 L4.75 -1.7812 Z" stroke="none"/></g><g text-rendering="optimizeLegibility" transform="translate(79.4194,9.4375)" color-rendering="optimizeQuality" color-interpolation="linearRGB" image-rendering="optimizeQuality"><path d="M3.25 -5.1094 L3.4844 -5.1094 Q3.7656 -5.1094 4 -5.2109 Q4.2344 -5.3125 4.5547 -5.5625 Q4.875 -5.8125 5.5547 -6.4922 Q6.2344 -7.1719 6.5312 -7.5234 Q6.8281 -7.875 6.9609 -8.125 Q7.0938 -8.375 7.0938 -8.5938 Q7.0938 -8.7656 6.9531 -8.8672 Q6.8125 -8.9688 6.5625 -9 L6.6406 -9.3281 L9.5781 -9.3281 L9.5 -9 Q9.2188 -8.9531 8.875 -8.7109 Q8.5312 -8.4688 7.8281 -7.7656 L5.1719 -5.1875 L6.625 -1.6875 Q6.8125 -1.2344 6.9219 -1.0312 Q7.0312 -0.8281 7.1641 -0.6875 Q7.2969 -0.5469 7.4609 -0.4609 Q7.625 -0.375 7.8594 -0.3281 L7.7812 0 L5.1406 0 L5.2188 -0.3281 Q5.5781 -0.375 5.5781 -0.6562 Q5.5781 -0.75 5.5625 -0.8438 Q5.5469 -0.9375 5.4922 -1.125 Q5.4375 -1.3125 5.3281 -1.5781 L4.4375 -3.75 Q4.2812 -4.1406 4.1641 -4.2969 Q4.0469 -4.4531 3.9219 -4.5156 Q3.7969 -4.5781 3.5156 -4.5781 L3.1406 -4.5781 L2.5781 -1.9844 Q2.4844 -1.5781 2.4531 -1.3438 Q2.4219 -1.1094 2.4219 -0.9219 Q2.4219 -0.6094 2.5781 -0.4844 Q2.7344 -0.3594 3.0938 -0.3281 L3.0156 0 L0.2812 0 L0.3594 -0.3281 Q0.625 -0.375 0.75 -0.4688 Q0.875 -0.5625 0.9688 -0.7266 Q1.0625 -0.8906 1.1328 -1.125 Q1.2031 -1.3594 1.3594 -2.0312 L2.5156 -7.2969 Q2.5938 -7.6094 2.6328 -7.9062 Q2.6719 -8.2031 2.6719 -8.4062 Q2.6719 -8.7188 2.5078 -8.8438 Q2.3438 -8.9688 2 -9 L2.0781 -9.3281 L4.8125 -9.3281 L4.7344 -9 Q4.4844 -8.9375 4.3672 -8.875 Q4.25 -8.8125 4.1562 -8.6719 Q4.0625 -8.5312 3.9766 -8.2422 Q3.8906 -7.9531 3.7344 -7.2969 L3.25 -5.1094 Z" stroke="none"/></g><g text-rendering="optimizeLegibility" transform="translate(96.6538,35)" color-rendering="optimizeQuality" color-interpolation="linearRGB" image-rendering="optimizeQuality"><path d="M9.1094 0 L6.0469 0 L7.2812 -4.9688 Q7.4062 -5.5 7.5156 -6.0547 Q7.625 -6.6094 7.625 -7.0469 Q7.625 -7.75 7.3906 -8.0469 Q7.1562 -8.3438 6.5938 -8.3438 Q6.1875 -8.3438 5.7031 -8.0156 Q5.2188 -7.6875 4.6875 -7.0078 Q4.1562 -6.3281 3.8359 -5.7109 Q3.5156 -5.0938 3.3281 -4.2344 L2.4375 0 L0.75 0 L3.2656 -11.1562 Q3.375 -11.6562 3.4141 -11.875 Q3.4531 -12.0938 3.4766 -12.2812 Q3.5 -12.4688 3.5 -12.6094 Q3.5 -13.0156 3.25 -13.1797 Q3 -13.3438 2.3594 -13.375 L2.4688 -13.875 L4.9375 -13.9688 L5.5156 -13.9688 L3.8281 -7.2031 L3.9531 -7.1562 Q4.8594 -8.375 5.6953 -8.9375 Q6.5312 -9.5 7.3906 -9.5 Q8.3281 -9.5 8.8203 -8.9766 Q9.3125 -8.4531 9.3125 -7.4219 Q9.3125 -6.7969 9.1094 -5.9219 L8.2969 -2.4375 Q8.1875 -2.0156 8.1484 -1.7656 Q8.1094 -1.5156 8.1094 -1.3281 Q8.1094 -1.0312 8.2188 -0.8594 Q8.3281 -0.6875 8.5312 -0.6094 Q8.7344 -0.5312 9.2031 -0.4844 L9.1094 0 Z" stroke="none"/></g><g text-rendering="optimizeLegibility" transform="translate(105.9663,39.8906)" color-rendering="optimizeQuality" color-interpolation="linearRGB" image-rendering="optimizeQuality"><path d="M2.5156 -3.8125 L2.7344 -3.8125 Q2.9531 -3.8125 3.1953 -3.8906 Q3.4375 -3.9688 3.7188 -4.1484 Q4 -4.3281 4.4688 -4.7031 Q4.8281 -4.9844 5 -5.1875 Q5.1719 -5.3906 5.2344 -5.5391 Q5.2969 -5.6875 5.2969 -5.8281 Q5.2969 -6.1562 4.8281 -6.2031 L4.9062 -6.5312 L7.1094 -6.5312 L7.25 -6.2031 Q6.6719 -5.6875 6.0469 -5.2031 L4.3125 -3.8438 L5.3438 -1.2656 Q5.4688 -0.9062 5.6172 -0.7188 Q5.7656 -0.5312 5.9531 -0.4453 Q6.1406 -0.3594 6.4375 -0.3281 L6.3594 0 L4.5312 0 L3.5312 -2.8125 Q3.4375 -3.0781 3.3672 -3.1719 Q3.2969 -3.2656 3.2109 -3.3047 Q3.125 -3.3438 2.9219 -3.3438 L2.4219 -3.3438 L1.7031 0 L0.5312 0 L2.2812 -7.8125 Q2.3594 -8.1562 2.3906 -8.3125 Q2.4219 -8.4688 2.4375 -8.5938 Q2.4531 -8.7188 2.4531 -8.8281 Q2.4531 -9.1094 2.2734 -9.2266 Q2.0938 -9.3438 1.6406 -9.3594 L1.7344 -9.7188 L3.4531 -9.7812 L3.8594 -9.7812 L2.5156 -3.8125 Z" stroke="none"/></g><g text-rendering="optimizeLegibility" transform="translate(113.2163,35)" color-rendering="optimizeQuality" color-interpolation="linearRGB" image-rendering="optimizeQuality"><path d="M6.8125 -1.6875 L6.7812 -1.6875 Q5.7812 0.1562 3.7031 0.1562 Q2.4219 0.1562 1.6484 -0.6406 Q0.875 -1.4375 0.875 -2.9219 Q0.875 -4.7656 2.0312 -6.4766 Q3.1875 -8.1875 5.3281 -9.5 L5.7188 -8.8438 Q4.3438 -7.7812 3.4531 -6.1094 Q2.5625 -4.4375 2.5625 -2.8438 Q2.5625 -1.7031 3.0234 -1.1562 Q3.4844 -0.6094 4.2188 -0.6094 Q4.8906 -0.6094 5.4375 -1.2266 Q5.9844 -1.8438 6.2031 -2.9219 L6.9375 -6.6094 L8.5781 -6.6094 L7.7969 -2.8438 Q7.7188 -2.4219 7.7188 -2.0781 Q7.7188 -1.3906 8.0547 -1 Q8.3906 -0.6094 8.9844 -0.6094 Q10.1875 -0.6094 10.9922 -2.1094 Q11.7969 -3.6094 11.7969 -5.7812 Q11.7969 -7.8125 11 -8.9375 L11.5625 -9.5 Q13.5156 -7.6406 13.5156 -5.3594 Q13.5156 -3.125 12.2344 -1.4844 Q10.9531 0.1562 8.9688 0.1562 Q7.1562 0.1562 6.8125 -1.6875 Z" stroke="none"/></g><g text-rendering="optimizeLegibility" transform="translate(117.1382,35.7656)" color-rendering="optimizeQuality" color-interpolation="linearRGB" image-rendering="optimizeQuality"><path d="M3.7344 -13.1719 L3.7344 -11.2656 L1.9375 -11.2656 L1.9375 -13.1719 L3.7344 -13.1719 Z" stroke="none"/></g><g text-rendering="optimizeLegibility" transform="translate(126.7319,40.0469)" color-rendering="optimizeQuality" color-interpolation="linearRGB" image-rendering="optimizeQuality"><path d="M2.5156 -3.8125 L2.7344 -3.8125 Q2.9531 -3.8125 3.1953 -3.8906 Q3.4375 -3.9688 3.7188 -4.1484 Q4 -4.3281 4.4688 -4.7031 Q4.8281 -4.9844 5 -5.1875 Q5.1719 -5.3906 5.2344 -5.5391 Q5.2969 -5.6875 5.2969 -5.8281 Q5.2969 -6.1562 4.8281 -6.2031 L4.9062 -6.5312 L7.1094 -6.5312 L7.25 -6.2031 Q6.6719 -5.6875 6.0469 -5.2031 L4.3125 -3.8438 L5.3438 -1.2656 Q5.4688 -0.9062 5.6172 -0.7188 Q5.7656 -0.5312 5.9531 -0.4453 Q6.1406 -0.3594 6.4375 -0.3281 L6.3594 0 L4.5312 0 L3.5312 -2.8125 Q3.4375 -3.0781 3.3672 -3.1719 Q3.2969 -3.2656 3.2109 -3.3047 Q3.125 -3.3438 2.9219 -3.3438 L2.4219 -3.3438 L1.7031 0 L0.5312 0 L2.2812 -7.8125 Q2.3594 -8.1562 2.3906 -8.3125 Q2.4219 -8.4688 2.4375 -8.5938 Q2.4531 -8.7188 2.4531 -8.8281 Q2.4531 -9.1094 2.2734 -9.2266 Q2.0938 -9.3438 1.6406 -9.3594 L1.7344 -9.7188 L3.4531 -9.7812 L3.8594 -9.7812 L2.5156 -3.8125 Z" stroke="none"/></g><g text-rendering="optimizeLegibility" transform="translate(133.9819,35)" color-rendering="optimizeQuality" color-interpolation="linearRGB" image-rendering="optimizeQuality"><path d="M10.2656 0.125 L10.2656 -7.0156 Q10.2656 -8.7656 10.3594 -10.6406 L10.25 -10.6406 L5.0312 0.125 L3.5 0.125 L3.0312 -10.7344 Q3 -11.5469 2.8672 -11.9766 Q2.7344 -12.4062 2.5078 -12.6016 Q2.2812 -12.7969 1.875 -12.8594 L1.9844 -13.3281 L6.0625 -13.3281 L5.9531 -12.8594 Q5.5156 -12.8281 5.2656 -12.5938 Q5.0156 -12.3594 4.9141 -11.9688 Q4.8125 -11.5781 4.8125 -10.8438 L4.8125 -10.5156 Q4.8125 -10.3438 4.8281 -10.1562 L4.9062 -6.3438 Q4.9219 -5.9219 4.9219 -5.0469 L4.9219 -4.2656 L4.9062 -2.2188 L5.0156 -2.2188 L10.4062 -13.3281 L11.8906 -13.3281 L11.8906 -6.8125 Q11.8906 -5.6562 11.8594 -4.5625 L11.7969 -2.2188 L11.8906 -2.2188 L15.8438 -9.8594 Q16.0781 -10.2969 16.3281 -10.875 Q16.5781 -11.4531 16.5781 -11.875 Q16.5781 -12.2656 16.3438 -12.5156 Q16.1094 -12.7656 15.5938 -12.8594 L15.7031 -13.3281 L19.7031 -13.3281 L19.5938 -12.8594 Q19.1406 -12.7969 18.7344 -12.3594 Q18.3281 -11.9219 17.6406 -10.6719 L11.7656 0.125 L10.2656 0.125 Z" stroke="none"/></g><g text-rendering="optimizeLegibility" transform="translate(153.6851,40.0156)" color-rendering="optimizeQuality" color-interpolation="linearRGB" image-rendering="optimizeQuality"><path d="M2.5156 -3.8125 L2.7344 -3.8125 Q2.9531 -3.8125 3.1953 -3.8906 Q3.4375 -3.9688 3.7188 -4.1484 Q4 -4.3281 4.4688 -4.7031 Q4.8281 -4.9844 5 -5.1875 Q5.1719 -5.3906 5.2344 -5.5391 Q5.2969 -5.6875 5.2969 -5.8281 Q5.2969 -6.1562 4.8281 -6.2031 L4.9062 -6.5312 L7.1094 -6.5312 L7.25 -6.2031 Q6.6719 -5.6875 6.0469 -5.2031 L4.3125 -3.8438 L5.3438 -1.2656 Q5.4688 -0.9062 5.6172 -0.7188 Q5.7656 -0.5312 5.9531 -0.4453 Q6.1406 -0.3594 6.4375 -0.3281 L6.3594 0 L4.5312 0 L3.5312 -2.8125 Q3.4375 -3.0781 3.3672 -3.1719 Q3.2969 -3.2656 3.2109 -3.3047 Q3.125 -3.3438 2.9219 -3.3438 L2.4219 -3.3438 L1.7031 0 L0.5312 0 L2.2812 -7.8125 Q2.3594 -8.1562 2.3906 -8.3125 Q2.4219 -8.4688 2.4375 -8.5938 Q2.4531 -8.7188 2.4531 -8.8281 Q2.4531 -9.1094 2.2734 -9.2266 Q2.0938 -9.3438 1.6406 -9.3594 L1.7344 -9.7188 L3.4531 -9.7812 L3.8594 -9.7812 L2.5156 -3.8125 Z" stroke="none"/></g></g></svg>