<svg height="84mm" viewBox="0 0 1140.9447 297.63749" width="322mm" xmlns="http://www.w3.org/2000/svg"><g transform="translate(0 -754.72478)"><path d="m229.78369 761.33521h755.47321v287.46432h-755.47321z" fill-opacity=".022989" stroke="#000" stroke-width="1.064925"/><path d="m986.98596 845.91534h46.712833v47.308529h-46.712833z" fill="#f6cf07" stroke="#000" stroke-width="1.563493"/><text font-family="sans-serif" font-size="42.64072" letter-spacing="0" transform="scale(.97118288 1.0296722)" word-spacing="0" x="1074.9828" xml:space="preserve" y="837.46082"><tspan x="1074.9828" y="837.46082">field </tspan><tspan x="1074.9828" y="890.76172">out</tspan></text><path d="m569.23534 869.35452h71.82661" fill="none" stroke="#000" stroke-width="1.465759"/><path d="m641.11451 865.0482v8.40835l3.48603-3.97319z" fill-rule="evenodd" stroke="#000" stroke-width="1.421357"/><text font-family="sans-serif" font-size="42.64072" letter-spacing="0" transform="scale(.97118289 1.0296722)" word-spacing="0" x="169.34126" xml:space="preserve" y="828.91205"><tspan text-anchor="end" x="184.33214" y="828.91205">data </tspan><tspan text-anchor="end" x="169.34126" y="882.21295">sources</tspan></text><g stroke="#000"><path d="m181.60393 843.42072h46.712837v47.308537h-46.712837z" fill="#f6cf07" stroke-width="1.563493"/><path d="m230.81985 852.35223h29.7995v27.526657h-29.7995z" fill="#f6cf07" stroke-width="1.2"/><path d="m538.67163 854.31335h29.799496v27.526653h-29.799496z" fill="#f6cf07" stroke-width="1.2"/><path d="m261.20605 842.93201h276.33292v111.89441h-276.33292z" fill-opacity=".097701" stroke-linecap="round" stroke-linejoin="round" stroke-width="1.848621"/></g><text font-family="sans-serif" font-size="20.358217" letter-spacing="0" word-spacing="0" x="324.92932" y="908.17963"><tspan font-family="Helvetica" font-size="22.499998" font-weight="bold" x="324.92932" y="908.17963">Displacement</tspan></text><g transform="matrix(.33930361 0 0 .33930361 385.39153 679.00623)"><rect fill="#f6cf07" height="79.285713" ry="14.805184" width="173.28427" x="257.85684" y="518.09174"/><text font-family="sans-serif" font-size="60" letter-spacing="0" word-spacing="0" x="343.6933" y="572.18774"><tspan fill="#fff" font-family="Lucida Console" font-size="50" font-stretch="semi-condensed" text-anchor="middle" x="343.6933" y="572.18774">pin 0</tspan></text></g><g transform="matrix(.33930361 0 0 .33930361 179.39976 679.00623)"><rect fill="#f6cf07" height="79.285713" ry="14.805184" width="173.28427" x="257.85684" y="518.09174"/><text font-family="sans-serif" font-size="60" letter-spacing="0" word-spacing="0" x="343.6933" y="572.18774"><tspan fill="#fff" font-family="Lucida Console" font-size="50" font-stretch="semi-condensed" text-anchor="middle" x="343.6933" y="572.18774">pin 0</tspan></text></g><text fill="#8b1485" font-family="sans-serif" font-size="20.358217" letter-spacing="0" word-spacing="0" x="261.1366" y="971.91827"><tspan fill="#8b1485" font-size="16.965181" text-anchor="middle" x="261.1366" y="971.91827">inputs</tspan></text><text fill="#8b1485" font-family="sans-serif" font-size="20.358217" letter-spacing="0" word-spacing="0" x="537.05084" y="971.66571"><tspan fill="#8b1485" font-size="16.965181" text-anchor="middle" x="537.05084" y="971.66571">outputs</tspan></text><path d="m645.89673 854.61816h29.799496v27.526653h-29.799496z" fill="#f6cf07" stroke="#000" stroke-width="1.2"/><path d="m953.74847 856.57922h29.799492v27.526649h-29.799492z" fill="#f6cf07" stroke="#000" stroke-width="1.2"/><path d="m676.2829 845.19788h276.33289v111.89439h-276.33289z" fill-opacity=".097701" stroke="#000" stroke-linecap="round" stroke-linejoin="round" stroke-width="1.848621"/><text font-family="sans-serif" font-size="20.358217" letter-spacing="0" word-spacing="0" x="780.18475" y="908.83838"><tspan font-family="Helvetica" font-size="22.499998" font-weight="bold" x="780.18475" y="908.83838">Norm</tspan></text><g transform="matrix(.33930361 0 0 .33930361 800.46842 681.27225)"><rect fill="#f6cf07" height="79.285713" ry="14.805184" width="173.28427" x="257.85684" y="518.09174"/><text font-family="sans-serif" font-size="60" letter-spacing="0" word-spacing="0" x="343.6933" y="572.18774"><tspan fill="#fff" font-family="Lucida Console" font-size="50" font-stretch="semi-condensed" text-anchor="middle" x="343.6933" y="572.18774">pin 0</tspan></text></g><g transform="matrix(.33930361 0 0 .33930361 594.47664 681.27225)"><rect fill="#f6cf07" height="79.285713" ry="14.805184" width="173.28427" x="257.85684" y="518.09174"/><text font-family="sans-serif" font-size="60" letter-spacing="0" word-spacing="0" x="343.6933" y="572.18774"><tspan fill="#fff" font-family="Lucida Console" font-size="50" font-stretch="semi-condensed" text-anchor="middle" x="343.6933" y="572.18774">pin 0</tspan></text></g><text fill="#8b1485" font-family="sans-serif" font-size="20.358217" letter-spacing="0" word-spacing="0" x="676.21344" y="974.1842"><tspan fill="#8b1485" font-size="16.965181" text-anchor="middle" x="676.21344" y="974.1842">inputs</tspan></text><text fill="#8b1485" font-family="sans-serif" font-size="20.358217" letter-spacing="0" word-spacing="0" x="952.12769" y="973.93164"><tspan fill="#8b1485" font-size="16.965181" text-anchor="middle" x="952.12769" y="973.93164">outputs</tspan></text><text font-family="sans-serif" font-size="40" letter-spacing="0" text-anchor="end" word-spacing="0" x="901.05603" y="809.92584"><tspan x="901.05603" y="809.92584">Total deformation workflow</tspan></text></g></svg>