<?xml version="1.0" encoding="UTF-8" standalone="no"?><svg xmlns="http://www.w3.org/2000/svg" xmlns:xlink="http://www.w3.org/1999/xlink" stroke-dasharray="none" shape-rendering="auto" font-family="'Dialog'" width="8.812599" text-rendering="auto" fill-opacity="1" contentScriptType="text/ecmascript" color-interpolation="auto" color-rendering="auto" preserveAspectRatio="xMidYMid meet" font-size="12" fill="black" stroke="black" image-rendering="auto" stroke-miterlimit="10" zoomAndPan="magnify" version="1.0" stroke-linecap="square" stroke-linejoin="miter" contentStyleType="text/css" font-style="normal" height="13" stroke-width="1" stroke-dashoffset="0" font-weight="normal" stroke-opacity="1" y="-1.000000"><!--Converted from MathML using JEuclid--><defs id="genericDefs"/><g><g text-rendering="optimizeLegibility" transform="translate(0,12)" color-rendering="optimizeQuality" color-interpolation="linearRGB" image-rendering="optimizeQuality"><path d="M6.5938 -1.7969 Q5.7969 -0.8281 5.0156 -0.3359 Q4.2344 0.1562 3.3438 0.1562 Q2.3125 0.1562 1.8047 -0.375 Q1.2969 -0.9062 1.2969 -1.9062 Q1.2969 -2.5156 1.4688 -3.2812 L2.6875 -8.3438 L1.2344 -8.3438 L1.3438 -8.8438 Q1.9219 -8.9219 2.2578 -9.1016 Q2.5938 -9.2812 2.8203 -9.5781 Q3.0469 -9.875 3.2422 -10.3516 Q3.4375 -10.8281 3.7344 -11.75 L5.0781 -11.75 L4.5469 -9.3438 L7.6406 -9.3438 L7.4219 -8.3438 L4.3125 -8.3438 L3.375 -4.5625 Q2.9844 -2.9844 2.9844 -2.2031 Q2.9844 -1.6094 3.2422 -1.2969 Q3.5 -0.9844 4 -0.9844 Q4.4531 -0.9844 4.9453 -1.3359 Q5.4375 -1.6875 6.0312 -2.3906 L6.5938 -1.7969 Z" stroke="none"/></g></g></svg>