<?xml version="1.0" encoding="UTF-8" standalone="no"?><svg xmlns="http://www.w3.org/2000/svg" xmlns:xlink="http://www.w3.org/1999/xlink" stroke-dasharray="none" shape-rendering="auto" font-family="'Dialog'" width="19.812600" text-rendering="auto" fill-opacity="1" contentScriptType="text/ecmascript" color-interpolation="auto" color-rendering="auto" preserveAspectRatio="xMidYMid meet" font-size="12" fill="black" stroke="black" image-rendering="auto" stroke-miterlimit="10" zoomAndPan="magnify" version="1.0" stroke-linecap="square" stroke-linejoin="miter" contentStyleType="text/css" font-style="normal" height="19" stroke-width="1" stroke-dashoffset="0" font-weight="normal" stroke-opacity="1" y="-5.000000"><!--Converted from MathML using JEuclid--><defs id="genericDefs"/><g><g text-rendering="optimizeLegibility" transform="translate(0,14)" color-rendering="optimizeQuality" color-interpolation="linearRGB" image-rendering="optimizeQuality"><path d="M10.9531 -9.9062 L10.0156 -9.9062 Q10.0156 -11.6875 9.7891 -12.0859 Q9.5625 -12.4844 8.7344 -12.4844 L5.7969 -12.4844 L3.6875 -2.8438 Q3.4531 -1.8125 3.4531 -1.3125 Q3.4531 -0.9062 3.6562 -0.7188 Q3.8594 -0.5312 4.5469 -0.4844 L4.4219 0 L0.4219 0 L0.5156 -0.4844 Q1.1094 -0.5625 1.3594 -0.9844 Q1.6094 -1.4062 1.9375 -2.9219 L3.6094 -10.4219 Q3.8125 -11.3906 3.8125 -11.9844 Q3.8125 -12.8438 2.8594 -12.8594 L2.9531 -13.3438 L11.7188 -13.3438 L10.9531 -9.9062 Z" stroke="none"/></g><g text-rendering="optimizeLegibility" transform="translate(11.7188,18.8906)" color-rendering="optimizeQuality" color-interpolation="linearRGB" image-rendering="optimizeQuality"><path d="M2.5156 -3.8125 L2.7344 -3.8125 Q2.9531 -3.8125 3.1953 -3.8906 Q3.4375 -3.9688 3.7188 -4.1484 Q4 -4.3281 4.4688 -4.7031 Q4.8281 -4.9844 5 -5.1875 Q5.1719 -5.3906 5.2344 -5.5391 Q5.2969 -5.6875 5.2969 -5.8281 Q5.2969 -6.1562 4.8281 -6.2031 L4.9062 -6.5312 L7.1094 -6.5312 L7.25 -6.2031 Q6.6719 -5.6875 6.0469 -5.2031 L4.3125 -3.8438 L5.3438 -1.2656 Q5.4688 -0.9062 5.6172 -0.7188 Q5.7656 -0.5312 5.9531 -0.4453 Q6.1406 -0.3594 6.4375 -0.3281 L6.3594 0 L4.5312 0 L3.5312 -2.8125 Q3.4375 -3.0781 3.3672 -3.1719 Q3.2969 -3.2656 3.2109 -3.3047 Q3.125 -3.3438 2.9219 -3.3438 L2.4219 -3.3438 L1.7031 0 L0.5312 0 L2.2812 -7.8125 Q2.3594 -8.1562 2.3906 -8.3125 Q2.4219 -8.4688 2.4375 -8.5938 Q2.4531 -8.7188 2.4531 -8.8281 Q2.4531 -9.1094 2.2734 -9.2266 Q2.0938 -9.3438 1.6406 -9.3594 L1.7344 -9.7188 L3.4531 -9.7812 L3.8594 -9.7812 L2.5156 -3.8125 Z" stroke="none"/></g></g></svg>